<svg width="385" height="361" viewBox="0 0 385 361" fill="none" xmlns="http://www.w3.org/2000/svg">
<path d="M82.7853 74.4102H78.6714V15.4185H82.7853V74.4102Z" fill="#F5E7DA"/>
<path d="M80.8244 74.4102H21.832V15.4185H80.8244V74.4102Z" fill="#FFF6ED"/>
<path d="M79.1897 72.776H23.4668V17.0528H79.1897V72.776Z" fill="white"/>
<path d="M80.8244 15.4186L80.724 15.5317C80.6495 15.6091 80.5474 15.7148 80.4161 15.8513C80.1363 16.1367 79.7325 16.5477 79.2135 17.0769L79.2041 17.0869H79.1894C74.6702 17.1185 63.8963 17.141 51.3298 17.141C38.7592 17.141 27.9866 17.1185 23.4669 17.0869H23.4526L23.4432 17.0769C22.9238 16.5477 22.5204 16.1367 22.2406 15.8513C22.1093 15.7148 22.0072 15.6091 21.9328 15.5317L21.832 15.4186L21.9451 15.5193C22.0225 15.5933 22.1288 15.6957 22.2653 15.8271C22.5504 16.1067 22.9615 16.5103 23.491 17.0295L23.4669 17.0195C27.9866 16.9879 38.7592 16.9654 51.3298 16.9654C63.8963 16.9654 74.6702 16.9879 79.1894 17.0195L79.1661 17.0295C79.6949 16.5103 80.1064 16.1067 80.3914 15.8271C80.5279 15.6957 80.6339 15.5933 80.7116 15.5193L80.8244 15.4186Z" fill="#DADBD8"/>
<path d="M21.832 74.4102L21.9328 74.2978C22.0072 74.2204 22.1093 74.1139 22.2406 73.9775C22.5204 73.6929 22.9238 73.281 23.4432 72.7526L23.4526 72.7418H23.4669C27.9866 72.7102 38.7604 72.6877 51.3269 72.6877C63.8973 72.6877 74.6702 72.7102 79.1894 72.7418H79.2041L79.2135 72.7526C79.7325 73.281 80.1363 73.6929 80.4161 73.9775C80.5474 74.1139 80.6495 74.2204 80.724 74.2978L80.8244 74.4102L80.7116 74.3103C80.6339 74.2354 80.5279 74.1339 80.3914 74.0024C80.1064 73.7228 79.6949 73.3193 79.1661 72.8001L79.1894 72.8092C74.6702 72.8417 63.8973 72.8641 51.3269 72.8641C38.7604 72.8641 27.9866 72.8417 23.4669 72.8092L23.491 72.8001C22.9615 73.3193 22.5504 73.7228 22.2653 74.0024C22.1288 74.1339 22.0225 74.2354 21.9451 74.3103L21.832 74.4102Z" fill="#DADBD8"/>
<path d="M62.9449 50.2498C62.9449 52.7792 60.8945 54.8296 58.3651 54.8296H47.0417C44.5123 54.8296 42.4619 52.7792 42.4619 50.2498V38.9267C42.4619 36.3974 44.5123 34.3469 47.0417 34.3469H58.3651C60.8945 34.3469 62.9449 36.3974 62.9449 38.9267V50.2498Z" fill="#F5F6F8"/>
<path d="M80.8244 91.7709L80.724 91.8841C80.6495 91.9614 80.5474 92.0679 80.4161 92.2044C80.1363 92.489 79.7325 92.9 79.2135 93.4301L79.2041 93.4392H79.1894C74.6702 93.4717 63.8963 93.4941 51.3298 93.4941C38.7592 93.4941 27.9866 93.4717 23.4669 93.4392H23.4526L23.4432 93.4301C22.9238 92.9 22.5204 92.489 22.2406 92.2044C22.1093 92.0679 22.0072 91.9614 21.9328 91.8841L21.832 91.7709L21.9451 91.8716C22.0225 91.9465 22.1288 92.048 22.2653 92.1794C22.5504 92.459 22.9615 92.8626 23.491 93.3818L23.4669 93.3718C27.9866 93.3402 38.7592 93.3177 51.3298 93.3177C63.8963 93.3177 74.6702 93.3402 79.1894 93.3718L79.1661 93.3818C79.6949 92.8626 80.1064 92.459 80.3914 92.1794C80.5279 92.048 80.6339 91.9465 80.7116 91.8716L80.8244 91.7709Z" fill="#DADBD8"/>
<path d="M82.7853 150.763H78.6714V91.771H82.7853V150.763Z" fill="#F5E7DA"/>
<path d="M80.8244 150.763H21.832V91.771H80.8244V150.763Z" fill="#FFF6ED"/>
<path d="M79.1897 149.128H23.4668V93.4059H79.1897V149.128Z" fill="white"/>
<path d="M21.832 150.763L21.9328 150.65C22.0072 150.573 22.1093 150.467 22.2406 150.331C22.5204 150.045 22.9238 149.634 23.4432 149.105L23.4526 149.095H23.4669C27.9866 149.063 38.7604 149.041 51.3269 149.041C63.8973 149.041 74.6702 149.063 79.1894 149.095H79.2041L79.2135 149.105C79.7325 149.634 80.1363 150.045 80.4161 150.331C80.5474 150.467 80.6495 150.573 80.724 150.65L80.8244 150.763L80.7116 150.663C80.6339 150.589 80.5279 150.486 80.3914 150.355C80.1064 150.075 79.6949 149.672 79.1661 149.153L79.1894 149.162C74.6702 149.194 63.8973 149.217 51.3269 149.217C38.7604 149.217 27.9866 149.194 23.4669 149.162L23.491 149.153C22.9615 149.672 22.5504 150.075 22.2653 150.355C22.1288 150.486 22.0225 150.589 21.9451 150.663L21.832 150.763Z" fill="#DADBD8"/>
<path d="M62.9449 126.603C62.9449 129.132 60.8945 131.183 58.3651 131.183H47.0417C44.5123 131.183 42.4619 129.132 42.4619 126.603V115.279C42.4619 112.75 44.5123 110.699 47.0417 110.699H58.3651C60.8945 110.699 62.9449 112.75 62.9449 115.279V126.603Z" fill="#F5F6F8"/>
<path d="M354.901 9.49986V95.308H231.658L227.217 10.0998L354.901 9.49986Z" fill="#F5E7DA"/>
<path d="M350.461 10.0998V95.1274H227.217V10.0998H350.461Z" fill="#FFF6ED"/>
<path d="M337.112 20.664V84.5632H240.565V20.664H337.112Z" fill="white"/>
<path d="M337.112 20.664C337.112 20.664 336.946 20.6748 336.636 20.6798C336.309 20.6839 335.855 20.6898 335.263 20.6964C334.04 20.7048 332.264 20.7156 329.961 20.7305C325.324 20.748 318.58 20.7738 310.065 20.8054C293.039 20.8395 268.94 20.887 240.565 20.9427L240.844 20.664C240.852 40.1872 240.86 61.819 240.869 84.5558V84.5632L240.565 84.2587C276.985 84.282 310.564 84.3036 337.112 84.3203L336.87 84.5632C336.923 65.1174 336.966 49.1738 336.997 38.0704C337.024 32.5212 337.044 28.186 337.059 25.2146C337.07 23.746 337.079 22.6194 337.086 21.8364C337.094 21.0709 337.112 20.664 337.112 20.664C337.112 20.664 337.129 21.0359 337.138 21.7848C337.144 22.557 337.153 23.6695 337.166 25.1181C337.18 28.077 337.201 32.3947 337.227 37.9198C337.257 49.0589 337.302 65.0541 337.355 84.5632L337.356 84.8054H337.112C310.564 84.8229 276.985 84.8445 240.565 84.8678H240.26V84.5632V84.5558C240.269 61.819 240.278 40.1872 240.285 20.664L240.286 20.3836L240.565 20.3844C269.015 20.441 293.178 20.4884 310.249 20.5217C318.737 20.5541 325.458 20.5791 330.081 20.5966C332.36 20.6115 334.117 20.6232 335.327 20.6307C335.905 20.6382 336.349 20.6432 336.669 20.6473C336.968 20.6532 337.112 20.664 337.112 20.664Z" fill="#DADBD8"/>
<path d="M227.217 9.86097C227.268 9.7944 228.075 10.3236 229.336 11.2331C230.597 12.1442 232.313 13.4348 234.167 14.9184C236.021 16.4028 237.652 17.8066 238.8 18.8575C239.948 19.9084 240.619 20.6015 240.565 20.6639C240.45 20.7929 237.487 18.3491 233.787 15.3935C230.083 12.4421 227.109 9.99993 227.217 9.86097Z" fill="#DADBD8"/>
<path d="M350.461 10.0998C350.566 10.2313 347.662 12.7034 343.976 15.6207C340.289 18.538 337.217 20.7954 337.113 20.664C337.009 20.5317 339.912 18.0604 343.598 15.1431C347.284 12.2258 350.357 9.96835 350.461 10.0998Z" fill="#DADBD8"/>
<path d="M350.363 95.1392C345.783 91.4272 341.202 87.7144 336.622 84.0025L350.363 95.1392Z" fill="white"/>
<path d="M336.622 84.0025C336.728 83.8719 339.89 86.2591 343.684 89.3337C347.479 92.4099 350.469 95.0085 350.363 95.1392C350.258 95.2698 347.096 92.8834 343.301 89.8072C339.506 86.7318 336.517 84.1332 336.622 84.0025Z" fill="#DADBD8"/>
<path d="M227.217 95.1274C227.113 94.9951 229.986 92.5488 233.634 89.6639C237.282 86.7782 240.324 84.5458 240.428 84.6781C240.532 84.8095 237.66 87.2559 234.011 90.1415C230.364 93.0264 227.321 95.2589 227.217 95.1274Z" fill="#DADBD8"/>
<path d="M309.532 40.4385C312.061 40.4385 314.111 42.489 314.111 45.0183V57.2542C314.111 59.7836 312.061 61.834 309.532 61.834H268.145C265.616 61.834 263.565 59.7836 263.565 57.2542V45.0183C263.565 42.489 265.616 40.4385 268.145 40.4385H309.532Z" fill="#F5F6F8"/>
<path d="M384.955 360.587C384.955 360.707 298.773 360.804 192.487 360.804C86.1634 360.804 0 360.707 0 360.587C0 360.468 86.1634 360.371 192.487 360.371C298.773 360.371 384.955 360.468 384.955 360.587Z" fill="#17282F"/>
<path d="M297.551 360.587H179.086V360.372C183.513 360.371 187.984 360.371 192.487 360.371C231.222 360.371 267.293 360.384 297.49 360.406L297.551 360.587ZM127.704 360.587H35.7015L35.7324 360.462C58.3638 360.426 90.3709 360.399 127.704 360.384V360.587Z" fill="#17282F"/>
<path d="M129.414 357.906L151.564 352.702H154.063L177.924 358.114C177.924 358.114 177.737 359.173 179.085 359.616V360.587H127.703V359.526C127.703 359.526 129.041 359.262 129.357 358.348L129.414 357.906Z" fill="#17282F"/>
<path d="M151.565 353.108H154.064V86.2639H151.565V353.108Z" fill="#17282F"/>
<path d="M154.064 107.429L151.565 101.516V86.4846C152.393 86.4821 153.226 86.4805 154.064 86.4805V107.429Z" fill="#3A3002"/>
<path d="M156.255 356.441H139.152C139.033 356.441 139.013 356.266 139.128 356.238L150.838 353.381L150.862 353.378H153.82L153.894 353.411L156.371 356.171C156.463 356.274 156.392 356.441 156.255 356.441Z" fill="#17282F"/>
<path d="M179.123 359.554C179.123 359.674 167.684 359.771 153.577 359.771C139.464 359.771 128.028 359.674 128.028 359.554C128.028 359.435 139.464 359.338 153.577 359.338C167.684 359.338 179.123 359.435 179.123 359.554Z" fill="#17282F"/>
<path d="M154.063 352.666C154.063 352.786 153.501 352.882 152.807 352.882C152.114 352.882 151.551 352.786 151.551 352.666C151.551 352.546 152.114 352.449 152.807 352.449C153.501 352.449 154.063 352.546 154.063 352.666Z" fill="#17282F"/>
<path d="M199.839 7.13013C199.839 3.1927 179.35 -7.62939e-06 154.076 -7.62939e-06C128.959 -7.62939e-06 108.577 3.15363 108.327 7.05778H108.315L102.48 89.8296H205.647L199.839 7.13013Z" fill="#55A363"/>
<path d="M205.647 89.8296C205.647 91.7983 182.552 93.3943 154.063 93.3943C125.575 93.3943 102.48 91.7983 102.48 89.8296C102.48 87.8601 125.575 86.2641 154.063 86.2641C182.552 86.2641 205.647 87.8601 205.647 89.8296Z" fill="#55A363"/>
<path d="M142.482 156.338C142.362 156.338 142.265 140.658 142.265 121.319C142.265 101.973 142.362 86.2957 142.482 86.2957C142.602 86.2957 142.699 101.973 142.699 121.319C142.699 140.658 142.602 156.338 142.482 156.338Z" fill="#17282F"/>
<path d="M144.302 157.532C144.302 158.565 143.488 159.402 142.483 159.402C141.478 159.402 140.662 158.565 140.662 157.532C140.662 156.501 141.478 155.664 142.483 155.664C143.488 155.664 144.302 156.501 144.302 157.532Z" fill="#55A363"/>
<path d="M154.063 93.3943V86.4805C154.064 86.4805 154.065 86.4805 154.066 86.4805C168.425 86.4813 181.427 86.8616 190.816 87.4815C195.51 87.7918 199.302 88.1613 201.897 88.5782C203.193 88.7878 204.192 89.0075 204.838 89.2438C205.16 89.362 205.393 89.4876 205.516 89.6091C205.64 89.7281 205.634 89.8296 205.646 89.8296H205.647C205.647 91.7983 182.552 93.3943 154.063 93.3943Z" fill="#44824F"/>
<path d="M151.564 93.391C148.503 93.3802 145.51 93.3519 142.611 93.3061C142.582 89.7298 142.547 87.3367 142.508 86.5654C145.44 86.5213 148.467 86.4947 151.564 86.4847V93.391Z" fill="#44824F"/>
<path d="M142.352 93.3027C119.507 92.9358 102.483 91.5196 102.48 89.8296C102.494 89.8296 102.487 89.7281 102.611 89.6091C102.733 89.4876 102.967 89.362 103.289 89.2438C103.935 89.0075 104.933 88.7878 106.23 88.5781C108.824 88.1613 112.616 87.7918 117.31 87.4815C124.09 87.0338 132.754 86.7109 142.455 86.5662C142.416 87.3383 142.382 89.7289 142.352 93.3027Z" fill="#44824F"/>
<path d="M142.612 93.306C142.525 93.3052 142.44 93.3035 142.353 93.3027C142.382 89.7289 142.417 87.3383 142.455 86.5661C142.473 86.5661 142.491 86.5653 142.509 86.5653C142.547 87.3366 142.583 89.7297 142.612 93.306Z" fill="#6C7A7F"/>
<path d="M205.648 89.8296C205.634 89.8321 205.643 89.7298 205.516 89.6091C205.394 89.4876 205.161 89.362 204.839 89.2438C204.192 89.0075 203.194 88.7878 201.897 88.5782C199.303 88.1613 195.51 87.7918 190.816 87.4815C181.428 86.8616 168.426 86.4813 154.067 86.4805C139.702 86.4813 126.699 86.8616 117.311 87.4815C112.617 87.7918 108.825 88.1613 106.231 88.5782C104.934 88.7878 103.936 89.0075 103.29 89.2438C102.968 89.362 102.734 89.4876 102.612 89.6091C102.485 89.7298 102.495 89.8321 102.481 89.8296C102.48 89.8354 102.454 89.7206 102.579 89.5783C102.7 89.4385 102.936 89.2963 103.258 89.1631C103.905 88.896 104.905 88.6481 106.202 88.4126C108.799 87.9424 112.593 87.5256 117.289 87.1761C126.683 86.4772 139.694 86.0478 154.067 86.047C168.434 86.0478 181.444 86.4772 190.838 87.1761C195.534 87.5256 199.329 87.9424 201.926 88.4126C203.223 88.6481 204.223 88.896 204.87 89.1631C205.192 89.2963 205.428 89.4385 205.549 89.5783C205.674 89.7206 205.648 89.8354 205.648 89.8296Z" fill="#17282F"/>
<path d="M151.565 86.4846V86.2641H154.064V86.4805C153.226 86.4805 152.393 86.4821 151.565 86.4846Z" fill="#6C7A7F"/>
<path d="M116.892 70.1124C115.724 70.1124 114.559 69.9344 113.457 69.5358C108.217 67.6411 108.275 63.0239 108.475 58.9317C109.202 44.0215 110.446 28.216 111.262 13.1536C111.401 10.5974 113.223 8.48808 115.667 7.98217C124.372 6.17654 133.82 5.52585 144.032 5.52585C149.653 5.52585 155.504 5.72221 161.592 6.03258C164.468 6.17902 166.734 8.66698 166.622 11.6226C166.119 24.8785 159.58 37.5695 151.437 48.0821C142.942 59.0498 131.649 68.9084 117.895 70.07C117.561 70.0974 117.227 70.1124 116.892 70.1124Z" fill="#FFF5DD" fill-opacity="0.24"/>
<path d="M41.9532 260.843C41.9532 260.85 42.0183 260.859 42.1447 260.87C42.2939 260.881 42.4785 260.894 42.706 260.91C43.1987 260.953 43.9291 260.947 44.8583 261.08C46.7186 261.269 49.4167 261.718 52.5698 262.854C55.7187 263.979 59.3312 265.752 62.9062 268.367C64.6916 269.673 66.48 271.162 68.2059 272.842C69.922 274.532 71.5742 276.405 73.1044 278.45C74.6458 280.488 76.0168 282.58 77.2714 284.641C78.5413 286.693 79.6704 288.731 80.7308 290.679C82.8233 294.593 84.5431 298.204 85.9161 301.267C87.2849 304.332 88.3216 306.845 89.0015 308.596C89.3326 309.449 89.5947 310.122 89.7853 310.611C89.8702 310.823 89.9392 310.995 89.995 311.134C90.0441 311.251 90.0724 311.309 90.079 311.308C90.0857 311.305 90.0699 311.242 90.0324 311.12C89.9867 310.978 89.9292 310.802 89.8585 310.585C89.6979 310.117 89.4749 309.421 89.1429 308.542C88.5064 306.773 87.5062 304.241 86.1682 301.156C84.8252 298.074 83.1278 294.443 81.0473 290.511C79.9932 288.552 78.8673 286.504 77.5974 284.441C76.3424 282.37 74.9676 280.267 73.4156 278.215C71.8742 276.155 70.2055 274.267 68.4727 272.569C66.7296 270.879 64.922 269.384 63.1165 268.077C59.5015 265.456 55.8451 263.693 52.6605 262.593C49.4713 261.482 46.7465 261.073 44.873 260.93C43.9369 260.818 43.2027 260.849 42.7083 260.832C42.4797 260.831 42.2945 260.831 42.145 260.83C42.0183 260.832 41.9532 260.837 41.9532 260.843Z" fill="#17282F"/>
<path d="M103.157 227.433C103.15 227.43 103.115 227.497 103.053 227.631C102.985 227.782 102.896 227.978 102.783 228.226C102.545 228.775 102.21 229.548 101.782 230.533C101.306 231.523 100.939 232.798 100.444 234.257C100.216 234.992 99.911 235.764 99.7013 236.609C99.4849 237.453 99.2561 238.344 99.0165 239.279C98.4848 241.141 98.1578 243.226 97.7034 245.446C97.4646 246.556 97.3498 247.72 97.1584 248.91C97.002 250.103 96.7682 251.325 96.6608 252.59C96.0601 257.637 95.7306 263.21 95.5783 269.062C95.4843 274.917 95.6174 280.496 95.877 285.562C96.1716 290.628 96.5418 295.184 96.9862 299C97.1975 300.908 97.3997 302.634 97.6244 304.144C97.8374 305.656 98.0063 306.96 98.1985 308.019C98.3774 309.062 98.5189 309.88 98.6187 310.46C98.6678 310.724 98.7069 310.933 98.7377 311.094C98.7669 311.236 98.7843 311.309 98.791 311.308C98.7976 311.307 98.7926 311.233 98.7768 311.088C98.756 310.926 98.7294 310.715 98.6961 310.45C98.6137 309.868 98.4973 309.047 98.3483 308.001C98.1802 306.94 98.033 305.635 97.8407 304.123C97.6369 302.611 97.4538 300.885 97.2608 298.977C96.8514 295.162 96.5102 290.608 96.2356 285.548C95.996 280.486 95.8745 274.915 95.9677 269.068C96.12 263.225 96.4378 257.661 97.0178 252.622C97.1201 251.359 97.3473 250.139 97.4988 248.948C97.6826 247.76 97.7908 246.597 98.023 245.491C98.4623 243.274 98.7727 241.191 99.2861 239.331C99.5157 238.395 99.7346 237.505 99.9418 236.661C100.141 235.818 100.436 235.045 100.653 234.31C101.128 232.849 101.473 231.571 101.925 230.577C102.323 229.584 102.635 228.806 102.857 228.253C102.953 227.999 103.03 227.799 103.09 227.644C103.14 227.507 103.163 227.435 103.157 227.433Z" fill="#17282F"/>
<path d="M93.2109 311.308C93.2175 311.31 93.26 311.209 93.3382 311.007C93.4206 310.786 93.5321 310.487 93.676 310.103C93.7584 309.689 93.8832 309.177 93.9772 308.565C94.0222 307.948 94.1287 307.236 94.1037 306.432C94.1752 303.202 93.3507 298.594 92.0393 293.016C91.4011 290.22 90.5948 287.184 90.0739 283.86C89.9258 283.029 89.7743 282.184 89.6212 281.324C89.4482 280.47 89.2726 279.603 89.0945 278.722C88.7484 276.958 88.3365 275.156 87.9429 273.302C86.322 265.895 84.439 257.775 82.4491 249.257C78.4505 232.226 74.8309 216.811 72.2062 205.632C70.9299 200.044 69.8979 195.52 69.2523 192.38C68.9075 190.814 68.6803 189.592 68.5233 188.763C68.4437 188.363 68.3816 188.051 68.3358 187.821C68.2915 187.609 68.2656 187.501 68.2587 187.502C68.2523 187.503 68.2649 187.613 68.2968 187.827C68.3329 188.058 68.3822 188.373 68.446 188.775C68.5779 189.61 68.7814 190.84 69.1038 192.41C69.7042 195.561 70.6952 200.095 71.9375 205.693C74.4406 216.885 78.076 232.306 82.0695 249.346C84.0596 257.864 85.9526 265.98 87.5926 273.379C87.9903 275.231 88.4072 277.032 88.7584 278.792C88.9398 279.67 89.1187 280.535 89.2942 281.388C89.4507 282.243 89.6046 283.085 89.7552 283.912C90.2927 287.251 91.1165 290.293 91.7714 293.079C93.1152 298.643 93.9772 303.226 93.9514 306.431C93.9889 307.231 93.894 307.936 93.8624 308.551C93.7817 309.158 93.6693 309.668 93.6003 310.083C93.473 310.469 93.374 310.77 93.3007 310.992C93.2358 311.198 93.205 311.304 93.2109 311.308Z" fill="#17282F"/>
<path d="M91.8852 311.308C91.8985 311.307 91.9018 311.141 91.8968 310.823C91.8902 310.506 91.8702 310.039 91.8269 309.438C91.7429 308.236 91.5557 306.499 91.2636 304.361C90.7036 300.083 89.6361 294.202 88.9513 287.672C88.6234 284.406 88.4587 281.279 88.6767 278.452C88.7898 277.04 89.0045 275.703 89.3923 274.494C89.7792 273.29 90.3616 272.204 91.2054 271.428C92.0549 270.656 93.1575 270.268 94.1485 270.214C95.142 270.139 96.0065 270.283 96.6913 270.425C98.0618 270.738 98.774 271.042 98.7907 271.007C98.7965 270.996 98.6201 270.921 98.2781 270.787C98.1084 270.716 97.8937 270.64 97.6341 270.56C97.3786 270.471 97.0774 270.385 96.7304 270.302C96.0423 270.139 95.1653 269.972 94.1293 270.031C93.1 270.068 91.9126 270.464 91.0048 271.269C90.102 272.077 89.4896 273.195 89.0811 274.421C88.6717 275.653 88.4429 277.006 88.3189 278.43C88.0784 281.283 88.2348 284.425 88.5627 287.699C89.2491 294.248 90.3616 300.122 90.9899 304.389C91.3169 306.522 91.5457 308.251 91.6755 309.447C91.7346 310.021 91.7828 310.48 91.8186 310.827C91.8486 311.142 91.8719 311.308 91.8852 311.308Z" fill="#17282F"/>
<path d="M98.5288 234.594C98.7227 234.482 99.2594 234.285 99.4816 234.308C99.7886 234.34 100 234.666 100.001 234.974C100.001 235.283 99.841 235.568 99.6605 235.818C99.2677 236.362 98.7535 236.816 98.1669 237.138C97.9372 237.264 97.6759 237.372 97.4213 237.315C96.9828 237.218 96.7839 236.661 96.9087 236.229C97.0327 235.798 97.3764 235.471 97.705 235.167C97.705 235.167 97.8723 234.972 98.5288 234.594ZM117.125 229.298C115.042 230.232 113.167 231.64 110.979 232.293C110.512 232.433 109.854 232.445 109.7 231.983C109.583 231.634 109.864 231.287 110.127 231.031C113.773 227.494 118.544 225.149 123.557 224.355C120.636 221.314 117.316 218.593 113.535 217.761C112.351 218.399 111.259 219.235 110.27 220.148C108.417 221.857 106.846 223.849 105.042 225.61C104.784 225.861 104.514 226.112 104.18 226.244C103.846 226.376 103.43 226.363 103.165 226.12C102.906 225.882 102.854 225.481 102.946 225.142C103.038 224.802 103.25 224.51 103.462 224.23C105.321 221.769 107.476 219.534 109.863 217.581C107.569 217.861 105.123 218.892 102.513 220.959C102.513 220.959 98.5654 224.724 98.8575 231.904C98.8575 231.904 87.1492 233.022 87.2557 244.396C87.3048 249.625 90.3652 253.626 94.7986 256.547C94.4757 251.463 95.5774 246.294 97.9605 241.792C98.2559 241.233 98.7951 240.594 99.3867 240.818C99.7212 240.944 99.9034 241.324 99.9084 241.682C99.9134 242.039 99.7786 242.382 99.648 242.715C98.5488 245.524 97.6193 248.425 97.284 251.423C97.0294 253.697 97.1309 256.036 97.7342 258.234C101.652 260.199 106.22 261.503 110.619 262.217C108.272 259.241 106.285 255.919 105.354 252.25C104.383 248.42 104.659 244.166 106.697 240.781C107.193 239.958 108.017 239.102 108.953 239.317C109.61 239.469 110.045 240.129 110.157 240.793C110.269 241.457 110.125 242.134 110.007 242.796C108.786 249.614 110.282 256.865 114.022 262.687C116.347 262.982 118.317 263.194 120.037 263.253C118.858 261.19 117.728 259.096 116.86 256.886C115.765 254.1 115.092 251.101 115.328 248.117C115.37 247.584 115.448 247.035 115.731 246.582C116.014 246.13 116.553 245.797 117.076 245.909C117.704 246.044 118.044 246.714 118.266 247.316C119.37 250.313 119.747 253.528 120.661 256.588C121.365 258.941 122.48 261.294 124.219 262.972C127.469 262.29 130.044 260.49 132.996 256.266C133.997 254.832 134.85 253.574 134.977 251.787C134.807 249.563 132.133 248.016 129.996 247.376C127.859 246.735 125.564 246.721 123.458 245.987C122.748 245.74 121.942 245.193 122.078 244.453C122.186 243.866 122.834 243.564 123.409 243.4C126.01 242.662 128.863 242.841 131.35 243.902C132.852 244.543 134.213 245.504 135.335 246.69C135.265 244.53 134.849 242.319 134.16 240.163C128.876 237.629 122.674 237.026 117.011 238.554C116.201 238.773 115.363 239.035 114.538 238.879C113.713 238.722 112.93 237.969 113.076 237.143C113.239 236.224 114.327 235.845 115.238 235.643C118.677 234.882 122.019 235.02 125.534 235.225C128.689 235.409 130.933 235.922 132.805 236.699C131.633 234.182 130.122 231.833 128.408 229.845C128.037 229.416 127.659 228.971 127.272 228.519C123.934 227.608 120.283 227.883 117.125 229.298Z" fill="#4D935A"/>
<path d="M119.392 262.859C118.475 261.235 117.596 259.578 116.86 257.853L116.52 257.02C115.481 254.377 114.809 251.525 114.929 248.66L114.963 248.088V248.087C115 247.618 115.067 247.079 115.307 246.593L115.42 246.389L115.421 246.388C115.735 245.887 116.347 245.454 117.018 245.53L117.152 245.551C117.583 245.643 117.895 245.916 118.118 246.22C118.284 246.446 118.412 246.703 118.515 246.948L118.609 247.19C119.171 248.713 119.545 250.287 119.892 251.849C120.197 253.222 120.48 254.581 120.849 255.914L121.012 256.484C121.687 258.741 122.737 260.962 124.335 262.57C127.182 261.927 129.522 260.364 132.153 256.811L132.695 256.057C133.696 254.625 134.484 253.447 134.608 251.786C134.525 250.831 133.907 249.983 132.999 249.277C132.2 248.655 131.213 248.172 130.284 247.853L129.891 247.727C128.851 247.415 127.77 247.255 126.658 247.078C125.694 246.925 124.707 246.759 123.747 246.466L123.338 246.333C122.951 246.199 122.521 245.977 122.198 245.67C121.894 245.38 121.652 244.976 121.703 244.487L121.718 244.387C121.795 243.966 122.065 243.669 122.361 243.466C122.655 243.265 123.004 243.135 123.309 243.049V243.048C125.823 242.334 128.562 242.453 131.008 243.371L131.493 243.566C132.749 244.101 133.907 244.854 134.916 245.769C134.777 243.995 134.41 242.194 133.857 240.425C128.845 238.064 123.013 237.454 117.631 238.773L117.107 238.907C116.377 239.104 115.512 239.377 114.644 239.266L114.47 239.239C113.978 239.145 113.505 238.877 113.171 238.507C112.878 238.182 112.674 237.755 112.693 237.283L112.716 237.079C112.823 236.475 113.235 236.073 113.693 235.808C114.035 235.61 114.426 235.474 114.797 235.374L115.158 235.285H115.159C118.217 234.609 121.193 234.633 124.243 234.787L125.556 234.86C128.273 235.018 130.335 235.421 132.073 236.03C131.056 234.007 129.823 232.112 128.446 230.455L128.131 230.084C127.784 229.682 127.429 229.267 127.069 228.846C124.045 228.046 120.765 228.236 117.858 229.386L117.275 229.632C116.251 230.091 115.284 230.663 114.268 231.221C113.387 231.704 112.477 232.172 111.505 232.508L111.084 232.644C110.817 232.724 110.478 232.773 110.166 232.725C109.891 232.682 109.58 232.55 109.414 232.241L109.353 232.099C109.251 231.794 109.333 231.511 109.449 231.297C109.564 231.087 109.732 230.906 109.872 230.77V230.769C113.406 227.341 117.977 225.019 122.81 224.115C120.058 221.329 117.003 218.946 113.589 218.151C112.628 218.682 111.724 219.348 110.887 220.084L110.518 220.416C109.604 221.259 108.757 222.174 107.907 223.106C107.272 223.802 106.635 224.509 105.971 225.195L105.297 225.871C105.075 226.088 104.804 226.347 104.464 226.518L104.315 226.584L104.314 226.585C103.926 226.738 103.392 226.757 102.995 226.454L102.918 226.389H102.917C102.573 226.073 102.496 225.603 102.558 225.209L102.592 225.046H102.593C102.706 224.629 102.962 224.285 103.17 224.01V224.009C104.768 221.893 106.585 219.944 108.577 218.194C106.749 218.65 104.81 219.609 102.753 221.236C102.747 221.241 102.739 221.25 102.73 221.26C102.704 221.286 102.664 221.327 102.613 221.382C102.512 221.493 102.365 221.661 102.189 221.886C101.835 222.336 101.364 223.011 100.9 223.907C99.9749 225.699 99.0797 228.373 99.2228 231.89L99.2374 232.236L98.8927 232.269H98.8868C98.8821 232.269 98.8745 232.271 98.8644 232.272C98.8442 232.274 98.8133 232.277 98.7726 232.282C98.6909 232.293 98.5695 232.31 98.4142 232.335C98.1034 232.386 97.6572 232.472 97.1212 232.611C96.0476 232.887 94.6209 233.372 93.2013 234.2C90.4641 235.798 87.7453 238.676 87.6251 243.881L87.6212 244.392C87.6665 249.221 90.3575 252.993 94.3966 255.83C94.2222 251.082 95.2653 246.291 97.4142 242.051L97.6368 241.621C97.7967 241.319 98.0329 240.973 98.3302 240.729C98.5926 240.513 98.947 240.346 99.3438 240.426L99.5157 240.476C99.9748 240.649 100.207 241.097 100.262 241.505L100.275 241.677C100.279 242.008 100.186 242.322 100.087 242.593L99.9884 242.849C98.9625 245.471 98.0926 248.154 97.7159 250.911L97.6476 251.464C97.4032 253.646 97.4947 255.88 98.046 257.98C101.617 259.749 105.73 260.972 109.758 261.698C107.787 259.081 106.112 256.194 105.19 253.036L105 252.339C104.042 248.56 104.268 244.352 106.192 240.922L106.384 240.592C106.646 240.157 107.005 239.695 107.441 239.367C107.851 239.058 108.359 238.848 108.922 238.939L109.035 238.961C109.836 239.146 110.327 239.885 110.489 240.592L110.518 240.733C110.611 241.288 110.544 241.849 110.456 242.364L110.366 242.861C109.172 249.53 110.615 256.625 114.239 262.346C116.197 262.592 117.891 262.777 119.392 262.859ZM97.4894 237.694L97.3419 237.672C96.9795 237.592 96.7406 237.326 96.6183 237.043C96.4969 236.763 96.4704 236.429 96.5567 236.129V236.128C96.7114 235.591 97.1304 235.201 97.4444 234.91C97.4464 234.908 97.4481 234.906 97.4503 234.904C97.4608 234.893 97.4749 234.879 97.4923 234.863C97.5271 234.83 97.577 234.787 97.6466 234.733C97.7512 234.652 97.9015 234.546 98.1134 234.415L98.3458 234.277H98.3468C98.4743 234.203 98.6833 234.116 98.8819 234.052C98.9839 234.019 99.0922 233.989 99.1944 233.969C99.2895 233.95 99.4082 233.933 99.5196 233.945L99.5187 233.946C99.7972 233.974 100.013 234.134 100.15 234.321C100.253 234.46 100.323 234.626 100.352 234.799L100.366 234.973V234.974C100.366 235.297 100.242 235.583 100.101 235.817L99.9571 236.032L99.7921 236.248C99.4499 236.67 99.0375 237.034 98.5772 237.322L98.3429 237.459C98.1375 237.572 97.8293 237.718 97.4894 237.694Z" stroke="black" stroke-opacity="0.1" stroke-width="0.731644"/>
<path d="M131.862 257.951C131.87 257.944 131.788 257.821 131.625 257.592C131.463 257.361 131.211 257.032 130.881 256.611C130.217 255.773 129.203 254.601 127.874 253.226C126.546 251.85 124.895 250.283 123.043 248.568C121.2 246.844 119.127 244.987 116.863 243.151C112.328 239.474 107.918 236.545 104.648 234.57C103.017 233.577 101.668 232.821 100.732 232.306C100.282 232.068 99.9221 231.877 99.645 231.73C99.3954 231.601 99.2614 231.539 99.2556 231.548C99.2506 231.558 99.3737 231.64 99.6142 231.786C99.883 231.946 100.234 232.155 100.671 232.414C101.586 232.962 102.917 233.746 104.53 234.762C107.764 236.782 112.14 239.732 116.662 243.397C118.922 245.229 120.991 247.071 122.845 248.782C124.707 250.486 126.369 252.032 127.714 253.384C129.059 254.733 130.094 255.878 130.785 256.69C131.111 257.079 131.373 257.392 131.574 257.632C131.754 257.847 131.853 257.958 131.862 257.951Z" fill="#17282F"/>
<path d="M113.265 240.55C113.242 240.548 113.186 240.876 113.103 241.472C113.02 242.066 112.908 242.929 112.79 243.997C112.575 246.128 112.257 249.113 112.65 252.4C112.883 254.035 113.186 255.565 113.553 256.949C113.924 258.33 114.429 259.53 114.966 260.47C115.51 261.407 116.054 262.098 116.455 262.547C116.649 262.778 116.821 262.939 116.931 263.053C117.044 263.164 117.106 263.219 117.115 263.211C117.175 263.164 116.194 262.23 115.163 260.361C114.659 259.422 114.186 258.24 113.837 256.873C113.491 255.51 113.195 253.968 112.966 252.36C112.577 249.123 112.856 246.151 113.014 244.018C113.1 242.993 113.171 242.141 113.226 241.484C113.271 240.885 113.286 240.553 113.265 240.55Z" fill="#17282F"/>
<path d="M122.277 240.246C122.275 240.162 120.462 240.168 118.256 240.495C116.051 240.82 114.302 241.269 114.318 241.348C114.337 241.442 116.111 241.132 118.301 240.809C120.491 240.485 122.281 240.337 122.277 240.246Z" fill="#17282F"/>
<path d="M115.972 231.743C115.956 231.705 115.448 231.883 114.657 232.241C113.866 232.599 112.795 233.147 111.665 233.842C110.536 234.539 109.565 235.249 108.889 235.795C108.213 236.341 107.826 236.714 107.852 236.746C107.913 236.822 109.59 235.49 111.832 234.113C114.069 232.731 116.013 231.831 115.972 231.743Z" fill="#17282F"/>
<path d="M106.325 235.753C106.311 235.739 106.098 235.939 105.747 236.33C105.395 236.721 104.916 237.317 104.398 238.105C103.352 239.668 102.236 242.089 101.75 244.936C101.242 247.785 101.496 250.436 101.929 252.264C102.141 253.182 102.378 253.908 102.568 254.399C102.757 254.89 102.884 255.151 102.902 255.144C102.959 255.124 102.515 254.046 102.149 252.217C101.778 250.397 101.564 247.791 102.063 244.992C102.542 242.187 103.603 239.801 104.587 238.225C105.567 236.639 106.372 235.793 106.325 235.753Z" fill="#17282F"/>
<path d="M114.294 223.86C114.281 223.842 114.099 223.939 113.778 224.13C113.456 224.32 113.004 224.616 112.458 225.001C111.366 225.772 109.921 226.935 108.491 228.395C107.064 229.858 105.934 231.33 105.19 232.439C104.817 232.993 104.531 233.453 104.349 233.779C104.165 234.104 104.072 234.289 104.091 234.301C104.134 234.327 104.586 233.637 105.374 232.568C106.16 231.5 107.306 230.066 108.719 228.617C110.134 227.172 111.541 225.993 112.592 225.182C113.642 224.37 114.321 223.903 114.294 223.86Z" fill="#17282F"/>
<path d="M89.6901 245.437C89.7442 245.446 89.8848 244.455 90.3699 242.929C90.855 241.411 91.7819 239.367 93.3246 237.476C94.8548 235.57 96.6771 234.27 98.0625 233.47C98.7082 233.085 99.2549 232.759 99.7001 232.494C100.084 232.26 100.293 232.121 100.282 232.101C100.272 232.082 100.044 232.184 99.6402 232.386C99.2374 232.587 98.6583 232.888 97.951 233.275C96.5282 234.029 94.6368 235.332 93.0783 237.276C91.5032 239.205 90.5912 241.308 90.1552 242.864C89.9314 243.642 89.8057 244.288 89.7483 244.737C89.6859 245.185 89.6668 245.434 89.6901 245.437Z" fill="#17282F"/>
<path d="M103.033 224.375C102.975 224.316 101.758 225.801 101.021 228.01C100.648 229.103 100.439 230.132 100.341 230.88C100.243 231.629 100.242 232.097 100.282 232.101C100.383 232.114 100.581 230.262 101.322 228.113C102.041 225.953 103.111 224.427 103.033 224.375Z" fill="#17282F"/>
<path d="M25.0043 276.084C27.8522 273.687 31.2193 271.996 34.6146 270.471C36.2755 269.726 37.9517 269.014 39.6419 268.338C40.3885 268.039 40.3446 266.959 39.5737 266.731C37.0994 266 34.169 266.726 31.6733 267.726C26.9773 269.605 22.6059 272.281 18.7731 275.581C19.0283 273.498 19.6975 271.497 20.682 269.286C22.2919 265.669 24.9845 261.458 28.657 258.349C28.801 258.356 28.945 258.365 29.0884 258.375C32.2194 258.61 35.3229 259.354 38.4597 259.215C38.8492 259.198 39.2548 259.162 39.5885 258.96C39.9221 258.758 40.158 258.342 40.031 257.974C39.8993 257.592 39.4657 257.42 39.0792 257.304C36.7598 256.601 34.3559 256.185 31.936 256.052C34.8008 254.443 38.1064 253.562 41.8251 253.95C52.5239 255.066 51.6551 260.853 51.6551 260.853C51.9815 260.53 58.1373 255.486 67.1255 261.346C73.3476 265.402 75.6742 270.047 75.5708 274.687C74.8102 274.019 74.0285 273.376 73.2559 272.748C70.5737 270.569 67.8727 268.376 64.844 266.711C61.8153 265.045 58.408 263.92 54.9539 264.046C54.3971 264.066 53.763 264.163 53.4578 264.629C53.1386 265.117 53.3538 265.806 53.7766 266.206C54.1998 266.606 54.7761 266.792 55.3274 266.981C62.9729 269.593 69.5541 275.159 73.4659 282.22C72.221 284.738 70.0794 288.423 67.1163 292.26C65.8042 288.468 64.4159 284.681 62.3172 281.268C60.0154 277.525 56.7546 274.217 52.6413 272.671C52.0699 272.457 51.4484 272.275 50.8559 272.422C49.6324 272.725 49.1432 274.328 49.5587 275.518C49.9744 276.708 50.9917 277.567 51.9499 278.385C55.0381 281.025 57.9732 283.89 60.279 287.234C62.0683 289.829 63.4662 292.737 64.1651 295.799C62.4401 297.712 60.5162 299.585 58.4022 301.295C55.8335 295.587 52.2567 290.333 47.8782 285.858C47.403 285.373 46.8131 284.858 46.1397 284.949C45.392 285.049 44.9364 285.9 44.9998 286.651C45.0628 287.404 45.4994 288.065 45.9287 288.685C48.0857 291.798 50.4431 294.844 51.7709 298.391C52.5769 300.545 52.9406 302.953 52.6228 305.21C48.5306 307.469 43.9226 308.961 38.8391 309.082C38.8391 309.082 36.0509 308.062 32.4252 304.724C33.7334 300.127 35.7152 295.721 38.2933 291.696C38.6362 291.16 39.0045 290.524 38.7841 289.928C38.5133 289.196 37.4677 289.039 36.791 289.425C36.114 289.813 35.7239 290.546 35.3693 291.241C33.5267 294.851 31.6837 298.46 29.8412 302.07C28.4913 300.528 27.0949 298.667 25.7307 296.446C27.6117 289.503 32.1892 283.321 38.2969 279.516C38.9121 279.133 39.5629 278.753 39.9666 278.152C40.3703 277.55 40.4349 276.647 39.9006 276.158C39.3292 275.635 38.4233 275.82 37.6991 276.095C33.4565 277.703 30.1434 281.228 28.0027 285.229C26.4273 288.173 25.4265 291.376 24.6751 294.64C24.5034 294.331 24.3325 294.021 24.1632 293.7C21.9649 289.535 20.4984 286.216 19.6348 283.375C20.6957 280.536 22.6712 278.048 25.0043 276.084Z" fill="#4D935A"/>
<path d="M38.9039 308.715C43.8227 308.584 48.2932 307.152 52.2819 304.978C52.5292 302.98 52.2382 300.86 51.5709 298.917L51.4283 298.519C50.4478 295.9 48.8979 293.559 47.2672 291.229L45.6276 288.893C45.2058 288.284 44.7079 287.546 44.6354 286.682C44.597 286.227 44.7148 285.748 44.9557 285.362C45.1975 284.975 45.5834 284.656 46.0904 284.588V284.587C46.5384 284.526 46.9397 284.671 47.274 284.876C47.5225 285.028 47.7492 285.221 47.9488 285.413L48.1393 285.602C52.4365 289.993 55.963 295.133 58.5338 300.712C60.4365 299.14 62.1827 297.438 63.7633 295.697C63.1078 292.942 61.8799 290.312 60.3043 287.926L59.9781 287.441C57.9831 284.548 55.5067 282.011 52.857 279.66L51.7125 278.664C50.832 277.912 49.8056 277.054 49.3063 275.879L49.2135 275.638C48.9763 274.959 48.998 274.172 49.2506 273.508C49.4882 272.883 49.947 272.328 50.6285 272.106L50.7682 272.067C51.3909 271.913 52.0175 272.064 52.5485 272.249L52.7701 272.329C56.7201 273.813 59.8818 276.875 62.1803 280.371L62.6285 281.076C64.6304 284.332 65.987 287.919 67.236 291.498C69.9052 287.963 71.8637 284.603 73.0504 282.23C69.2932 275.544 63.1115 270.233 55.9147 267.578L55.2096 267.327H55.2086C54.7461 267.168 54.1813 266.99 53.7174 266.635L53.525 266.472V266.471C53.2635 266.224 53.0667 265.889 52.983 265.535C52.9095 265.223 52.9199 264.875 53.0758 264.561L53.152 264.429V264.428C53.3653 264.103 53.6845 263.923 54.0006 263.822C54.2357 263.747 54.4837 263.711 54.7154 263.693L54.941 263.68C58.2605 263.559 61.5208 264.565 64.441 266.081L65.0201 266.39C67.3168 267.653 69.4245 269.214 71.4645 270.834L73.4869 272.465C74.0547 272.926 74.6284 273.399 75.1969 273.883C75.0313 269.8 72.8568 265.701 67.4899 262.029L66.9254 261.652C62.5126 258.775 58.8256 258.591 56.2174 259.139C53.5907 259.692 52.0316 260.995 51.9127 261.113L51.1295 261.889L51.2936 260.799L51.2945 260.793C51.2954 260.785 51.296 260.773 51.2975 260.756C51.3005 260.721 51.305 260.667 51.3063 260.596C51.3088 260.454 51.3017 260.244 51.2623 259.987C51.1838 259.474 50.976 258.771 50.4537 258.031C49.4476 256.606 47.2186 254.971 42.274 254.369L41.7867 254.313C38.6309 253.984 35.7799 254.59 33.2457 255.788C34.952 255.952 36.6449 256.254 38.3004 256.701L39.1852 256.954C39.3846 257.014 39.6262 257.096 39.8404 257.226C40.0306 257.342 40.2203 257.507 40.3336 257.747L40.3766 257.854C40.5541 258.369 40.2861 258.874 39.9332 259.163L39.7779 259.272C39.4611 259.464 39.1042 259.532 38.7828 259.561L38.4762 259.581L37.8766 259.596C36.4796 259.612 35.0948 259.472 33.7262 259.299C32.3493 259.124 30.9994 258.917 29.6432 258.79L29.0612 258.74C28.9692 258.733 28.8762 258.729 28.7828 258.723C25.4447 261.586 22.9293 265.375 21.3278 268.757L21.0162 269.434C20.1927 271.284 19.5993 272.971 19.2838 274.674C22.7178 271.84 26.5552 269.493 30.6539 267.751L31.5377 267.385C33.9697 266.412 36.8893 265.661 39.4322 266.313L39.6774 266.381C40.7533 266.699 40.8356 268.157 39.8737 268.635L39.7779 268.677C38.5138 269.183 37.2573 269.709 36.0094 270.254L34.7643 270.805C31.5865 272.232 28.4629 273.793 25.7721 275.928L25.2399 276.364C22.9747 278.271 21.0661 280.67 20.0221 283.388C20.7719 285.819 21.9679 288.613 23.6988 292.01L24.4869 293.529C24.5049 293.563 24.5236 293.597 24.5416 293.631C25.2213 290.873 26.1022 288.161 27.3873 285.619L27.6803 285.056C29.8493 281.003 33.221 277.402 37.569 275.754V275.753C37.9478 275.609 38.3978 275.479 38.8424 275.462C39.2341 275.446 39.6485 275.518 40.0006 275.769L40.1481 275.888C40.508 276.218 40.6507 276.674 40.651 277.112C40.6512 277.494 40.5444 277.884 40.3561 278.217L40.2701 278.355C39.9275 278.866 39.4306 279.231 38.9537 279.537L38.4899 279.827C32.506 283.555 28.0089 289.598 26.1266 296.389C27.3343 298.341 28.5653 300.007 29.7633 301.418L35.0436 291.075C35.3678 290.44 35.7687 289.663 36.4654 289.197L36.609 289.108C37.0306 288.867 37.5546 288.8 38.0172 288.9C38.4238 288.988 38.8226 289.218 39.0436 289.619L39.1276 289.802C39.2779 290.208 39.2184 290.61 39.0944 290.958C39.0023 291.215 38.868 291.462 38.734 291.682L38.6012 291.893C36.0834 295.824 34.1402 300.122 32.8414 304.606C34.5646 306.17 36.0822 307.199 37.1764 307.839C37.741 308.169 38.1924 308.396 38.5006 308.539C38.6547 308.61 38.7736 308.661 38.8522 308.693C38.872 308.701 38.8892 308.709 38.9039 308.715Z" stroke="black" stroke-opacity="0.1" stroke-width="0.731644"/>
<path d="M38.8388 309.082C38.8521 309.082 38.8726 308.902 38.8985 308.559C38.9223 308.178 38.9529 307.679 38.9906 307.058C39.0605 305.71 39.157 303.835 39.2756 301.538C39.4287 299.213 39.6571 296.443 40.229 293.419C40.5143 291.914 40.9209 290.338 41.2346 288.684C41.5619 287.034 41.8574 285.319 42.1665 283.566C42.7795 280.059 43.4126 276.725 44.2905 273.777C45.1632 270.828 46.2648 268.271 47.4323 266.263C48.5983 264.252 49.7905 262.781 50.6846 261.839C51.5798 260.894 52.142 260.438 52.1138 260.406C52.1053 260.395 51.9616 260.505 51.6951 260.723C51.4221 260.935 51.0477 261.278 50.5757 261.733C49.6416 262.65 48.4035 264.109 47.1947 266.124C45.9846 268.134 44.8454 270.707 43.947 273.674C43.0427 276.641 42.396 279.989 41.7826 283.499C41.4735 285.253 41.1813 286.966 40.8602 288.611C40.5526 290.258 40.1562 291.825 39.8762 293.354C39.3195 296.404 39.119 299.19 39.0006 301.523C38.8927 303.858 38.8632 305.748 38.839 307.053C38.8313 307.674 38.8251 308.173 38.8202 308.556C38.8192 308.9 38.8254 309.081 38.8388 309.082Z" fill="#17282F"/>
<path d="M43.4688 275.564C43.4494 275.579 43.6502 275.878 44.0503 276.389C44.4488 276.903 45.0586 277.619 45.8435 278.474C47.4066 280.193 49.7287 282.407 52.2802 284.847C54.8421 287.274 56.9399 289.687 58.1938 291.623C59.4644 293.549 59.9721 294.899 60.041 294.868C60.0618 294.861 59.9575 294.515 59.7049 293.915C59.4573 293.314 59.0357 292.468 58.4262 291.475C57.2175 289.477 55.1219 287.002 52.5506 284.566C49.9935 282.121 47.6511 279.947 46.0434 278.285C45.2363 277.458 44.5986 276.773 44.1664 276.292C43.7321 275.812 43.4916 275.546 43.4688 275.564Z" fill="#17282F"/>
<path d="M26.9812 278.312C27.0397 278.359 27.7613 277.424 29.1537 276.145C29.8451 275.501 30.7285 274.802 31.7562 274.097C32.7963 273.41 33.9883 272.728 35.3026 272.142C36.6239 271.571 37.9325 271.154 39.1423 270.853C40.357 270.572 41.4696 270.394 42.4111 270.321C44.2947 270.159 45.4716 270.262 45.4762 270.186C45.4782 270.159 45.1867 270.119 44.6542 270.071C44.3883 270.043 44.062 270.019 43.6821 270.024C43.3027 270.024 42.8688 270.004 42.3917 270.046C41.4351 270.085 40.3007 270.237 39.061 270.503C37.8268 270.79 36.4903 271.204 35.146 271.785C33.8082 272.382 32.5997 273.086 31.5534 273.801C30.5198 274.534 29.6406 275.267 28.9645 275.945C28.6106 276.268 28.332 276.601 28.0749 276.88C27.8148 277.157 27.6117 277.414 27.4525 277.628C27.128 278.053 26.96 278.295 26.9812 278.312Z" fill="#17282F"/>
<path d="M63.4652 275.982C63.4827 275.962 63.2974 275.766 62.9464 275.431C62.5951 275.095 62.0783 274.619 61.4268 274.043C60.1222 272.899 58.2805 271.336 56.017 269.923C53.7542 268.508 51.473 267.614 49.7656 267.234C48.9127 267.037 48.2104 266.943 47.7231 266.909C47.2362 266.875 46.9658 266.884 46.9645 266.908C46.9573 266.978 48.0348 267.045 49.6977 267.501C51.3612 267.943 53.5792 268.858 55.8116 270.254C58.0449 271.648 59.9018 273.165 61.2488 274.253C62.5924 275.349 63.4284 276.025 63.4652 275.982Z" fill="#17282F"/>
<path d="M35.9564 261.438C35.9534 261.578 38.8973 261.347 42.3722 262.194C45.8497 263.034 48.3596 264.589 48.4214 264.463C48.4451 264.424 47.8487 263.996 46.7989 263.444C45.7506 262.894 44.2298 262.246 42.4642 261.815C40.6979 261.389 39.0497 261.268 37.8656 261.276C36.6795 261.285 35.9531 261.392 35.9564 261.438Z" fill="#17282F"/>
<path d="M74.2778 189.793C75.0108 189.752 75.7859 189.72 76.434 190.065C77.0825 190.409 77.5122 191.276 77.1283 191.902C76.905 192.266 76.4799 192.451 76.0717 192.577C75.025 192.901 73.9059 192.99 72.8216 192.833C72.3217 192.761 71.8042 192.625 71.4415 192.274C71.0788 191.923 70.9358 191.303 71.2478 190.906C71.4741 190.618 72.3159 190.211 72.6675 190.11C73.8591 189.769 74.2778 189.793 74.2778 189.793ZM32.8392 217.007C32.9312 217.977 33.0225 218.928 33.1067 219.852C33.4954 224.129 34.5395 228.578 36.1682 232.817C37.3835 229.733 39.3315 226.509 42.7017 222.591C46.4588 218.221 50.0959 214.134 54.9015 210.956C56.175 210.114 57.8577 209.266 59.1241 210.119C60.2629 210.886 60.2571 212.663 59.5036 213.811C58.7503 214.96 57.4878 215.647 56.3093 216.352C48.0725 221.274 41.7295 229.253 38.7008 238.35C40.4548 241.611 42.5814 244.615 45.0413 247.154C44.9237 244.485 45.3406 241.792 46.2953 239.297C47.8756 235.165 50.9075 231.605 54.7348 229.386C55.5799 228.897 56.6716 228.478 57.4855 229.018C58.5101 229.698 58.2374 231.269 57.7212 232.386C56.1896 235.698 53.5965 238.413 51.92 241.655C50.2438 244.896 49.0217 249.8 51.4448 252.528C53.6888 254.411 56.1393 254.839 58.9648 255.292C67.2889 256.623 72.3357 255.642 76.8322 252.595C76.8364 248.64 75.3358 244.654 73.3686 241.152C70.81 236.596 67.4576 232.498 65.1882 227.79C64.7318 226.844 64.3301 225.683 64.8863 224.791C65.3484 224.049 66.3525 223.792 67.2073 223.975C68.0622 224.156 68.7961 224.689 69.4706 225.245C73.2487 228.36 76.0105 232.563 78.0416 237.018C79.6532 240.553 80.8324 244.262 81.9183 247.995C83.8045 245.906 85.7949 243.347 88.0914 240.278C85.497 229.259 78.6709 219.254 69.2638 212.937C68.3495 212.323 67.3906 211.722 66.7366 210.836C66.0827 209.95 65.8019 208.686 66.3697 207.742C67.18 206.396 69.1247 206.401 70.6563 206.754C76.9558 208.205 82.2716 212.717 85.6717 218.215C88.9301 223.482 90.5769 229.596 91.4089 235.741C95.5719 229.754 99.2322 222.899 101.375 216.057C99.476 212.849 96.84 210.069 93.8777 207.783C89.9694 204.769 85.5011 202.562 80.9462 200.662C80.4066 200.436 79.8498 200.205 79.4354 199.792C79.021 199.38 78.7808 198.734 79.0119 198.196C79.4208 197.246 80.7863 197.339 81.7799 197.626C89.7855 199.944 97.1171 204.525 102.729 210.685C104.335 202.151 103.109 194.001 97.0139 187.998C83.7579 174.939 69.1309 187.438 69.1309 187.438C61.0186 178.931 52.101 179.291 52.101 179.291C46.7016 180.012 42.7079 181.716 39.7699 184.096C44.7806 183.508 49.8609 183.517 54.8687 184.128C55.4395 184.197 56.0242 184.28 56.5277 184.557C57.0311 184.835 57.4427 185.352 57.4283 185.927C57.4134 186.515 56.9567 187.019 56.4217 187.262C55.8864 187.506 55.2825 187.537 54.6948 187.554C52.8346 187.608 50.9732 187.553 49.1121 187.498C46.8484 187.431 44.5852 187.364 42.326 187.493C40.1284 187.618 37.9016 187.953 35.8064 188.619C32.4859 194.013 31.9099 201.01 32.1654 207.905C38.7997 202.91 46.9831 199.968 55.2886 199.701C55.89 199.681 56.6167 199.745 56.894 200.279C57.2616 200.987 56.4997 201.746 55.8044 202.137C52.5486 203.968 48.7593 204.572 45.2925 205.961C40.0374 208.065 35.563 212.047 32.8392 217.007Z" fill="#4D935A"/>
<path d="M59.0223 254.93C67.1858 256.236 72.1084 255.294 76.4637 252.4C76.4222 248.838 75.1478 245.237 73.41 241.988L73.0496 241.332C71.7785 239.068 70.3112 236.919 68.865 234.729C67.603 232.818 66.3595 230.881 65.3006 228.834L64.8592 227.95L64.8582 227.949C64.6251 227.465 64.3932 226.901 64.2967 226.331C64.2118 225.829 64.228 225.297 64.4617 224.805L64.576 224.597C65.1461 223.682 66.3342 223.414 67.284 223.617L67.283 223.618C68.1136 223.794 68.8256 224.264 69.4441 224.753L69.7029 224.963C73.2976 227.926 75.9759 231.852 77.9822 236.028L78.3748 236.867C79.9057 240.225 81.0449 243.734 82.0818 247.258C83.7988 245.308 85.6194 242.968 87.6941 240.198C85.1732 229.673 78.762 220.094 69.9266 213.839L69.0594 213.241C68.2214 212.678 67.2696 212.081 66.577 211.227L66.4422 211.053C65.782 210.159 65.4297 208.847 65.9422 207.766L66.0564 207.553C66.5359 206.757 67.3414 206.383 68.1853 206.25C68.9212 206.133 69.717 206.193 70.4353 206.333L70.7381 206.397C76.954 207.829 82.2068 212.179 85.6551 217.505L85.9832 218.022C89.1123 223.08 90.7621 228.899 91.6365 234.758C95.5308 229.028 98.9321 222.561 100.975 216.106C99.2291 213.2 96.8671 210.647 94.2 208.503L93.6541 208.073C90.0247 205.274 85.9005 203.173 81.6561 201.359L80.8055 201C80.3456 200.807 79.8072 200.588 79.3621 200.219L79.1775 200.051C78.7301 199.606 78.4066 198.875 78.6248 198.188L78.6756 198.052C78.9521 197.41 79.5485 197.151 80.1346 197.084C80.6448 197.025 81.2 197.1 81.6805 197.22L81.8816 197.274C89.7164 199.543 96.908 203.962 102.497 209.899C103.843 201.966 102.648 194.477 97.3035 188.816L96.7576 188.258C90.2422 181.84 83.4153 181.709 78.2 183.173C75.5847 183.908 73.373 185.046 71.8143 186.002C71.0359 186.479 70.422 186.91 70.0037 187.22C69.7947 187.376 69.6343 187.501 69.5271 187.587C69.4736 187.629 69.4336 187.663 69.407 187.685C69.3937 187.696 69.3831 187.704 69.3768 187.71C69.3737 187.712 69.3713 187.714 69.3699 187.715L69.3689 187.716L69.1053 187.942L68.866 187.691C64.86 183.49 60.6606 181.483 57.4686 180.525C55.8719 180.046 54.5268 179.829 53.5838 179.732C53.1123 179.684 52.7411 179.664 52.49 179.658C52.3648 179.655 52.269 179.654 52.2059 179.655C52.1744 179.655 52.1507 179.656 52.1355 179.657H52.1297C47.4162 180.288 43.8088 181.676 41.0516 183.593C45.3446 183.18 49.679 183.198 53.9676 183.657L54.9129 183.765C55.4064 183.825 55.968 183.899 56.4852 184.129L56.7039 184.236L56.7049 184.237C57.2454 184.535 57.746 185.103 57.7908 185.797L57.7937 185.936V185.937L57.784 186.08C57.712 186.691 57.2872 187.184 56.8006 187.475L56.573 187.595C55.9618 187.874 55.2867 187.903 54.7049 187.92H54.7059C53.3013 187.96 51.8967 187.939 50.4978 187.903L49.1014 187.863C47.1182 187.805 45.1497 187.747 43.1873 187.819L42.3465 187.858C40.2168 187.98 38.069 188.3 36.0486 188.927C32.9586 194.029 32.321 200.597 32.5096 207.197C39.0994 202.411 47.1277 199.599 55.2762 199.337V199.336C55.5886 199.325 55.9652 199.334 56.3103 199.429C56.6151 199.513 56.9269 199.674 57.1355 199.973L57.2186 200.111C57.49 200.634 57.3204 201.152 57.0467 201.539C56.8085 201.875 56.4628 202.163 56.1268 202.372L55.9842 202.456C54.3208 203.391 52.5281 204.009 50.7361 204.564C49.1586 205.052 47.5912 205.489 46.075 206.051L45.4285 206.3C40.2863 208.36 35.9019 212.247 33.2137 217.089L33.4715 219.819C33.8307 223.771 34.7548 227.875 36.1873 231.821C37.3502 229.149 39.0849 226.348 41.8055 223.084L42.4246 222.352C46.0631 218.121 49.6173 214.118 54.2478 210.954L54.7 210.651C55.3459 210.224 56.122 209.776 56.9148 209.549C57.6616 209.336 58.4653 209.31 59.1853 209.726L59.3279 209.815H59.3289C60.0152 210.277 60.3362 211.033 60.3885 211.797C60.434 212.465 60.2792 213.169 59.9578 213.764L59.8094 214.012C59.2019 214.938 58.2888 215.581 57.3855 216.134L56.4969 216.666C48.3816 221.516 42.1204 229.364 39.0994 238.317C40.6675 241.208 42.5295 243.888 44.6561 246.211C44.6629 243.981 45.0355 241.75 45.7771 239.645L45.9539 239.166C47.5138 235.088 50.4602 231.557 54.1883 229.286L54.5516 229.07C54.9894 228.816 55.513 228.567 56.0486 228.458C56.5199 228.361 57.0275 228.367 57.492 228.599L57.6873 228.713L57.6883 228.714C58.3401 229.147 58.5518 229.853 58.5467 230.542C58.5421 231.141 58.3759 231.771 58.1521 232.313L58.0535 232.54C57.2724 234.229 56.2229 235.76 55.1746 237.256C54.2524 238.573 53.3322 239.861 52.5643 241.23L52.2449 241.823C51.4221 243.414 50.7148 245.406 50.5086 247.323C50.3028 249.236 50.6009 251.014 51.7029 252.268C53.5839 253.837 55.6149 254.352 57.9822 254.759L59.0223 254.93ZM76.1795 192.927C75.2185 193.224 74.1995 193.333 73.1971 193.245L72.7693 193.195C72.3189 193.13 71.7898 193.009 71.3631 192.687L71.1873 192.537C70.9491 192.306 70.7862 191.992 70.7312 191.668C70.6831 191.383 70.7154 191.068 70.8807 190.795L70.9598 190.679C71.0508 190.563 71.1824 190.459 71.3074 190.373C71.4385 190.282 71.5894 190.194 71.7391 190.115C71.9598 189.998 72.197 189.89 72.3904 189.818L72.5672 189.758C73.1754 189.584 73.5941 189.501 73.867 189.462C74.0036 189.442 74.1047 189.433 74.1746 189.429C74.2095 189.427 74.2372 189.427 74.2576 189.427C74.2663 189.427 74.2738 189.427 74.2801 189.427C74.9459 189.39 75.7513 189.351 76.4627 189.672L76.6053 189.742C77.0068 189.955 77.3337 190.324 77.5057 190.737C77.6784 191.152 77.7091 191.655 77.4402 192.093H77.4393C77.2144 192.46 76.8518 192.673 76.5096 192.811L76.1795 192.926V192.927Z" stroke="black" stroke-opacity="0.1" stroke-width="0.731644"/>
<path d="M62.2364 255.873C62.2433 255.872 62.241 255.811 62.2306 255.694C62.2156 255.553 62.1971 255.382 62.1747 255.173C62.1159 254.718 62.0434 254.044 61.9524 253.176C61.7755 251.441 61.5991 248.92 61.5347 245.803C61.4693 242.683 61.535 238.969 61.6458 234.842C61.7382 230.714 61.9231 226.185 62.3375 221.442C63.1676 211.953 64.6824 203.449 65.9961 197.35C66.6416 194.296 67.2387 191.842 67.644 190.144C67.8443 189.321 68.0029 188.669 68.1192 188.191C68.1647 187.985 68.2024 187.817 68.2329 187.68C68.2567 187.564 68.2655 187.504 68.259 187.502C68.2528 187.5 68.231 187.557 68.1947 187.669C68.1537 187.805 68.104 187.968 68.0432 188.17C67.9096 188.644 67.7272 189.29 67.4971 190.106C67.0463 191.794 66.4079 194.241 65.727 197.291C64.3427 203.383 62.7815 211.898 61.9494 221.408C61.5341 226.16 61.3595 230.705 61.287 234.833C61.1957 238.961 61.1586 242.684 61.2594 245.809C61.3592 248.935 61.5783 251.459 61.8018 253.193C61.9159 254.06 62.0131 254.732 62.097 255.184C62.135 255.392 62.1659 255.561 62.1913 255.699C62.2146 255.815 62.2299 255.873 62.2364 255.873Z" fill="#17282F"/>
<path d="M62.9176 214.214C62.9095 214.225 63.0086 214.319 63.205 214.488C63.4376 214.682 63.7253 214.921 64.0751 215.212C64.8831 215.865 65.9772 216.75 67.3088 217.827C70.0056 220.057 73.8261 223.107 77.1974 227.251C78.8319 229.353 80.3053 231.453 81.5161 233.417C82.7248 235.388 83.576 237.296 84.1027 238.96C84.6178 240.628 84.8599 242.029 84.9847 242.999C85.1103 243.97 85.1586 244.512 85.1919 244.51C85.2052 244.51 85.2077 244.374 85.2002 244.114C85.1869 243.856 85.1894 243.472 85.1353 242.983C85.0563 242.002 84.8541 240.58 84.3665 238.88C83.8672 237.184 83.0275 235.233 81.8239 233.232C80.6132 231.232 79.1563 229.137 77.5009 227.007C74.09 222.815 70.2251 219.791 67.4808 217.611C66.0945 216.531 64.9572 215.677 64.1681 215.092C63.8001 214.824 63.4981 214.604 63.2531 214.425C63.0412 214.276 62.9261 214.203 62.9176 214.214Z" fill="#17282F"/>
<path d="M52.3108 224.469C52.3491 224.51 52.9179 224.042 53.8339 223.284C54.7494 222.527 56.0204 221.489 57.454 220.382C58.8436 219.331 60.1008 218.38 61.1592 217.581C62.1096 216.864 62.6881 216.407 62.6569 216.362C62.6266 216.318 61.9928 216.696 60.9999 217.355C60.0076 218.015 58.657 218.96 57.2155 220.073C55.7753 221.186 54.5249 222.263 53.6522 223.077C52.7791 223.89 52.276 224.431 52.3108 224.469Z" fill="#17282F"/>
<path d="M49.4782 207.384C49.4996 207.438 50.3275 207.149 51.6689 206.705C53.0106 206.262 54.8724 205.679 56.9584 205.145C59.0458 204.614 60.9593 204.232 62.3495 203.978C63.7396 203.724 64.6039 203.58 64.5971 203.523C64.5913 203.473 63.714 203.52 62.3066 203.706C60.8995 203.891 58.9639 204.232 56.8623 204.767C54.7619 205.306 52.8998 205.934 51.5763 206.447C50.2523 206.958 49.4593 207.338 49.4782 207.384Z" fill="#17282F"/>
<path d="M65.1664 200.597C65.1651 200.628 65.6387 200.664 66.4893 200.75C67.3399 200.836 68.5682 200.997 70.0592 201.319C73.0385 201.943 77.0649 203.405 80.9157 206.036C84.7834 208.639 87.6075 211.865 89.3174 214.381C90.1811 215.639 90.8035 216.71 91.2112 217.461C91.6198 218.212 91.837 218.635 91.8653 218.622C91.8769 218.616 91.8378 218.503 91.7513 218.295C91.6606 218.087 91.5391 217.776 91.3469 217.392C90.9783 216.615 90.3883 215.516 89.5462 214.227C87.8804 211.65 85.0521 208.35 81.1334 205.713C77.2392 203.052 73.1359 201.609 70.1151 201.05C68.602 200.759 67.3597 200.639 66.501 200.599C66.0723 200.57 65.7378 200.579 65.5119 200.575C65.2857 200.576 65.1667 200.584 65.1664 200.597Z" fill="#17282F"/>
<path d="M42.1176 196.447C42.1235 196.472 42.4586 196.427 43.0583 196.32C43.6567 196.21 44.5252 196.065 45.5998 195.902C47.7479 195.577 50.7372 195.255 54.0509 195.234C57.3656 195.22 60.3586 195.51 62.5103 195.812C63.5861 195.962 64.4563 196.099 65.0559 196.203C65.6563 196.303 65.992 196.345 65.9975 196.318C66.0034 196.293 65.6787 196.199 65.0858 196.054C64.494 195.904 63.6284 195.726 62.5522 195.54C60.4011 195.166 57.3883 194.83 54.0487 194.845C50.7103 194.866 47.7017 195.234 45.5549 195.63C44.4806 195.828 43.6171 196.016 43.0268 196.172C42.4352 196.324 42.1115 196.42 42.1176 196.447Z" fill="#17282F"/>
<path d="M95.4706 192.046C95.4889 192.021 95.1694 191.768 94.567 191.338C94.2716 191.115 93.893 190.867 93.4437 190.595C93.0035 190.306 92.4793 190.018 91.8943 189.707C89.567 188.463 86.0639 187.155 82.0148 186.814C77.9652 186.439 74.2914 187.171 71.7867 187.975C70.5252 188.362 69.5121 188.694 68.8139 188.931C68.116 189.169 67.7344 189.314 67.7419 189.338C67.7501 189.366 68.1469 189.269 68.8584 189.076C69.6362 188.86 70.6467 188.578 71.8633 188.24C74.3775 187.507 77.989 186.833 81.981 187.203C85.969 187.538 89.433 188.783 91.7695 189.952C92.357 190.244 92.8853 190.514 93.333 190.782C93.789 191.035 94.1767 191.262 94.4829 191.465C95.1078 191.853 95.4573 192.064 95.4706 192.046Z" fill="#17282F"/>
<path d="M55.5264 183.788C55.5174 183.849 56.2643 183.988 57.4397 184.312C58.6156 184.634 60.2119 185.179 61.8972 185.967C63.5811 186.758 65.0311 187.623 66.0583 188.284C67.086 188.945 67.7049 189.385 67.7416 189.338C67.7715 189.3 67.2108 188.782 66.2133 188.057C65.2173 187.331 63.7704 186.416 62.0619 185.614C60.3529 184.816 58.7138 184.301 57.5059 184.045C56.2975 183.785 55.532 183.743 55.5264 183.788Z" fill="#17282F"/>
<path d="M115.448 304.931C115.448 305.389 119.17 336.738 108.214 349.541C105.939 352.643 103.007 355.977 99.6993 359.448V360.587H89.4546V304.931H115.448Z" fill="#1C2C40"/>
<path d="M65.9425 304.931C65.9425 305.389 62.2206 336.738 73.1765 349.541C75.4517 352.643 78.3839 355.977 81.6918 359.448V360.587H91.9359V304.931H65.9425Z" fill="#1C2C40"/>
<path d="M81.9372 359.753C81.9372 359.595 85.9493 359.467 90.8969 359.467C95.8462 359.467 99.8576 359.595 99.8576 359.753C99.8576 359.91 95.8462 360.038 90.8969 360.038C85.9493 360.038 81.9372 359.91 81.9372 359.753Z" fill="#17282F"/>
<path d="M65.4321 312.392C65.4321 312.234 76.766 312.107 90.7436 312.107C104.726 312.107 116.057 312.234 116.057 312.392C116.057 312.549 104.726 312.677 90.7436 312.677C76.766 312.677 65.4321 312.549 65.4321 312.392Z" fill="#17282F"/>
<path d="M65.4321 315.135C65.4321 314.977 76.766 314.849 90.7436 314.849C104.726 314.849 116.057 314.977 116.057 315.135C116.057 315.293 104.726 315.42 90.7436 315.42C76.766 315.42 65.4321 315.293 65.4321 315.135Z" fill="#17282F"/>
<path d="M65.4321 317.826C65.4321 317.669 76.766 317.541 90.7436 317.541C104.726 317.541 116.057 317.669 116.057 317.826C116.057 317.985 104.726 318.112 90.7436 318.112C76.766 318.112 65.4321 317.985 65.4321 317.826Z" fill="#17282F"/>
<path d="M113.175 289.29C111.237 286.795 108.787 284.813 106.292 282.968C105.072 282.065 103.834 281.189 102.581 280.339C102.028 279.965 102.212 279.058 102.858 278.991C104.93 278.776 107.164 279.869 109.015 281.123C112.497 283.482 115.611 286.462 118.209 289.882C118.294 288.077 118.036 286.275 117.557 284.241C116.774 280.916 115.21 276.91 112.713 273.677C112.597 273.66 112.481 273.643 112.366 273.629C109.839 273.316 107.263 273.439 104.783 272.809C104.475 272.731 104.156 272.634 103.918 272.409C103.68 272.183 103.551 271.792 103.702 271.501C103.86 271.199 104.229 271.125 104.553 271.089C106.498 270.873 108.472 270.913 110.418 271.197C108.357 269.367 105.845 268.08 102.828 267.801C94.1497 266.998 94.0432 272.04 94.0432 272.04C93.8277 271.712 89.619 266.436 81.6485 269.928C76.131 272.345 73.6357 275.898 73.0776 279.844C73.7758 279.403 74.4874 278.985 75.1897 278.58C77.6278 277.173 80.0825 275.759 82.7256 274.843C85.3687 273.929 88.2394 273.533 90.9736 274.203C91.4147 274.312 91.9064 274.497 92.0853 274.941C92.2725 275.407 92.0063 275.955 91.6135 276.225C91.2208 276.495 90.7365 276.557 90.2705 276.627C83.8185 277.589 77.8065 281.226 73.7147 286.566C74.359 288.902 75.5567 292.37 77.3876 296.105C78.9565 293.108 80.5856 290.128 82.7292 287.582C85.08 284.788 88.1346 282.521 91.6252 281.884C92.1103 281.796 92.6303 281.744 93.083 281.965C94.0158 282.421 94.1838 283.859 93.6888 284.798C93.1937 285.738 92.2642 286.299 91.3872 286.835C88.5623 288.565 85.828 290.511 83.529 292.966C81.7453 294.871 80.2303 297.104 79.2504 299.583C80.3606 301.484 81.6351 303.385 83.0835 305.178C85.9187 300.765 89.4934 296.9 93.5997 293.828C94.0457 293.495 94.5866 293.155 95.1108 293.341C95.6924 293.549 95.9379 294.344 95.7839 294.97C95.63 295.596 95.1907 296.085 94.763 296.54C92.6145 298.823 90.3155 301.017 88.7678 303.803C87.8284 305.495 87.206 307.474 87.1477 309.437C90.0966 312.018 93.5623 314.034 97.5954 314.967C97.5954 314.967 99.9577 314.56 103.308 312.326C102.9 308.22 101.93 304.166 100.431 300.337C100.231 299.828 100.026 299.228 100.284 298.759C100.601 298.184 101.455 298.222 101.941 298.66C102.427 299.098 102.637 299.783 102.823 300.429C103.794 303.786 104.763 307.144 105.733 310.502C107.021 309.416 108.391 308.068 109.785 306.411C109.245 300.225 106.45 294.242 102.109 290.024C101.673 289.599 101.206 289.171 100.968 288.595C100.729 288.02 100.802 287.245 101.296 286.918C101.823 286.569 102.519 286.874 103.058 287.225C106.217 289.28 108.37 292.805 109.523 296.542C110.372 299.293 110.727 302.169 110.876 305.055C111.054 304.822 111.233 304.587 111.413 304.343C113.74 301.175 115.366 298.604 116.446 296.34C115.993 293.764 114.763 291.334 113.175 289.29Z" fill="#4D935A"/>
<path d="M97.6255 314.588C97.6912 314.574 97.7911 314.55 97.9224 314.515C98.1849 314.445 98.5733 314.328 99.0659 314.142C100.014 313.784 101.349 313.169 102.919 312.142C102.529 308.399 101.669 304.702 100.363 301.185L100.09 300.47C99.9903 300.215 99.8756 299.906 99.8247 299.591C99.7798 299.314 99.7796 299.004 99.9028 298.708L99.9634 298.583C100.199 298.155 100.63 297.973 101.041 297.963C101.396 297.955 101.766 298.07 102.064 298.289L102.186 298.388C102.618 298.778 102.857 299.322 103.025 299.833L103.175 300.328C104.093 303.502 105.009 306.678 105.926 309.853C107.041 308.876 108.212 307.698 109.405 306.292C108.858 300.435 106.266 294.776 102.25 290.681L101.855 290.287L101.854 290.286C101.488 289.93 101.034 289.515 100.744 288.975L100.629 288.735C100.485 288.386 100.435 287.98 100.497 287.605C100.55 287.277 100.695 286.944 100.968 286.708L101.093 286.614C101.471 286.364 101.892 286.362 102.26 286.454C102.533 286.521 102.798 286.645 103.033 286.78L103.257 286.918C106.307 288.902 108.426 292.2 109.642 295.726L109.873 296.434C110.635 298.906 111.002 301.472 111.179 304.042C113.43 300.972 115.007 298.479 116.064 296.29C115.636 293.983 114.57 291.788 113.174 289.895L112.885 289.514C111.218 287.368 109.16 285.6 107.004 283.958L106.075 283.262C105.162 282.587 104.241 281.927 103.31 281.282L102.375 280.642C101.959 280.36 101.829 279.88 101.912 279.476C101.989 279.096 102.269 278.729 102.726 278.641L102.82 278.626C104.892 278.412 107.068 279.419 108.866 280.585L109.22 280.82C112.452 283.009 115.365 285.728 117.85 288.832C117.821 287.628 117.652 286.4 117.369 285.07L117.201 284.325C116.435 281.075 114.916 277.18 112.511 274.019L112.322 273.993H112.321C111.07 273.838 109.817 273.791 108.532 273.703C107.416 273.626 106.289 273.518 105.171 273.276L104.693 273.164C104.425 273.096 104.081 273 103.789 272.778L103.666 272.674C103.498 272.515 103.372 272.301 103.311 272.074C103.258 271.875 103.251 271.644 103.335 271.425L103.377 271.333L103.378 271.332C103.51 271.08 103.725 270.937 103.93 270.855C104.03 270.815 104.133 270.787 104.233 270.767L104.513 270.725C106.072 270.552 107.649 270.545 109.215 270.689C107.533 269.426 105.584 268.534 103.337 268.227L102.794 268.165C98.5242 267.77 96.4549 268.819 95.4458 269.873C94.9359 270.405 94.6765 270.958 94.5444 271.375C94.4785 271.584 94.4437 271.758 94.4263 271.877C94.4176 271.937 94.4139 271.983 94.4116 272.012C94.4105 272.027 94.41 272.037 94.4097 272.043L94.4087 272.049L94.3843 273.224L93.7378 272.241C93.6623 272.126 92.607 270.777 90.605 269.886C88.6841 269.031 85.8673 268.587 82.1567 270.11L81.7954 270.263C76.7527 272.472 74.3284 275.618 73.5815 279.104C73.7028 279.031 73.8235 278.957 73.9448 278.884L75.0073 278.263C77.288 276.947 79.6138 275.605 82.105 274.677L82.6059 274.498C85.1235 273.627 87.8696 273.209 90.5298 273.731L91.061 273.848C91.4688 273.948 92.0872 274.146 92.3726 274.691L92.4243 274.805C92.6783 275.436 92.3522 276.104 91.9106 276.459L91.8208 276.526C91.4637 276.772 91.0493 276.872 90.6782 276.935L90.3247 276.989C84.0292 277.927 78.152 281.456 74.1177 286.646C74.7284 288.819 75.8021 291.924 77.4018 295.293C78.7718 292.699 80.2226 290.115 82.0483 287.834L82.4497 287.346C84.7583 284.603 87.7619 282.328 91.2231 281.591L91.5591 281.525L91.5601 281.524C92.0178 281.441 92.5971 281.368 93.1362 281.588L93.2436 281.636C93.8466 281.931 94.1716 282.527 94.2817 283.135C94.3782 283.668 94.3199 284.254 94.1108 284.758L94.0122 284.969C93.5995 285.752 92.9188 286.29 92.2427 286.732L91.5786 287.147C88.9422 288.761 86.4013 290.555 84.2261 292.768L83.7964 293.216C82.0786 295.051 80.6196 297.189 79.6577 299.553C80.657 301.251 81.7882 302.943 83.0561 304.554C85.687 300.559 88.9213 297.021 92.6099 294.125L93.3804 293.535C93.6078 293.365 93.8862 293.172 94.189 293.05C94.4578 292.942 94.7698 292.88 95.0942 292.956L95.2339 292.997C95.6545 293.146 95.9245 293.498 96.0649 293.869C96.188 294.193 96.2257 294.564 96.1694 294.911L96.1392 295.057C96.0041 295.606 95.6841 296.055 95.355 296.434L95.0298 296.791C92.9969 298.951 90.8888 300.976 89.3813 303.475L89.0874 303.981C88.1995 305.58 87.6074 307.436 87.521 309.276C90.387 311.754 93.7323 313.683 97.605 314.593C97.6114 314.592 97.6182 314.59 97.6255 314.588Z" stroke="black" stroke-opacity="0.1" stroke-width="0.731644"/>
<path d="M97.5957 314.967C97.609 314.969 97.6414 314.817 97.6905 314.525C97.743 314.191 97.8095 313.768 97.8911 313.246C98.0566 312.134 98.2988 310.525 98.5384 308.527C98.7697 306.529 98.9969 304.135 98.9753 301.465C98.9636 300.126 98.8654 298.739 98.848 297.297C98.8197 295.854 98.8238 294.358 98.8197 292.825C98.8155 289.758 98.7614 286.823 98.4511 284.169C98.144 281.518 97.5957 279.16 96.9067 277.26C96.2219 275.357 95.4322 273.911 94.8057 272.973C94.487 272.507 94.2324 272.151 94.0393 271.924C93.853 271.694 93.7498 271.577 93.739 271.586C93.7073 271.609 94.0942 272.098 94.6775 273.053C95.26 274.008 96.0022 275.457 96.6463 277.35C97.2945 279.241 97.8095 281.579 98.0949 284.21C98.3828 286.842 98.4261 289.76 98.4303 292.826C98.4344 294.358 98.4328 295.857 98.4669 297.305C98.4885 298.754 98.595 300.151 98.6158 301.469C98.6574 304.116 98.4602 306.501 98.2647 308.497C98.0475 310.455 97.8694 312.058 97.7405 313.227C97.688 313.752 97.6464 314.178 97.6131 314.515C97.589 314.81 97.5824 314.966 97.5957 314.967Z" fill="#17282F"/>
<path d="M98.5337 285.832C98.5146 285.811 98.2824 285.995 97.868 286.328C97.4545 286.662 96.8479 287.137 96.0865 287.705C94.568 288.85 92.3854 290.312 89.9965 291.976C87.5951 293.63 85.5864 295.397 84.3682 296.885C83.755 297.623 83.3132 298.265 83.0419 298.727C82.7676 299.187 82.6441 299.457 82.6645 299.469C82.725 299.507 83.309 298.474 84.5763 297.066C85.8302 295.645 87.8306 293.941 90.2203 292.294C92.6026 290.636 94.7718 289.129 96.2554 287.923C96.9993 287.323 97.5826 286.813 97.9679 286.442C98.354 286.072 98.5512 285.85 98.5337 285.832Z" fill="#17282F"/>
<path d="M111.291 290.853C111.315 290.841 111.223 290.614 111.032 290.21C110.851 289.802 110.532 289.239 110.099 288.569C109.231 287.233 107.793 285.509 105.819 284.055C104.832 283.332 103.82 282.749 102.865 282.291C101.897 281.863 101.004 281.522 100.225 281.336C99.8413 281.222 99.4844 281.159 99.1732 281.101C98.8628 281.035 98.5924 280.997 98.3694 280.981C97.925 280.936 97.6796 280.924 97.6771 280.951C97.6671 281.023 98.6448 281.137 100.148 281.601C100.905 281.818 101.77 282.179 102.71 282.615C103.637 283.081 104.622 283.662 105.588 284.369C107.519 285.792 108.958 287.448 109.872 288.725C110.786 290.006 111.228 290.886 111.291 290.853Z" fill="#17282F"/>
<path d="M82.5443 282.919C82.5735 282.966 83.3342 282.538 84.5532 281.838C85.7739 281.144 87.4564 280.169 89.4251 279.352C91.393 278.533 93.2902 278.115 94.6789 278.007C96.0685 277.887 96.9372 278 96.9447 277.933C96.9472 277.908 96.735 277.853 96.3414 277.799C95.9487 277.745 95.3729 277.707 94.6614 277.731C93.2394 277.771 91.2798 278.157 89.2762 278.993C87.2733 279.824 85.5983 280.846 84.4101 281.602C83.2244 282.365 82.517 282.875 82.5443 282.919Z" fill="#17282F"/>
<path d="M106.47 275.1C106.483 275.055 105.927 274.84 104.987 274.634C104.05 274.429 102.717 274.257 101.243 274.329C99.7694 274.404 98.4605 274.708 97.5486 275.008C96.6341 275.309 96.1032 275.58 96.1207 275.624C96.1606 275.754 98.3773 274.859 101.263 274.718C104.146 274.572 106.444 275.233 106.47 275.1Z" fill="#17282F"/>
<path d="M102.159 204.966C102.065 204.967 102.237 203.237 101.74 200.525C101.263 197.834 99.94 194.139 97.2116 190.94C94.4807 187.74 91.0392 185.852 88.4572 184.959C85.8569 184.041 84.1212 183.938 84.137 183.845C84.1395 183.821 84.5705 183.83 85.3427 183.927C86.1149 184.023 87.2266 184.241 88.5562 184.668C91.2014 185.5 94.747 187.385 97.5419 190.659C100.333 193.932 101.636 197.73 102.042 200.473C102.255 201.853 102.296 202.985 102.268 203.763C102.242 204.541 102.183 204.968 102.159 204.966Z" fill="white"/>
<path d="M119.036 223.807C118.943 223.898 117.819 222.787 116.171 221.792C114.531 220.783 113.029 220.293 113.067 220.168C113.086 220.06 114.695 220.377 116.397 221.423C118.104 222.456 119.122 223.741 119.036 223.807Z" fill="white"/>
<path d="M128.584 233.523C128.462 233.561 128.14 232.601 127.283 231.762C126.441 230.906 125.481 230.587 125.519 230.464C125.524 230.351 126.648 230.506 127.589 231.455C128.54 232.394 128.698 233.518 128.584 233.523Z" fill="white"/>
<path d="M133.839 242.891C133.727 242.943 133.493 242.666 133.191 242.369C132.894 242.067 132.618 241.834 132.669 241.722C132.715 241.615 133.138 241.702 133.497 242.063C133.859 242.423 133.946 242.845 133.839 242.891Z" fill="white"/>
<path d="M92.8882 228.436C92.7751 228.353 94.6498 226.112 96.0011 222.829C97.3832 219.557 97.6561 216.648 97.7951 216.67C97.8466 216.675 97.8466 217.406 97.6661 218.571C97.4872 219.735 97.0936 221.329 96.4013 222.995C95.7049 224.659 94.8495 226.06 94.148 227.007C93.4474 227.955 92.9282 228.469 92.8882 228.436Z" fill="white"/>
<path d="M100.581 201.69C100.334 201.69 100.076 201.619 99.8362 201.544C94.6473 199.915 89.7505 197.358 85.4478 194.031C84.2238 193.086 83.0285 192.055 82.213 190.741C81.5503 189.673 81.1654 188.384 81.3013 187.15C81.5266 187.164 81.7528 187.181 81.9806 187.203C85.9686 187.538 89.4326 188.783 91.7691 189.952C92.3566 190.244 92.885 190.514 93.3326 190.782C93.7886 191.035 94.1763 191.262 94.4826 191.465C95.0817 191.837 95.4278 192.046 95.4669 192.046C95.4686 192.046 95.4702 192.046 95.4702 192.046C95.4886 192.021 95.169 191.768 94.5666 191.338C94.2712 191.115 93.8926 190.867 93.4433 190.594C93.0031 190.306 92.4789 190.018 91.8939 189.707C89.5666 188.463 86.0635 187.155 82.0144 186.814C81.7957 186.794 81.5779 186.777 81.3615 186.763C81.3927 186.61 81.4326 186.457 81.4814 186.308C81.8773 185.093 82.9677 184.083 84.1996 183.879C84.53 183.972 86.1542 184.146 88.4574 184.959C91.0394 185.852 94.4809 187.74 97.2118 190.94C99.5758 193.712 100.885 196.856 101.502 199.396C101.527 199.618 101.546 199.841 101.559 200.065C101.592 200.634 101.531 201.319 101.029 201.587C100.889 201.662 100.737 201.69 100.581 201.69ZM94.2529 187.606C92.2725 186.147 90.2331 185.196 88.5564 184.668C87.2268 184.241 86.1151 184.023 85.3429 183.927C84.9959 183.884 84.718 183.858 84.5167 183.845C84.5616 183.843 84.6065 183.841 84.6515 183.841C84.7646 183.841 84.8786 183.849 84.9918 183.863C88.4183 183.909 91.5686 185.455 94.2529 187.606Z" fill="#3B7145"/>
<path d="M100.581 201.324C100.665 201.324 100.736 201.313 100.798 201.291L100.856 201.265C100.987 201.195 101.083 201.062 101.141 200.845C101.2 200.624 101.209 200.355 101.194 200.087C101.182 199.877 101.163 199.669 101.14 199.461C100.57 197.125 99.4048 194.273 97.3562 191.691L96.9333 191.178C94.4202 188.233 91.2908 186.418 88.822 185.48L88.3376 185.305L88.3357 185.304C87.202 184.903 86.2357 184.661 85.5124 184.507C85.1508 184.43 84.8494 184.375 84.6159 184.333C84.4521 184.303 84.3049 184.276 84.197 184.253C83.2055 184.443 82.3032 185.233 81.904 186.218L81.8288 186.421C81.8275 186.425 81.8263 186.429 81.8249 186.433C81.8991 186.44 81.9735 186.443 82.0476 186.45L82.0466 186.451C85.8957 186.776 89.2567 187.959 91.6091 189.146L92.0661 189.384C92.6466 189.692 93.1801 189.986 93.6335 190.282C94.0835 190.555 94.4709 190.809 94.779 191.041C95.0819 191.257 95.3179 191.43 95.4773 191.556C95.5558 191.617 95.622 191.672 95.6697 191.716C95.6916 191.736 95.7212 191.765 95.7468 191.797C95.7579 191.811 95.784 191.844 95.8044 191.89C95.8132 191.909 95.8931 192.087 95.7654 192.262L95.7126 192.333L95.6335 192.373H95.6325L95.6316 192.374L95.6296 192.375C95.6282 192.376 95.6263 192.376 95.6247 192.377C95.6215 192.378 95.6178 192.38 95.614 192.382C95.6063 192.385 95.5963 192.39 95.5847 192.393C95.5753 192.397 95.5598 192.401 95.5398 192.405L95.4665 192.412C95.4015 192.412 95.3505 192.394 95.3396 192.391C95.3191 192.384 95.3006 192.376 95.2878 192.37C95.2619 192.358 95.2342 192.344 95.2077 192.33C95.1534 192.301 95.082 192.26 94.9978 192.21L94.2898 191.775L94.28 191.769C94.133 191.672 93.9649 191.568 93.7771 191.457L93.155 191.101L93.1443 191.096C92.7103 190.836 92.1937 190.571 91.6062 190.279H91.6052C89.4455 189.199 86.3058 188.051 82.6814 187.64L81.9499 187.567H81.946C81.8446 187.558 81.7433 187.552 81.6423 187.544C81.6189 188.501 81.9129 189.49 82.4089 190.355L82.5241 190.548C83.2056 191.646 84.1712 192.547 85.2185 193.386L85.6716 193.741C89.9397 197.042 94.797 199.579 99.9441 201.195L99.945 201.194C100.185 201.269 100.395 201.324 100.581 201.324Z" stroke="black" stroke-opacity="0.1" stroke-width="0.731644"/>
<path d="M95.4666 192.047C95.4275 192.047 95.0814 191.837 94.4823 191.465C94.1761 191.262 93.7883 191.035 93.3323 190.782C92.8847 190.514 92.3563 190.244 91.7688 189.952C89.4323 188.783 85.9684 187.538 81.9803 187.203C81.7525 187.181 81.5263 187.164 81.301 187.15C81.3153 187.02 81.3351 186.891 81.3612 186.764C81.5776 186.777 81.7955 186.794 82.0141 186.814C86.0632 187.156 89.5663 188.463 91.8937 189.707C92.4786 190.018 93.0028 190.306 93.443 190.595C93.8923 190.867 94.2709 191.115 94.5663 191.338C95.1687 191.768 95.4883 192.021 95.47 192.046C95.47 192.046 95.4683 192.047 95.4666 192.047Z" fill="#57666B"/>
<path d="M101.502 199.396C100.884 196.856 99.5756 193.712 97.2116 190.94C94.4807 187.74 91.0392 185.852 88.4572 184.959C86.154 184.146 84.5298 183.972 84.1994 183.879C84.3043 183.861 84.41 183.85 84.5165 183.845C84.7178 183.858 84.9958 183.884 85.3427 183.927C86.1149 184.023 87.2266 184.241 88.5563 184.668C90.2329 185.196 92.2724 186.147 94.2527 187.606C94.8319 188.07 95.3885 188.562 95.9227 189.073C98.7701 191.798 101.062 195.485 101.502 199.396Z" fill="white"/>
<path d="M178.068 308.123L166.626 360.783H175.421L195.273 307.809L178.068 308.123Z" fill="#3B7145"/>
<path d="M191.858 316.922L193.713 311.97H193.921L191.858 316.922ZM176.21 316.668L177.36 311.07C177.38 311.08 177.4 311.091 177.42 311.101L176.21 316.668Z" fill="#AE8E8F"/>
<path d="M191.857 316.922L176.21 316.67V316.668L177.42 311.101C178.532 311.657 179.786 311.97 181.111 311.97H193.713L191.858 316.922H191.857Z" fill="#3B7145"/>
<path d="M332.976 308.123L344.183 360.586H335.307L315.771 307.809L332.976 308.123Z" fill="#4D935A"/>
<path d="M254.159 308.123L265.955 360.635H256.982L236.955 307.809L254.159 308.123Z" fill="#4D935A"/>
<path d="M280.225 308.123L268.783 360.783H277.578L297.429 307.809L280.225 308.123Z" fill="#3B7145"/>
<path d="M274.68 120.447C274.68 120.447 254.023 119.588 252.78 141.091C251.539 162.595 266.41 198.062 264.995 207.746C263.581 217.43 194.98 195.868 186.648 194.573C178.314 193.278 169.608 200.37 169.608 209.187C169.608 216.457 172.019 280.673 172.865 304.018C173.026 308.455 176.67 311.969 181.111 311.969H277.053L305.729 254.203C305.729 254.203 361.883 197.282 361.883 196.422C361.883 195.561 358.093 114.243 358.093 114.243L285.946 120.232L274.68 120.447Z" fill="#55A363"/>
<path d="M301.949 284.985L291.464 282.939L305.73 254.203C305.73 254.203 332.37 227.198 348.952 210.109C348.545 220.171 348.4 226.999 348.72 227.521C350.049 229.685 301.949 284.985 301.949 284.985ZM282.945 120.29C282.957 120.273 282.963 120.266 282.963 120.266L343.383 115.464L285.946 120.232L282.945 120.29Z" fill="#A7A9A8"/>
<path d="M291.464 282.939L269.6 278.669L269.685 278.209L267.478 278.256L199.081 264.901V252.592V219.517C199.081 215.808 202.166 212.958 205.736 212.958C206.284 212.958 206.844 213.025 207.406 213.166C221.876 216.815 251.525 223.808 266.259 223.808C269.602 223.808 272.176 223.448 273.633 222.607C273.633 222.607 279.555 218.125 280.407 207.132C281.259 196.14 271.675 165.724 271.357 149.965C271.096 137.051 282.443 120.995 282.945 120.29L285.946 120.232L343.383 115.464L354.088 114.613C354.088 114.613 350.229 178.414 348.951 210.109C332.37 227.198 305.729 254.203 305.729 254.203L291.464 282.939Z" fill="#44824F"/>
<path d="M267.183 291.761C265.822 291.606 178.267 287.875 178.267 287.875L177.779 280.132L267.479 278.256L269.601 278.669L267.183 291.761Z" fill="#44824F"/>
<path d="M269.6 278.669L267.478 278.256L269.685 278.209L269.6 278.669Z" fill="#862B2C"/>
<path d="M178.803 311.329C178.831 311.329 178.848 310.892 178.854 310.101C178.852 309.237 178.848 308.111 178.843 306.756C178.816 303.931 178.752 300.03 178.627 295.721C178.502 291.411 178.328 287.511 178.158 284.69C178.073 283.28 177.993 282.14 177.925 281.352C177.857 280.565 177.807 280.13 177.778 280.132C177.75 280.134 177.746 280.571 177.764 281.361C177.79 282.225 177.824 283.35 177.866 284.703C177.957 287.599 178.079 291.462 178.214 295.733C178.344 300.004 178.462 303.867 178.551 306.763C178.609 308.117 178.656 309.242 178.694 310.105C178.736 310.894 178.774 311.33 178.803 311.329Z" fill="#17282F"/>
<path d="M335.351 319.053H335.311L333.944 312.655H333.96L335.351 319.053Z" fill="#A7A9A8"/>
<path d="M335.31 319.053H319.984L317.587 312.655H333.943L335.31 319.053Z" fill="#3B7145"/>
<path d="M195.077 253.811C195.062 253.811 195.053 253.578 195.047 253.133C195.047 252.649 195.047 252.002 195.046 251.189C195.064 249.458 195.091 247.027 195.122 244.043C195.23 237.971 195.376 229.655 195.538 220.468C195.588 215.867 195.896 211.466 195.383 207.53C195.128 205.568 194.664 203.73 193.956 202.123C193.277 200.505 192.273 199.181 191.237 198.115C189.11 195.992 186.717 195.121 185.07 194.943C183.399 194.793 182.483 195.106 182.476 195.04C182.471 195.025 182.698 194.969 183.135 194.875C183.572 194.786 184.235 194.727 185.087 194.775C186.773 194.904 189.248 195.752 191.452 197.897C192.527 198.973 193.572 200.323 194.284 201.978C195.023 203.615 195.509 205.488 195.779 207.477C196.32 211.474 196.02 215.88 195.972 220.476C195.76 229.663 195.568 237.978 195.429 244.049C195.34 247.032 195.266 249.462 195.215 251.193C195.181 252.005 195.154 252.651 195.134 253.135C195.112 253.579 195.092 253.812 195.077 253.811Z" fill="#17282F"/>
<path d="M177.665 225.243C176.794 225.242 175.941 224.981 175.307 224.391C174.521 223.661 174.193 222.574 173.92 221.536C172.709 216.912 171.976 212.015 173.087 207.365C174.199 202.716 177.476 198.354 182.079 197.066C182.516 196.9 182.994 196.825 183.492 196.825C185.686 196.825 188.278 198.279 189.56 199.887C191.134 201.861 191.582 204.563 191.222 207.061C190.861 209.559 189.768 211.893 188.522 214.088C186.931 216.89 185.067 219.537 182.966 221.98C181.986 223.119 180.915 224.243 179.539 224.846C178.956 225.101 178.305 225.243 177.665 225.243Z" fill="#44824F"/>
<path d="M257.638 212.831C257.635 212.846 257.437 212.832 257.059 212.79C256.639 212.74 256.091 212.674 255.41 212.592C253.979 212.412 251.913 212.121 249.364 211.734C244.266 210.962 237.241 209.764 229.531 208.195C221.818 206.621 214.884 204.974 209.89 203.689C207.393 203.048 205.378 202.508 203.992 202.112C203.333 201.922 202.803 201.769 202.396 201.651C202.033 201.541 201.844 201.477 201.848 201.462C201.851 201.447 202.048 201.484 202.419 201.566C202.831 201.665 203.367 201.791 204.034 201.95C205.484 202.302 207.497 202.792 209.964 203.392C214.973 204.599 221.911 206.198 229.617 207.77C237.321 209.338 244.329 210.582 249.413 211.431C251.918 211.844 253.963 212.181 255.435 212.424C256.11 212.54 256.654 212.633 257.071 212.705C257.445 212.773 257.64 212.816 257.638 212.831Z" fill="white"/>
<path d="M262.396 127.717C262.409 127.726 262.287 127.92 262.044 128.28C261.796 128.636 261.454 129.176 261.023 129.877C260.186 131.29 259.056 133.405 258.164 136.207C257.28 138.999 256.628 142.489 256.822 146.367C256.994 150.251 258.025 154.426 259.093 158.795C261.185 167.538 263.078 175.45 264.461 181.228C265.12 184.071 265.656 186.387 266.039 188.038C266.209 188.813 266.345 189.431 266.447 189.895C266.535 190.321 266.575 190.545 266.56 190.55C266.546 190.553 266.478 190.334 266.362 189.915C266.24 189.456 266.078 188.845 265.875 188.078C265.46 186.434 264.878 184.13 264.163 181.301C262.748 175.53 260.812 167.629 258.672 158.898C257.605 154.533 256.576 150.322 256.424 146.385C256.249 142.451 256.942 138.921 257.872 136.112C258.811 133.293 259.993 131.182 260.879 129.788C261.335 129.097 261.701 128.569 261.974 128.23C262.239 127.884 262.385 127.708 262.396 127.717Z" fill="white"/>
<path d="M171.812 209.145C171.782 209.141 171.792 208.927 171.834 208.542C171.87 208.155 171.982 207.602 172.171 206.933C172.544 205.596 173.351 203.806 174.696 202.147C176.048 200.492 177.636 199.338 178.87 198.701C179.485 198.379 180.004 198.158 180.376 198.045C180.744 197.924 180.951 197.871 180.961 197.899C180.989 197.972 180.188 198.271 179.02 198.968C177.851 199.659 176.345 200.815 175.032 202.421C173.727 204.032 172.902 205.741 172.463 207.027C172.018 208.313 171.887 209.157 171.812 209.145Z" fill="white"/>
<path d="M185.849 254.894C185.849 254.894 155.827 253.5 152.194 259.439C148.562 265.378 152.818 276.74 157.661 278.486C162.503 280.233 280.245 282.853 282.667 279.01C285.088 275.167 292.5 258.185 280.923 256.222C269.347 254.26 185.849 254.894 185.849 254.894Z" fill="#55A363"/>
<path d="M263.302 255.176C263.302 255.296 242.068 255.392 215.881 255.392C189.684 255.392 168.454 255.296 168.454 255.176C168.454 255.056 189.684 254.959 215.881 254.959C242.068 254.959 263.302 255.056 263.302 255.176Z" fill="#17282F"/>
<path d="M268.139 214.871C268.109 214.867 268.115 214.657 268.151 214.275C268.179 213.893 268.277 213.345 268.446 212.681C268.779 211.353 269.508 209.564 270.748 207.861C271.994 206.163 273.477 204.925 274.642 204.204C275.224 203.841 275.715 203.582 276.071 203.439C276.423 203.289 276.623 203.22 276.636 203.246C276.668 203.315 275.91 203.683 274.813 204.459C273.714 205.229 272.31 206.466 271.098 208.117C269.893 209.772 269.141 211.487 268.74 212.766C268.335 214.048 268.214 214.881 268.139 214.871Z" fill="white"/>
<path d="M254.805 257.982C254.805 258.102 236.599 258.198 214.145 258.198C191.684 258.198 173.482 258.102 173.482 257.982C173.482 257.862 191.684 257.765 214.145 257.765C236.599 257.765 254.805 257.862 254.805 257.982Z" fill="white"/>
<path d="M339.248 312.655C341.677 312.655 343.809 310.497 344.469 307.369C349.139 285.242 367.093 200.291 371.72 180.499C376.32 160.827 380.107 136.506 381.386 127.934C381.679 125.976 381.051 123.978 379.799 122.893C373.332 117.284 353.244 102.167 343.832 121.483C332.526 144.686 342.117 176.174 340.064 193.613C338.125 210.079 339.223 221.052 323.586 214.742C309.288 208.973 289.02 198.283 278.871 199.106C271.808 199.678 265.838 202.238 264.331 225.441C263.173 243.258 263.014 288.013 261.611 304.576C261.245 308.884 263.763 312.655 267.002 312.655H339.248Z" fill="#55A363"/>
<path d="M262.209 311.969C262.209 311.969 262.194 311.76 262.186 311.352C262.181 310.931 262.174 310.328 262.164 309.54C262.155 307.934 262.142 305.589 262.124 302.572C262.132 299.546 262.051 295.846 262.135 291.547C262.212 287.247 262.299 282.355 262.396 276.948C262.625 266.13 262.945 253.251 263.514 238.955C263.676 235.382 263.84 231.72 264.009 227.979C264.111 226.11 264.181 224.22 264.37 222.312C264.452 221.358 264.534 220.399 264.616 219.436C264.761 218.479 264.907 217.518 265.053 216.553C265.714 212.722 266.649 208.78 268.678 205.242L269.466 203.934L270.421 202.729C270.718 202.307 271.116 201.973 271.49 201.617L272.056 201.086L272.696 200.64C274.389 199.45 276.512 198.751 278.649 199.029L278.859 199.067H278.757C280.832 198.568 283.026 198.964 284.868 199.907C286.706 200.871 288.282 202.279 289.444 203.955C290.634 205.624 291.342 207.559 291.805 209.493C292.256 211.44 292.438 213.416 292.499 215.365C292.595 219.267 292.397 223.082 292.243 226.819C292.055 230.554 291.871 234.209 291.691 237.776C290.881 252.035 290.153 264.875 289.539 275.661C288.934 286.435 288.445 295.155 288.106 301.197C287.958 304.202 287.843 306.539 287.764 308.141C287.73 308.925 287.705 309.526 287.687 309.946C287.667 310.354 287.645 310.562 287.645 310.562C287.645 310.562 287.637 310.353 287.643 309.946C287.65 309.525 287.662 308.923 287.677 308.138C287.722 306.548 287.801 304.205 287.938 301.189C288.2 295.155 288.649 286.428 289.234 275.644C289.821 264.857 290.518 252.016 291.292 237.755C291.467 234.189 291.647 230.535 291.83 226.801C291.98 223.068 292.174 219.25 292.075 215.379C292.013 213.446 291.831 211.498 291.387 209.59C290.932 207.694 290.242 205.812 289.092 204.203C287.967 202.581 286.438 201.219 284.672 200.292C282.899 199.387 280.82 199.018 278.86 199.488L278.82 199.498L278.758 199.488L278.582 199.458C276.597 199.197 274.558 199.853 272.942 200.996L272.328 201.422L271.783 201.935C271.422 202.279 271.038 202.599 270.749 203.01L269.82 204.179L269.052 205.458C267.063 208.917 266.129 212.823 265.472 216.624C265.326 217.582 265.181 218.536 265.035 219.485C264.953 220.444 264.87 221.397 264.789 222.346C264.597 224.24 264.526 226.133 264.423 228.001C264.249 231.74 264.079 235.4 263.913 238.972C263.322 253.261 262.971 266.14 262.703 276.954C262.582 282.36 262.473 287.252 262.377 291.551C262.27 295.845 262.327 299.549 262.293 302.573C262.275 305.589 262.262 307.934 262.252 309.54C262.243 310.328 262.235 310.931 262.23 311.352C262.224 311.76 262.209 311.969 262.209 311.969Z" fill="#17282F"/>
<path d="M343.71 154.102C343.681 154.108 343.596 153.785 343.469 153.195C343.338 152.606 343.187 151.744 343.038 150.675C342.736 148.537 342.503 145.551 342.612 142.253C342.728 138.953 343.163 135.989 343.609 133.877C343.831 132.82 344.039 131.971 344.211 131.392C344.378 130.812 344.483 130.496 344.513 130.504C344.581 130.521 344.275 131.818 343.91 133.933C343.543 136.049 343.16 138.994 343.046 142.268C342.937 145.539 343.12 148.503 343.342 150.638C343.562 152.775 343.78 154.09 343.71 154.102Z" fill="white"/>
</svg>
