<svg width="390" height="378" viewBox="0 0 390 378" fill="none" xmlns="http://www.w3.org/2000/svg">
<path d="M89.381 87.9815L85.4072 89.0463L70.1391 32.0647L74.1128 31L89.381 87.9815Z" fill="#F5E7DA"/>
<path d="M87.4869 88.4891L30.5046 103.757L15.2365 46.7759L72.2187 31.5076L87.4869 88.4891Z" fill="#FFF6ED"/>
<path d="M85.4848 87.3336L31.6607 101.756L17.2385 47.9313L71.0626 33.5091L85.4848 87.3336Z" fill="white"/>
<path d="M72.2187 31.5075L72.151 31.6428C72.0991 31.7368 72.0278 31.8653 71.9363 32.0311C71.7399 32.3792 71.4563 32.8808 71.0919 33.5263L71.0854 33.5384L71.0713 33.5421C66.7142 34.7424 56.3132 37.5525 44.175 40.805C32.0326 44.0585 21.6213 46.825 17.2474 47.9642L17.2336 47.9679L17.2219 47.9607C16.5833 47.5839 16.0872 47.2913 15.7431 47.088C15.5809 46.9902 15.455 46.9146 15.3631 46.8591L15.2365 46.7759L15.3717 46.8439C15.4657 46.8954 15.5948 46.9667 15.7607 47.0583C16.1084 47.2546 16.61 47.538 17.2558 47.9025L17.23 47.8991C21.5874 46.6988 31.9872 43.8889 44.1295 40.6354C56.2677 37.383 66.6804 34.6162 71.0538 33.477L71.0338 33.4927C71.4102 32.8544 71.7033 32.358 71.9062 32.0142C72.0041 31.8519 72.08 31.7256 72.1358 31.634L72.2187 31.5075Z" fill="#DADBD8"/>
<path d="M30.5046 103.757L30.5729 103.623C30.6247 103.529 30.6957 103.4 30.7873 103.234C30.9839 102.886 31.2669 102.384 31.6319 101.739L31.6382 101.727L31.652 101.723C36.0094 100.523 46.4104 97.7123 58.5487 94.4599C70.6907 91.2064 81.1024 88.4399 85.4758 87.3008L85.49 87.297L85.5018 87.305C86.14 87.681 86.6365 87.9744 86.9805 88.1768C87.1426 88.2746 87.2688 88.3511 87.3608 88.4066L87.4869 88.4891L87.352 88.4218C87.2577 88.3696 87.129 88.299 86.9631 88.2073C86.6154 88.011 86.1135 87.7277 85.4683 87.3631L85.4933 87.3659C81.1364 88.5669 70.7364 91.3768 58.5944 94.6303C46.456 97.8827 36.0435 100.649 31.6694 101.788L31.6903 101.773C31.3133 102.411 31.0206 102.908 30.8176 103.251C30.7197 103.414 30.6434 103.539 30.588 103.632L30.5046 103.757Z" fill="#DADBD8"/>
<path d="M63.9634 69.7794C64.6181 72.2226 63.1682 74.7338 60.7251 75.3885L49.7874 78.3192C47.3443 78.9738 44.833 77.524 44.1784 75.0808L41.2477 64.1435C40.5931 61.7003 42.043 59.1891 44.4861 58.5345L55.4237 55.6037C57.8669 54.9491 60.3781 56.399 61.0328 58.8421L63.9634 69.7794Z" fill="#F5F6F8"/>
<path d="M63.9541 184.514L60.3913 182.457L89.8875 131.368L93.4503 133.425L63.9541 184.514Z" fill="#F5E7DA"/>
<path d="M62.2559 183.534L11.167 154.038L40.6632 102.949L91.7521 132.445L62.2559 183.534Z" fill="#FFF6ED"/>
<path d="M61.6577 181.3L13.4003 153.439L41.2615 105.182L89.5189 133.043L61.6577 181.3Z" fill="white"/>
<path d="M91.7521 132.445L91.6085 132.493C91.5053 132.522 91.3637 132.564 91.1817 132.616C90.7971 132.723 90.2419 132.877 89.5274 133.076L89.5147 133.08L89.502 133.072C85.572 130.841 76.2303 125.473 65.3474 119.19C54.4609 112.905 45.1428 107.499 41.2449 105.211L41.2325 105.204L41.2289 105.191C41.0441 104.472 40.9003 103.915 40.8003 103.528C40.7548 103.345 40.7196 103.201 40.6939 103.097L40.6632 102.949L40.7108 103.092C40.7404 103.196 40.7816 103.337 40.8341 103.519C40.9412 103.904 41.0955 104.459 41.2944 105.173L41.2786 105.153C45.2085 107.385 54.5491 112.752 65.4356 119.037C76.3185 125.32 85.6378 130.727 89.5357 133.014L89.5105 133.011C90.228 132.826 90.7862 132.682 91.1728 132.582C91.3568 132.537 91.4994 132.502 91.604 132.476L91.7521 132.445Z" fill="#DADBD8"/>
<path d="M11.167 154.038L11.3108 153.99C11.4139 153.96 11.5552 153.92 11.7371 153.867C12.1222 153.76 12.677 153.606 13.3914 153.407L13.4046 153.403L13.417 153.41C17.3469 155.643 26.6886 161.01 37.5715 167.293C48.4577 173.579 57.7761 178.984 61.6741 181.271L61.6868 181.279L61.6899 181.292C61.8748 182.01 62.019 182.568 62.1186 182.955C62.1641 183.139 62.1997 183.281 62.2255 183.386L62.2559 183.534L62.2085 183.39C62.1783 183.287 62.1376 183.146 62.0851 182.963C61.9781 182.579 61.8235 182.024 61.6251 181.31L61.6404 181.33C57.7108 179.098 48.37 173.731 37.4837 167.445C26.6008 161.162 17.2816 155.756 13.3833 153.469L13.4091 153.472C12.691 153.657 12.1331 153.801 11.7465 153.9C11.5625 153.946 11.4193 153.982 11.3152 154.007L11.167 154.038Z" fill="#DADBD8"/>
<path d="M58.852 153.67C57.5873 155.861 54.7864 156.611 52.5959 155.347L42.7895 149.685C40.5991 148.42 39.8485 145.619 41.1132 143.429L46.7752 133.622C48.0399 131.432 50.8408 130.681 53.0313 131.946L62.8377 137.608C65.0281 138.872 65.7786 141.673 64.514 143.864L58.852 153.67Z" fill="#F5F6F8"/>
<path d="M338.57 4.99996L394.708 69.8965L301.499 150.525L242.395 88.9879L338.57 4.99996Z" fill="#F5E7DA"/>
<path d="M335.604 8.35845L391.232 72.6646L298.023 153.294L242.395 88.9879L335.604 8.35845Z" fill="#FFF6ED"/>
<path d="M332.42 25.0811L374.225 73.408L301.206 136.572L259.402 88.2448L332.42 25.0811Z" fill="white"/>
<path d="M332.42 25.0815C332.42 25.0815 332.301 25.198 332.07 25.4049C331.825 25.622 331.486 25.9236 331.043 26.3157C330.123 27.1222 328.787 28.2921 327.055 29.8102C323.559 32.8572 318.476 37.2883 312.057 42.8834C299.202 54.0482 281.007 69.8502 259.584 88.4561L259.613 88.0623C272.391 102.823 286.549 119.177 301.431 136.367L301.436 136.373L301.007 136.342C328.567 112.532 353.976 90.5803 374.065 73.2247L374.041 73.5668C361.359 58.8251 350.961 46.7387 343.721 38.3211C340.11 34.1068 337.29 30.8145 335.357 28.558C334.404 27.4397 333.674 26.5816 333.167 25.9851C332.673 25.4007 332.42 25.0815 332.42 25.0815C332.42 25.0815 332.676 25.3514 333.173 25.9118C333.683 26.492 334.417 27.3274 335.375 28.4148C337.321 30.6434 340.162 33.8952 343.796 38.0564C351.107 46.4613 361.604 58.5296 374.408 73.2495L374.567 73.432L374.383 73.5916C354.316 90.973 328.935 112.958 301.405 136.802L301.175 137.002L300.976 136.771L300.971 136.766C286.103 119.564 271.957 103.198 259.19 88.4282L259.007 88.2155L259.218 88.0338C280.772 69.4639 299.077 53.6917 312.01 42.5485C318.451 37.0199 323.551 32.6413 327.058 29.6305C328.791 28.1508 330.128 27.0099 331.048 26.2241C331.49 25.8514 331.829 25.565 332.074 25.3586C332.304 25.1675 332.42 25.0815 332.42 25.0815Z" fill="#DADBD8"/>
<path d="M242.239 88.8077C242.234 88.7236 243.19 88.5963 244.739 88.4589C246.289 88.3232 248.431 88.1763 250.804 88.0854C253.177 87.9953 255.329 87.9899 256.885 88.0335C258.441 88.0771 259.402 88.1625 259.401 88.2451C259.399 88.4178 255.559 88.508 250.827 88.6936C246.095 88.8844 242.248 88.9836 242.239 88.8077Z" fill="#DADBD8"/>
<path d="M335.604 8.35851C335.769 8.38935 335.19 12.1589 334.312 16.7762C333.432 21.3947 332.585 25.1118 332.42 25.081C332.255 25.049 332.834 21.2806 333.713 16.6627C334.592 12.0448 335.439 8.32712 335.604 8.35851Z" fill="#DADBD8"/>
<path d="M391.165 72.7375C385.272 72.9269 379.379 73.1158 373.487 73.3047L391.165 72.7375Z" fill="white"/>
<path d="M373.487 73.3045C373.482 73.1366 377.435 72.8734 382.316 72.7164C387.199 72.56 391.16 72.5694 391.165 72.7373C391.171 72.9053 387.218 73.1691 382.335 73.3254C377.454 73.4818 373.493 73.4724 373.487 73.3045Z" fill="#DADBD8"/>
<path d="M298.022 153.295C297.857 153.263 298.429 149.533 299.301 144.964C300.173 140.395 301.013 136.716 301.178 136.748C301.343 136.78 300.771 140.509 299.899 145.078C299.028 149.647 298.187 153.325 298.022 153.295Z" fill="#DADBD8"/>
<path d="M324.498 58.0807C326.411 56.4259 329.303 56.6352 330.958 58.5481L338.963 67.8022C340.617 69.7151 340.408 72.6073 338.495 74.262L307.195 101.338C305.282 102.993 302.39 102.784 300.735 100.871L292.73 91.6167C291.075 89.7038 291.284 86.8116 293.197 85.1568L324.498 58.0807Z" fill="#F5F6F8"/>
<path d="M384.955 360.587C384.955 360.707 298.773 360.804 192.487 360.804C86.1635 360.804 0.00012207 360.707 0.00012207 360.587C0.00012207 360.468 86.1635 360.371 192.487 360.371C298.773 360.371 384.955 360.468 384.955 360.587Z" fill="#17282F"/>
<path d="M297.551 360.587H179.086V360.372C183.513 360.371 187.984 360.371 192.487 360.371C231.223 360.371 267.293 360.384 297.49 360.406L297.551 360.587ZM127.704 360.587H35.7017L35.7325 360.462C58.364 360.426 90.371 360.399 127.704 360.384V360.587Z" fill="#17282F"/>
<path d="M129.414 357.906L151.564 352.702H154.063L177.924 358.114C177.924 358.114 177.737 359.173 179.085 359.616V360.587H127.703V359.526C127.703 359.526 129.041 359.262 129.357 358.348L129.414 357.906Z" fill="#17282F"/>
<path d="M151.565 353.108H154.064V86.2639H151.565V353.108Z" fill="#17282F"/>
<path d="M154.064 107.429L151.565 101.516V86.4846C152.393 86.4821 153.226 86.4805 154.064 86.4805V107.429Z" fill="#3A3002"/>
<path d="M151.565 86.4846V86.2641H154.064V86.4805C153.226 86.4805 152.393 86.4821 151.565 86.4846Z" fill="#6C7A7F"/>
<path d="M156.255 356.441H139.152C139.033 356.441 139.013 356.266 139.129 356.238L150.839 353.381L150.862 353.378H153.82L153.894 353.411L156.371 356.171C156.463 356.274 156.392 356.441 156.255 356.441Z" fill="#17282F"/>
<path d="M179.123 359.554C179.123 359.674 167.684 359.771 153.577 359.771C139.464 359.771 128.028 359.674 128.028 359.554C128.028 359.435 139.464 359.338 153.577 359.338C167.684 359.338 179.123 359.435 179.123 359.554Z" fill="#17282F"/>
<path d="M154.063 352.666C154.063 352.786 153.501 352.882 152.808 352.882C152.114 352.882 151.551 352.786 151.551 352.666C151.551 352.546 152.114 352.449 152.808 352.449C153.501 352.449 154.063 352.546 154.063 352.666Z" fill="#17282F"/>
<path d="M30.0063 291.885C30.0095 291.891 30.0711 291.868 30.1874 291.817C30.3238 291.756 30.4926 291.68 30.7003 291.586C31.1544 291.389 31.7938 291.037 32.6751 290.713C34.4016 289.995 36.9887 289.107 40.3027 288.608C43.608 288.101 47.629 287.944 52.0175 288.546C54.2088 288.846 56.4901 289.307 58.8071 289.965C61.1203 290.636 63.4641 291.499 65.7822 292.571C68.1071 293.631 70.3075 294.82 72.3909 296.038C74.4834 297.239 76.4455 298.496 78.3045 299.706C82.0055 302.155 85.2349 304.515 87.8986 306.557C90.5598 308.604 92.6663 310.322 94.0965 311.539C94.7932 312.132 95.3437 312.6 95.744 312.94C95.9194 313.086 96.0617 313.205 96.1767 313.3C96.2757 313.38 96.3282 313.418 96.3333 313.413C96.3381 313.408 96.294 313.36 96.2033 313.271C96.0955 313.167 95.9612 313.039 95.7958 312.882C95.4322 312.547 94.9054 312.041 94.1952 311.425C92.7944 310.171 90.711 308.418 88.0678 306.34C85.4211 304.266 82.2022 301.878 78.5028 299.407C76.6443 298.185 74.6805 296.918 72.5829 295.707C70.4944 294.481 68.2854 293.285 65.9444 292.216C63.6094 291.137 61.2439 290.269 58.9122 289.598C56.5753 288.939 54.2743 288.483 52.0645 288.191C47.6385 287.604 43.5835 287.79 40.2587 288.336C36.9248 288.874 34.3328 289.809 32.6164 290.573C31.7398 290.92 31.1084 291.296 30.6652 291.516C30.4637 291.624 30.3007 291.712 30.1688 291.782C30.058 291.844 30.0032 291.879 30.0063 291.885Z" fill="#17282F"/>
<path d="M114.799 237.318C114.793 237.314 114.74 237.367 114.64 237.475C114.528 237.598 114.384 237.758 114.201 237.96C113.808 238.41 113.253 239.044 112.545 239.852C111.79 240.65 111.052 241.753 110.135 242.992C109.694 243.622 109.169 244.265 108.712 245.005C108.249 245.743 107.76 246.522 107.246 247.34C106.173 248.952 105.226 250.838 104.117 252.814C103.552 253.798 103.088 254.872 102.543 255.947C102.03 257.036 101.435 258.129 100.948 259.3C98.8381 263.924 96.8264 269.132 94.8985 274.66C93.0252 280.208 91.4526 285.562 90.1564 290.467C88.8937 295.381 87.8583 299.834 87.119 303.604C86.7391 305.486 86.4059 307.191 86.1598 308.698C85.9021 310.203 85.6658 311.496 85.5262 312.564C85.3789 313.611 85.2645 314.433 85.1829 315.016C85.1493 315.282 85.1229 315.493 85.1031 315.656C85.0875 315.801 85.0821 315.875 85.0887 315.876C85.0952 315.878 85.113 315.805 85.1421 315.663C85.1717 315.502 85.2105 315.293 85.2596 315.03C85.3584 314.451 85.4976 313.633 85.6744 312.592C85.8375 311.53 86.095 310.242 86.3724 308.743C86.6389 307.241 86.9902 305.542 87.3876 303.666C88.16 299.907 89.2224 295.465 90.5023 290.562C91.8163 285.668 93.3976 280.325 95.2677 274.784C97.1927 269.265 99.1905 264.062 101.278 259.44C101.76 258.268 102.348 257.176 102.855 256.087C103.392 255.012 103.85 253.937 104.408 252.954C105.502 250.976 106.432 249.087 107.487 247.471C107.991 246.65 108.471 245.869 108.925 245.128C109.372 244.386 109.888 243.74 110.319 243.106C111.217 241.859 111.934 240.747 112.668 239.938C113.349 239.113 113.884 238.467 114.263 238.008C114.432 237.796 114.567 237.628 114.67 237.499C114.761 237.383 114.804 237.322 114.799 237.318Z" fill="#17282F"/>
<path d="M102.12 332.953C102.127 332.954 102.139 332.844 102.156 332.628C102.173 332.393 102.194 332.075 102.223 331.666C102.184 331.245 102.159 330.719 102.075 330.106C101.943 329.501 101.842 328.789 101.59 328.025C100.74 324.908 98.6397 320.724 95.7966 315.749C94.3899 313.25 92.7538 310.568 91.3096 307.53C90.9313 306.775 90.5458 306.008 90.1546 305.227C89.7458 304.457 89.331 303.676 88.91 302.882C88.0767 301.29 87.1694 299.679 86.265 298.013C82.6053 291.372 78.4917 284.123 74.1622 276.521C65.4872 261.33 57.6347 247.58 51.9403 237.609C49.128 232.614 46.8524 228.57 45.3411 225.743C44.5653 224.34 43.9999 223.233 43.6139 222.483C43.4238 222.121 43.2755 221.84 43.1663 221.633C43.0635 221.442 43.0079 221.346 43.0016 221.348C42.9958 221.352 43.0392 221.454 43.1305 221.649C43.2309 221.861 43.3676 222.149 43.5432 222.517C43.907 223.279 44.4517 224.4 45.2072 225.814C46.6786 228.665 48.9176 232.73 51.7002 237.744C57.2815 247.762 65.1509 261.514 73.8235 276.715C78.153 284.316 82.2752 291.559 85.9509 298.186C86.8588 299.849 87.7704 301.457 88.6074 303.044C89.031 303.835 89.4485 304.614 89.8593 305.381C90.2523 306.157 90.6392 306.92 91.0188 307.67C92.4833 310.719 94.1377 313.4 95.5577 315.886C98.4279 320.838 100.557 324.987 101.443 328.067C101.707 328.824 101.816 329.526 101.961 330.125C102.056 330.73 102.093 331.25 102.145 331.668C102.133 332.074 102.123 332.391 102.116 332.625C102.113 332.841 102.113 332.952 102.12 332.953Z" fill="#17282F"/>
<path d="M78.8301 315.085C78.8407 315.093 78.9497 314.967 79.1489 314.72C79.3466 314.472 79.6306 314.1 79.9816 313.611C80.6865 312.633 81.6539 311.179 82.7979 309.349C85.105 305.703 88.0476 300.501 91.7006 295.044C93.5386 292.325 95.4129 289.817 97.3894 287.784C98.3799 286.771 99.4005 285.881 100.472 285.2C101.54 284.522 102.682 284.061 103.828 284.004C104.974 283.955 106.07 284.362 106.865 284.955C107.677 285.533 108.25 286.197 108.685 286.744C109.538 287.861 109.89 288.551 109.926 288.534C109.937 288.53 109.85 288.359 109.673 288.038C109.587 287.875 109.471 287.678 109.322 287.452C109.183 287.22 109.007 286.96 108.794 286.674C108.369 286.109 107.802 285.42 106.968 284.802C106.154 284.172 104.988 283.716 103.775 283.754C102.564 283.797 101.378 284.264 100.279 284.945C99.1767 285.63 98.1351 286.523 97.1282 287.538C95.1182 289.576 93.2277 292.091 91.3845 294.817C87.721 300.289 84.8172 305.514 82.5694 309.195C81.456 311.043 80.5254 312.518 79.8595 313.521C79.5374 314 79.2812 314.383 79.0865 314.673C78.9078 314.934 78.8198 315.076 78.8301 315.085Z" fill="#17282F"/>
<path d="M109.724 302.325C109.945 302.36 110.487 302.542 110.646 302.699C110.865 302.916 110.826 303.302 110.634 303.543C110.441 303.784 110.138 303.906 109.84 303.989C109.194 304.167 108.509 304.2 107.85 304.084C107.592 304.039 107.32 303.96 107.157 303.756C106.876 303.406 107.069 302.847 107.436 302.588C107.803 302.33 108.275 302.289 108.722 302.257C108.722 302.257 108.975 302.21 109.724 302.325ZM127.545 309.827C125.336 309.253 122.992 309.178 120.877 308.319C120.424 308.135 119.904 307.734 120.072 307.276C120.2 306.931 120.635 306.836 121.001 306.802C126.058 306.323 131.247 307.477 135.655 309.994C135.279 305.794 134.39 301.595 131.961 298.58C130.639 298.337 129.263 298.306 127.92 298.4C125.406 298.574 122.934 299.145 120.425 299.39C120.067 299.426 119.699 299.452 119.355 299.346C119.013 299.24 118.696 298.97 118.642 298.615C118.589 298.267 118.799 297.921 119.082 297.714C119.367 297.507 119.715 297.412 120.056 297.326C123.045 296.569 126.125 296.173 129.209 296.143C127.244 294.927 124.691 294.201 121.361 294.18C121.361 294.18 115.926 294.648 111.662 300.433C111.662 300.433 101.829 293.981 94.797 302.921C91.5639 307.032 91.4489 312.067 93.0807 317.119C96.0087 312.951 100.102 309.608 104.777 307.586C105.358 307.335 106.178 307.173 106.5 307.718C106.681 308.026 106.586 308.437 106.366 308.719C106.146 309 105.827 309.184 105.517 309.362C102.902 310.866 100.362 312.548 98.2246 314.677C96.6039 316.291 95.22 318.18 94.3154 320.272C96.1423 324.256 98.8906 328.131 101.876 331.44C101.907 327.649 102.434 323.815 104.004 320.37C105.642 316.775 108.518 313.628 112.226 312.263C113.128 311.931 114.306 311.778 114.902 312.532C115.319 313.061 115.245 313.848 114.918 314.437C114.589 315.024 114.054 315.462 113.547 315.905C108.33 320.461 104.961 327.054 104.237 333.936C105.867 335.62 107.271 337.017 108.576 338.139C108.947 335.792 109.375 333.452 110.08 331.185C110.968 328.326 112.32 325.565 114.371 323.385C114.737 322.996 115.141 322.616 115.645 322.439C116.149 322.264 116.778 322.341 117.115 322.756C117.521 323.254 117.367 323.989 117.164 324.598C116.15 327.627 114.433 330.371 113.232 333.33C112.31 335.607 111.707 338.139 112.015 340.537C114.976 342.038 118.112 342.244 123.057 340.795C124.735 340.303 126.188 339.854 127.404 338.54C128.663 336.698 127.544 333.818 126.278 331.982C125.011 330.146 123.23 328.699 122.046 326.809C121.646 326.172 121.36 325.241 121.929 324.749C122.38 324.358 123.075 324.528 123.626 324.76C126.117 325.811 128.23 327.735 129.507 330.119C130.278 331.558 130.739 333.16 130.873 334.787C132.169 333.058 133.227 331.072 134.039 328.96C131.501 323.677 127.04 319.327 121.666 316.977C120.896 316.641 120.079 316.321 119.533 315.683C118.988 315.044 118.847 313.968 119.478 313.415C120.18 312.8 121.266 313.184 122.104 313.597C125.263 315.154 127.784 317.352 130.398 319.712C132.744 321.828 134.173 323.633 135.148 325.409C135.809 322.713 136.099 319.935 136.006 317.312C135.985 316.745 135.967 316.161 135.949 315.566C133.914 312.768 130.894 310.698 127.545 309.827Z" fill="#4D935A"/>
<path d="M108.319 337.428C108.62 335.588 108.97 333.746 109.476 331.939L109.731 331.076C110.574 328.365 111.834 325.719 113.719 323.559L114.104 323.134L114.104 323.133C114.427 322.791 114.817 322.412 115.307 322.183L115.523 322.094L115.525 322.094C116.083 321.9 116.832 321.945 117.307 322.423L117.399 322.524C117.677 322.866 117.75 323.274 117.734 323.65C117.723 323.93 117.662 324.211 117.588 324.467L117.511 324.714C116.996 326.254 116.303 327.716 115.597 329.151C114.976 330.413 114.346 331.651 113.8 332.922L113.571 333.468C112.686 335.652 112.116 338.041 112.357 340.295C114.98 341.575 117.783 341.819 122.059 340.693L122.953 340.444C124.63 339.953 125.982 339.526 127.117 338.309C127.649 337.511 127.698 336.463 127.432 335.344C127.197 334.359 126.73 333.365 126.204 332.535L125.976 332.19C125.36 331.297 124.617 330.496 123.86 329.662C123.203 328.939 122.538 328.193 121.972 327.364L121.736 327.004C121.518 326.657 121.321 326.215 121.261 325.774C121.205 325.357 121.269 324.89 121.615 324.541L121.689 324.472C122.013 324.192 122.409 324.129 122.767 324.156C123.122 324.183 123.476 324.3 123.767 324.423L123.768 324.423C126.176 325.438 128.239 327.245 129.572 329.491L129.829 329.946C130.474 331.149 130.907 332.461 131.122 333.806C132.123 332.336 132.963 330.701 133.638 328.974C131.205 323.997 127.036 319.873 122.013 317.535L121.519 317.312C120.827 317.01 119.981 316.681 119.373 316.051L119.255 315.921C118.93 315.541 118.728 315.035 118.699 314.538C118.674 314.101 118.782 313.641 119.092 313.285L119.237 313.14C119.699 312.735 120.272 312.679 120.795 312.759C121.185 312.819 121.576 312.957 121.927 313.111L122.265 313.268L122.266 313.268C125.074 314.653 127.381 316.534 129.664 318.562L130.643 319.44C132.664 321.263 134.021 322.867 134.996 324.43C135.468 322.215 135.691 319.966 135.654 317.812L135.64 317.325C135.62 316.794 135.603 316.249 135.586 315.695C133.727 313.179 131.049 311.275 128.061 310.354L127.452 310.181C126.367 309.899 125.255 309.74 124.113 309.54C123.123 309.366 122.121 309.162 121.152 308.816L120.739 308.658C120.48 308.553 120.185 308.38 119.972 308.147C119.784 307.942 119.624 307.644 119.688 307.3L119.729 307.15C119.84 306.849 120.081 306.679 120.306 306.585C120.527 306.493 120.771 306.456 120.966 306.438L120.966 306.437C125.867 305.973 130.887 307.022 135.222 309.339C134.818 305.444 133.926 301.674 131.759 298.918C130.677 298.732 129.555 298.686 128.442 298.736L127.946 298.764C126.706 298.85 125.473 299.034 124.227 299.23C123.296 299.375 122.356 299.529 121.409 299.648L120.46 299.754C120.152 299.785 119.778 299.817 119.406 299.738L119.248 299.696L119.247 299.696C118.848 299.573 118.42 299.253 118.3 298.769L118.281 298.67L118.28 298.669C118.21 298.207 118.443 297.792 118.737 297.524L118.866 297.418L118.867 297.419C119.216 297.165 119.631 297.056 119.965 296.972L119.966 296.971C122.537 296.32 125.173 295.935 127.822 295.816C126.111 295.029 123.998 294.564 121.376 294.546C121.367 294.547 121.356 294.549 121.342 294.551C121.305 294.555 121.249 294.562 121.175 294.573C121.027 294.596 120.807 294.636 120.528 294.701C119.972 294.83 119.181 295.063 118.259 295.472C116.416 296.29 114.045 297.817 111.956 300.65L111.752 300.929L111.462 300.739L111.457 300.736C111.453 300.733 111.447 300.729 111.438 300.724C111.421 300.713 111.395 300.696 111.36 300.675C111.289 300.632 111.184 300.569 111.047 300.492C110.773 300.337 110.371 300.125 109.866 299.898C108.855 299.442 107.439 298.928 105.813 298.686C102.678 298.221 98.7567 298.765 95.407 302.751L95.0845 303.147C92.0988 306.943 91.8388 311.569 93.2151 316.309C96.0496 312.495 99.8605 309.41 104.189 307.446L104.632 307.25C104.946 307.114 105.346 306.992 105.731 306.988C106.07 306.984 106.451 307.075 106.711 307.386L106.814 307.532C107.064 307.955 106.965 308.449 106.752 308.802L106.655 308.944C106.451 309.205 106.182 309.392 105.935 309.541L105.698 309.679C103.258 311.083 100.9 312.632 98.8819 314.548L98.4828 314.936C96.9272 316.486 95.6013 318.286 94.7178 320.269C96.3974 323.883 98.8409 327.41 101.529 330.497C101.629 327.222 102.128 323.922 103.383 320.881L103.672 320.218C105.288 316.671 108.097 313.529 111.744 312.057L112.1 311.919C112.576 311.744 113.146 311.608 113.69 311.625C114.204 311.64 114.731 311.794 115.114 312.217L115.189 312.305C115.698 312.95 115.618 313.834 115.303 314.487L115.237 314.615C114.962 315.107 114.559 315.502 114.169 315.849L113.788 316.18C108.684 320.637 105.372 327.074 104.62 333.805C105.993 335.222 107.199 336.426 108.319 337.428ZM106.974 304.094L106.872 303.985C106.64 303.695 106.62 303.338 106.701 303.041C106.781 302.747 106.97 302.47 107.225 302.29L107.225 302.289C107.682 301.966 108.253 301.925 108.68 301.894C108.682 301.894 108.685 301.893 108.688 301.893C108.703 301.891 108.723 301.889 108.747 301.887C108.794 301.883 108.86 301.881 108.948 301.882C109.081 301.884 109.264 301.896 109.511 301.926L109.779 301.964L109.78 301.964C109.925 301.987 110.143 302.05 110.338 302.124C110.438 302.162 110.541 302.207 110.634 302.255C110.72 302.299 110.823 302.36 110.903 302.439L110.901 302.439C111.101 302.636 111.169 302.895 111.16 303.127C111.153 303.3 111.103 303.473 111.017 303.626L110.92 303.771L110.919 303.772C110.718 304.023 110.442 304.169 110.185 304.263L109.938 304.342L109.674 304.407C109.143 304.522 108.594 304.548 108.055 304.484L107.786 304.445C107.556 304.404 107.224 304.325 106.974 304.094Z" stroke="black" stroke-opacity="0.1" stroke-width="0.731644"/>
<path d="M121.118 341.4C121.129 341.4 121.142 341.253 121.158 340.972C121.176 340.691 121.186 340.276 121.191 339.741C121.197 338.672 121.14 337.124 120.963 335.219C120.787 333.315 120.48 331.059 120.108 328.563C119.749 326.065 119.293 323.32 118.675 320.47C117.437 314.765 115.829 309.722 114.513 306.135C113.861 304.34 113.282 302.906 112.873 301.919C112.672 301.452 112.51 301.078 112.386 300.79C112.272 300.533 112.206 300.401 112.196 300.404C112.186 300.409 112.231 300.55 112.327 300.814C112.437 301.107 112.58 301.49 112.758 301.965C113.13 302.965 113.678 304.409 114.301 306.211C115.56 309.81 117.129 314.849 118.364 320.537C118.981 323.38 119.443 326.111 119.819 328.607C120.206 331.1 120.535 333.347 120.739 335.242C120.945 337.137 121.036 338.678 121.067 339.743C121.078 340.25 121.087 340.658 121.093 340.971C121.099 341.251 121.107 341.4 121.118 341.4Z" fill="#17282F"/>
<path d="M117.494 316.191C117.478 316.175 117.23 316.396 116.792 316.809C116.355 317.221 115.729 317.824 114.968 318.583C113.467 320.111 111.352 322.241 109.603 325.052C108.761 326.473 108.041 327.856 107.461 329.166C106.887 330.474 106.53 331.726 106.361 332.796C106.2 333.868 106.191 334.747 106.223 335.348C106.231 335.65 106.264 335.883 106.278 336.04C106.297 336.198 106.311 336.28 106.322 336.279C106.399 336.28 106.218 334.938 106.583 332.834C106.777 331.787 107.148 330.569 107.73 329.284C108.313 328.004 109.046 326.615 109.874 325.218C111.595 322.45 113.672 320.305 115.13 318.74C115.838 317.993 116.427 317.373 116.88 316.896C117.29 316.456 117.51 316.207 117.494 316.191Z" fill="#17282F"/>
<path d="M124.716 321.591C124.767 321.524 123.349 320.395 121.423 319.27C119.499 318.144 117.854 317.401 117.817 317.473C117.773 317.557 119.352 318.426 121.262 319.544C123.173 320.66 124.662 321.665 124.716 321.591Z" fill="#17282F"/>
<path d="M125.116 311.013C125.127 310.973 124.62 310.795 123.778 310.579C122.937 310.363 121.759 310.121 120.442 309.957C119.126 309.794 117.924 309.741 117.055 309.744C116.187 309.747 115.651 309.796 115.651 309.837C115.651 309.934 117.793 309.944 120.404 310.272C123.014 310.594 125.093 311.108 125.116 311.013Z" fill="#17282F"/>
<path d="M115.081 308.107C115.079 308.088 114.787 308.11 114.269 308.196C113.75 308.281 113.004 308.446 112.106 308.737C110.312 309.302 107.927 310.493 105.767 312.41C103.589 314.315 102.129 316.542 101.323 318.239C100.914 319.088 100.645 319.802 100.486 320.304C100.326 320.805 100.262 321.089 100.281 321.095C100.337 321.115 100.665 319.996 101.524 318.34C102.372 316.688 103.836 314.521 105.976 312.649C108.105 310.761 110.425 309.563 112.179 308.949C113.935 308.324 115.093 308.168 115.081 308.107Z" fill="#17282F"/>
<path d="M128.737 303.813C128.739 303.791 128.537 303.753 128.166 303.701C127.796 303.648 127.259 303.596 126.592 303.555C125.258 303.473 123.403 303.477 121.374 303.722C119.346 303.97 117.543 304.412 116.268 304.812C115.631 305.011 115.12 305.19 114.775 305.331C114.428 305.47 114.239 305.556 114.247 305.577C114.263 305.624 115.047 305.368 116.331 305.027C117.613 304.686 119.404 304.284 121.412 304.037C123.421 303.795 125.256 303.755 126.583 303.78C127.911 303.803 128.732 303.864 128.737 303.813Z" fill="#17282F"/>
<path d="M96.0451 305.257C96.0816 305.298 96.8117 304.612 98.1443 303.725C99.4727 302.844 101.474 301.829 103.861 301.319C106.247 300.789 108.482 300.915 110.063 301.157C110.808 301.261 111.439 301.348 111.951 301.42C112.398 301.478 112.648 301.5 112.651 301.477C112.655 301.457 112.414 301.393 111.972 301.299C111.532 301.204 110.892 301.076 110.099 300.935C108.517 300.633 106.226 300.467 103.794 301.009C101.358 301.528 99.3315 302.598 98.018 303.54C97.3561 304.007 96.8542 304.432 96.5288 304.746C96.1996 305.057 96.029 305.239 96.0451 305.257Z" fill="#17282F"/>
<path d="M119.631 297.171C119.622 297.088 117.744 297.486 115.787 298.748C114.812 299.368 114.005 300.04 113.461 300.562C112.916 301.085 112.623 301.45 112.652 301.478C112.722 301.551 114.035 300.23 115.957 299.017C117.869 297.781 119.659 297.261 119.631 297.171Z" fill="#17282F"/>
<path d="M19.5166 320.615C23.2301 320.363 26.9462 320.987 30.5864 321.762C32.3671 322.141 34.1399 322.557 35.9033 323.009C36.6823 323.209 37.2847 322.312 36.7972 321.672C35.2325 319.621 32.4388 318.477 29.8346 317.809C24.9349 316.552 19.8269 316.13 14.7849 316.53C16.2214 314.999 17.9428 313.78 20.0435 312.577C23.4783 310.609 28.1383 308.801 32.9383 308.461C33.0501 308.552 33.1614 308.644 33.2707 308.737C35.6588 310.776 37.7239 313.209 40.3373 314.949C40.6619 315.165 41.0104 315.376 41.3991 315.41C41.7871 315.444 42.2233 315.248 42.3384 314.875C42.4578 314.489 42.2091 314.095 41.966 313.773C40.509 311.836 38.8154 310.08 36.9407 308.544C40.2029 308.937 43.3909 310.179 46.1628 312.688C54.137 319.907 50.0181 324.064 50.0181 324.064C50.4726 323.996 58.4186 323.562 62.2113 333.598C64.8372 340.546 63.9711 345.669 61.1475 349.352C60.9279 348.364 60.6769 347.383 60.4245 346.42C59.547 343.078 58.6623 339.713 57.2016 336.581C55.7413 333.448 53.6566 330.527 50.7945 328.589C50.3334 328.276 49.7642 327.98 49.2427 328.176C48.6971 328.381 48.4639 329.064 48.5687 329.637C48.6739 330.21 49.0293 330.7 49.3626 331.178C53.9898 337.801 56.0135 346.179 54.9997 354.188C52.508 355.485 48.6037 357.193 43.9463 358.54C45.1268 354.705 46.2435 350.829 46.5657 346.835C46.9185 342.455 46.241 337.86 43.8343 334.184C43.4999 333.673 43.1055 333.16 42.5409 332.928C41.3747 332.45 40.033 333.455 39.6655 334.66C39.2982 335.866 39.612 337.16 39.9018 338.386C40.8349 342.34 41.5115 346.385 41.3974 350.446C41.3085 353.597 40.7195 356.769 39.4746 359.653C36.9527 360.178 34.2941 360.553 31.5783 360.685C32.8766 354.561 33.0935 348.209 32.2025 342.012C32.106 341.339 31.9337 340.576 31.3366 340.252C30.6744 339.891 29.8039 340.308 29.4115 340.952C29.0179 341.596 28.9796 342.388 28.96 343.142C28.8622 346.928 28.9655 350.778 27.9421 354.425C27.3207 356.639 26.1921 358.797 24.6023 360.431C19.9662 359.836 15.3666 358.319 11.1928 355.414C11.1928 355.414 9.54478 352.945 8.59033 348.11C12.3611 345.173 16.5626 342.788 21.0199 341.063C21.6132 340.833 22.2862 340.536 22.4602 339.926C22.6742 339.175 21.9233 338.43 21.1488 338.343C20.3735 338.256 19.6256 338.617 18.9292 338.968C15.3104 340.793 11.6914 342.617 8.0728 344.442C7.89392 342.401 7.86653 340.074 8.0773 337.476C13.6955 332.984 21.0407 330.699 28.2163 331.235C28.9388 331.29 29.6885 331.368 30.3696 331.12C31.0506 330.873 31.636 330.183 31.4937 329.473C31.3418 328.713 30.5011 328.328 29.7546 328.121C25.381 326.914 20.6259 327.801 16.5355 329.766C13.525 331.212 10.826 333.205 8.29173 335.395C8.33557 335.045 8.381 334.693 8.434 334.334C9.1201 329.675 9.89631 326.131 10.8777 323.328C13.41 321.664 16.4741 320.822 19.5166 320.615Z" fill="#4D935A"/>
<path d="M11.4619 355.156C15.5083 357.956 19.9617 359.441 24.4642 360.042C25.8437 358.576 26.861 356.693 27.4704 354.731L27.59 354.326C28.3458 351.633 28.4773 348.829 28.5375 345.985L28.5939 343.132C28.6132 342.392 28.6474 341.502 29.099 340.762C29.3368 340.372 29.7151 340.054 30.1373 339.886C30.5609 339.716 31.061 339.686 31.5103 339.931L31.5109 339.93C31.9081 340.146 32.1463 340.5 32.2953 340.862C32.4061 341.132 32.4748 341.422 32.5227 341.694L32.5644 341.96C33.439 348.041 33.2496 354.271 32.0292 360.291C34.493 360.146 36.9072 359.805 39.2108 359.333C40.3087 356.723 40.8715 353.875 41.0092 351.019L41.0321 350.435C41.1309 346.923 40.6306 343.413 39.8811 339.951L39.5457 338.471C39.2794 337.344 38.9575 336.046 39.2488 334.802L39.3158 334.554C39.5257 333.865 40.0079 333.243 40.6042 332.856C41.1651 332.492 41.863 332.315 42.5438 332.539L42.6796 332.59C43.273 332.833 43.6895 333.325 44.009 333.788L44.1406 333.983C46.4517 337.513 47.1949 341.852 46.9848 346.03L46.9301 346.864C46.6228 350.674 45.599 354.37 44.4932 357.995C48.7346 356.72 52.2997 355.165 54.6586 353.951C55.5754 346.336 53.7237 338.399 49.484 332.006L49.0632 331.388L49.0624 331.387C48.7828 330.986 48.4325 330.508 48.2674 329.948L48.2085 329.703L48.209 329.702C48.1443 329.348 48.1829 328.962 48.3248 328.626C48.4496 328.331 48.6634 328.057 48.9746 327.896L49.114 327.834L49.1145 327.833C49.4788 327.697 49.8428 327.74 50.1575 327.845C50.3916 327.923 50.613 328.041 50.8105 328.163L51.0001 328.286C53.7505 330.149 55.7871 332.886 57.2487 335.834L57.5332 336.426C58.6408 338.801 59.4197 341.306 60.1094 343.817L60.7783 346.328C60.9638 347.036 61.1478 347.756 61.3208 348.482C63.5986 345.089 64.2644 340.498 62.1019 334.365L61.869 333.727C60.007 328.8 57.1408 326.473 54.7119 325.376C52.2658 324.27 50.2382 324.401 50.0725 324.426L48.982 324.59L49.7586 323.807L49.7629 323.802C49.7679 323.797 49.7759 323.787 49.7872 323.774C49.8101 323.748 49.8455 323.707 49.8883 323.651C49.9744 323.538 50.0926 323.364 50.2127 323.133C50.4524 322.673 50.7 321.983 50.7154 321.077C50.745 319.333 49.9117 316.698 46.2774 313.291L45.917 312.958C43.5646 310.829 40.9061 309.634 38.1538 309.104C39.4336 310.245 40.6212 311.488 41.6935 312.826L42.2581 313.553C42.3836 313.719 42.5299 313.928 42.626 314.16C42.7112 314.365 42.7667 314.611 42.7166 314.871L42.6878 314.983C42.5269 315.504 42.0126 315.753 41.5572 315.777L41.3673 315.774C40.9982 315.742 40.67 315.586 40.3935 315.419L40.1345 315.254L39.6414 314.913C38.5051 314.1 37.4699 313.17 36.4681 312.221C35.4602 311.267 34.4931 310.303 33.4737 309.399L33.0334 309.015C32.9633 308.955 32.8908 308.897 32.8186 308.837C28.4343 309.176 24.1664 310.748 20.8771 312.531L20.2254 312.894C18.4682 313.901 16.9934 314.911 15.7332 316.099C20.1781 315.84 24.6606 316.213 28.9971 317.227L29.926 317.455C32.4636 318.105 35.2632 319.223 36.93 321.252L37.088 321.451C37.7683 322.343 36.9732 323.569 35.9152 323.386L35.8126 323.364C34.4937 323.025 33.1694 322.707 31.8406 322.41L30.51 322.12C27.1031 321.394 23.6606 320.809 20.2279 320.943L19.5412 320.981C16.5872 321.181 13.6302 321.99 11.1821 323.568C10.3516 325.972 9.66667 328.933 9.05706 332.697L8.79618 334.388C8.79056 334.426 8.78579 334.464 8.78033 334.502C10.9573 332.678 13.2701 331.009 15.8084 329.717L16.377 329.436C20.5213 327.446 25.3686 326.532 29.851 327.769L29.8515 327.769C30.2421 327.876 30.6818 328.037 31.051 328.286C31.3763 328.505 31.6683 328.807 31.804 329.218L31.8526 329.401C31.9483 329.88 31.7942 330.332 31.5358 330.686C31.3104 330.994 30.9938 331.246 30.6455 331.403L30.4943 331.464C29.9162 331.674 29.2996 331.675 28.7341 331.64L28.1885 331.6C21.1582 331.074 13.9602 333.295 8.43005 337.664C8.25226 339.952 8.26139 342.024 8.39513 343.87L18.7645 338.642C19.4011 338.321 20.1836 337.931 21.021 337.966L21.1893 337.979C21.6719 338.034 22.1346 338.289 22.4485 338.643C22.7245 338.954 22.9108 339.375 22.8523 339.829L22.8122 340.026C22.6933 340.443 22.4078 340.733 22.1026 340.94C21.8762 341.093 21.622 341.213 21.3838 341.312L21.1521 341.403C16.799 343.088 12.6923 345.409 8.99602 348.261C9.46307 350.54 10.0798 352.267 10.5852 353.429C10.846 354.029 11.0761 354.479 11.2403 354.776C11.3224 354.925 11.3886 355.036 11.4329 355.109C11.444 355.127 11.4535 355.143 11.4619 355.156Z" stroke="black" stroke-opacity="0.1" stroke-width="0.731644"/>
<path d="M11.1928 355.414C11.2035 355.422 11.3262 355.289 11.5495 355.028C11.7942 354.734 12.1133 354.35 12.5104 353.871C13.3632 352.824 14.5484 351.368 16.0005 349.585C17.4969 347.799 19.3177 345.698 21.5646 343.596C22.6842 342.55 23.9426 341.519 25.1728 340.369C26.4113 339.231 27.6626 338.021 28.9474 336.789C31.5133 334.321 33.993 332.005 36.4426 330.144C38.8884 328.28 41.2875 326.867 43.4159 325.936C45.544 325.002 47.375 324.519 48.6533 324.286C49.9334 324.053 50.6564 324.017 50.6529 323.974C50.6524 323.96 50.4716 323.964 50.1277 323.983C49.7821 323.993 49.2775 324.048 48.6278 324.137C47.3325 324.325 45.4714 324.772 43.3062 325.683C41.1424 326.591 38.7036 327.994 36.2262 329.858C33.7441 331.719 31.2453 334.038 28.6774 336.508C27.3921 337.741 26.1445 338.951 24.9139 340.089C23.6926 341.237 22.4474 342.267 21.3187 343.335C19.0683 345.467 17.2608 347.597 15.7874 349.41C14.3213 351.231 13.1816 352.738 12.3914 353.777C12.0181 354.274 11.7182 354.673 11.4884 354.979C11.2841 355.256 11.1823 355.406 11.1928 355.414Z" fill="#17282F"/>
<path d="M34.7245 331.101C34.6999 331.101 34.6856 331.461 34.7062 332.11C34.7245 332.76 34.7935 333.698 34.9222 334.851C35.1683 337.162 35.7346 340.32 36.3527 343.796C36.9867 347.267 37.2544 350.453 37.1229 352.756C37.0109 355.061 36.6231 356.45 36.6969 356.466C36.7181 356.472 36.8378 356.132 36.9883 355.499C37.1439 354.867 37.3033 353.935 37.3977 352.774C37.6023 350.448 37.3732 347.213 36.7366 343.729C36.1174 340.245 35.5107 337.108 35.1951 334.817C35.0323 333.673 34.9221 332.744 34.8574 332.1C34.7905 331.456 34.7537 331.099 34.7245 331.101Z" fill="#17282F"/>
<path d="M19.7964 323.581C19.8158 323.653 20.9503 323.325 22.8288 323.116C23.7671 323.004 24.8928 322.962 26.1388 323C27.3836 323.06 28.7484 323.213 30.1551 323.517C31.5589 323.836 32.8611 324.272 34.0153 324.744C35.1611 325.235 36.1641 325.748 36.9672 326.245C38.5825 327.227 39.4718 328.005 39.5202 327.946C39.5376 327.926 39.3259 327.722 38.9247 327.368C38.7269 327.188 38.4778 326.976 38.1682 326.756C37.8621 326.532 37.5237 326.26 37.1136 326.012C36.3186 325.479 35.3137 324.931 34.1561 324.414C32.9906 323.916 31.6678 323.461 30.2395 323.136C28.8076 322.828 27.4166 322.682 26.1501 322.641C24.8831 322.622 23.7407 322.694 22.7946 322.842C22.3183 322.894 21.8969 322.998 21.5243 323.071C21.1508 323.141 20.8356 323.228 20.5802 323.308C20.0673 323.459 19.7894 323.554 19.7964 323.581Z" fill="#17282F"/>
<path d="M50.6137 343.248C50.6396 343.242 50.6061 342.974 50.5208 342.496C50.4358 342.018 50.2999 341.328 50.1142 340.479C49.7371 338.785 49.1739 336.436 48.1817 333.959C47.1915 331.481 45.8785 329.412 44.7252 328.097C44.153 327.435 43.6422 326.944 43.2686 326.629C42.8959 326.314 42.6723 326.162 42.6569 326.18C42.6104 326.232 43.4401 326.923 44.5127 328.273C45.5942 329.612 46.8435 331.66 47.8203 334.105C48.7994 336.549 49.402 338.87 49.8462 340.544C50.2833 342.221 50.5589 343.26 50.6137 343.248Z" fill="#17282F"/>
<path d="M37.0044 315.265C36.9195 315.376 39.4317 316.928 41.7356 319.664C44.0456 322.396 45.153 325.132 45.2771 325.068C45.3193 325.05 45.0906 324.353 44.5697 323.287C44.0486 322.224 43.2037 320.803 42.0335 319.413C40.8597 318.026 39.6014 316.954 38.6409 316.262C37.6784 315.569 37.0293 315.226 37.0044 315.265Z" fill="#17282F"/>
<path d="M76.7434 320.087C77.2652 320.228 77.8145 320.384 78.1878 320.775C78.5614 321.166 78.6614 321.871 78.2485 322.22C78.0081 322.423 77.6683 322.453 77.3538 322.448C76.5474 322.432 75.7447 322.235 75.0232 321.875C74.6903 321.709 74.3601 321.494 74.1878 321.165C74.0154 320.836 74.0587 320.37 74.3686 320.164C74.5932 320.015 75.2756 319.925 75.5447 319.936C76.4564 319.973 76.7434 320.087 76.7434 320.087ZM41.4909 329.53C41.331 330.229 41.175 330.915 41.0202 331.581C40.3034 334.66 40.0048 338.011 40.1636 341.35C41.7257 339.476 43.8324 337.672 47.0936 335.712C50.7294 333.527 54.2161 331.511 58.3096 330.4C59.3943 330.106 60.7664 329.902 61.4543 330.791C62.073 331.59 61.6582 332.831 60.8662 333.46C60.0742 334.088 59.033 334.277 58.0464 334.497C51.1517 336.034 44.8743 340.144 40.6548 345.803C41.1271 348.487 41.9192 351.078 43.0518 353.421C43.5863 351.529 44.5002 349.743 45.7442 348.219C47.8036 345.697 50.7456 343.909 53.9333 343.243C54.6371 343.097 55.4971 343.056 55.9411 343.621C56.4999 344.334 55.9462 345.369 55.3273 346.03C53.4915 347.991 51.0515 349.289 49.1305 351.167C47.2099 353.045 45.2222 356.191 46.2852 358.658C47.4184 360.492 49.0323 361.358 50.9026 362.327C56.4129 365.181 60.167 365.662 64.014 364.572C64.931 361.808 64.8033 358.676 64.2379 355.773C63.5026 351.997 62.1067 348.358 61.6085 344.544C61.5083 343.776 61.4958 342.872 62.0907 342.377C62.5852 341.965 63.3463 342.018 63.9016 342.343C64.4572 342.668 64.8469 343.21 65.1898 343.754C67.1107 346.805 68.0694 350.381 68.4594 353.964C68.7689 356.807 68.7359 359.672 68.632 362.532C70.4332 361.508 72.4157 360.18 74.7303 358.565C75.4635 350.264 73.0049 341.694 67.89 335.104C67.3929 334.464 66.8615 333.822 66.6093 333.052C66.357 332.281 66.4529 331.333 67.0678 330.804C67.9453 330.051 69.3034 330.504 70.2923 331.104C74.3599 333.574 77.0324 337.957 78.1382 342.585C79.1983 347.02 78.9362 351.674 78.0975 356.161C82.3908 352.939 86.5334 348.994 89.6124 344.707C89.0268 342.025 87.8269 339.473 86.2847 337.191C84.2496 334.181 81.6366 331.606 78.8922 329.225C78.5672 328.942 78.2315 328.652 78.0372 328.268C77.843 327.884 77.8243 327.377 78.1101 327.054C78.6155 326.485 79.5486 326.865 80.1767 327.295C85.2363 330.766 89.3017 335.662 91.8002 341.265C94.8952 335.671 95.922 329.691 93.0495 324.087C86.8026 311.896 73.6903 317.252 73.6903 317.252C69.9866 309.431 63.6705 307.621 63.6705 307.621C59.7301 306.877 56.5449 307.145 53.9414 308.129C57.5794 308.877 61.1282 310.057 64.487 311.642C64.87 311.822 65.2596 312.015 65.5475 312.325C65.8351 312.635 66.0031 313.092 65.8603 313.491C65.714 313.898 65.2783 314.145 64.8482 314.191C64.4177 314.238 63.9883 314.12 63.5737 313.996C62.2611 313.604 60.9727 313.135 59.6848 312.666C58.1181 312.096 56.5518 311.526 54.9429 311.094C53.378 310.674 51.7442 310.393 50.1258 310.375C46.5584 313.377 44.5387 318.134 43.1236 323.013C48.9149 321.055 55.3146 320.89 61.1814 322.623C61.6063 322.748 62.0994 322.961 62.1698 323.398C62.263 323.978 61.5552 324.332 60.9788 324.445C58.2801 324.972 55.492 324.518 52.748 324.688C48.5886 324.944 44.5409 326.693 41.4909 329.53Z" fill="#4D935A"/>
<path d="M51.0705 362.002C56.4348 364.781 60.059 365.26 63.7232 364.272C64.495 361.805 64.4375 359.03 63.9783 356.384L63.8791 355.844C63.5147 353.972 62.987 352.135 62.4816 350.269C62.0411 348.641 61.6188 346.996 61.3509 345.314L61.2454 344.591C61.1939 344.196 61.1607 343.738 61.2272 343.303C61.2859 342.92 61.4264 342.531 61.7212 342.223L61.8565 342.097C62.5079 341.554 63.4474 341.654 64.0866 342.028L64.0854 342.028C64.5646 342.308 64.9267 342.721 65.2229 343.142L65.4994 343.559C67.3366 346.477 68.3041 349.854 68.7423 353.246L68.8233 353.925C69.1116 356.574 69.1026 359.237 69.0181 361.884C70.6152 360.94 72.3674 359.765 74.3784 358.364C75.0346 350.463 72.7742 342.328 68.0678 335.945L67.601 335.328C67.1792 334.785 66.6819 334.183 66.3789 333.475L66.2611 333.166C65.9999 332.368 66.0523 331.327 66.693 330.656L66.8292 330.527C67.3773 330.056 68.0601 329.981 68.698 330.085C69.2533 330.177 69.806 330.408 70.2824 330.675L70.4825 330.792C74.6522 333.324 77.37 337.801 78.4928 342.5L78.494 342.5C79.497 346.695 79.3308 351.071 78.6207 355.302C82.5791 352.24 86.3538 348.578 89.2172 344.626C88.6685 342.22 87.6185 339.915 86.2632 337.82L85.9821 337.395C84.2241 334.795 82.0241 332.518 79.6698 330.4L78.6525 329.501C78.378 329.262 78.0405 328.975 77.8048 328.599L77.7106 328.433C77.491 327.999 77.4241 327.371 77.7628 326.903L77.8364 326.811C78.21 326.39 78.7281 326.35 79.1714 326.441C79.5019 326.51 79.83 326.657 80.1149 326.823L80.3836 326.993C85.2959 330.363 89.2788 335.061 91.8241 340.444C94.5181 335.279 95.3592 329.866 92.9753 324.767L92.7242 324.254C89.6728 318.299 84.9675 316.643 81.0106 316.463C79.0242 316.372 77.2245 316.654 75.9201 316.961C75.2686 317.114 74.7423 317.273 74.3804 317.393C74.1997 317.453 74.0599 317.503 73.9663 317.538C73.92 317.555 73.8849 317.568 73.8617 317.577C73.8503 317.582 73.8413 317.585 73.8358 317.587C73.8331 317.588 73.8308 317.59 73.8296 317.59L73.8287 317.59L73.5076 317.721L73.3601 317.408C71.5393 313.563 69.0796 311.203 67.0816 309.803C66.0821 309.104 65.1975 308.644 64.5656 308.361C64.2497 308.219 63.997 308.12 63.8252 308.058C63.7394 308.027 63.6735 308.005 63.6302 307.992C63.6088 307.985 63.5928 307.98 63.5826 307.977C60.3325 307.365 57.624 307.459 55.3464 308.065C58.5464 308.82 61.6676 309.908 64.6412 311.311L64.6424 311.31C64.9723 311.465 65.361 311.653 65.6825 311.944L65.8159 312.076C66.1388 312.424 66.3773 312.97 66.2375 313.507L66.205 313.615L66.2041 313.614C65.9947 314.197 65.4032 314.5 64.8871 314.555L64.8861 314.555C64.5016 314.596 64.1268 314.527 63.7911 314.438L63.4688 314.346C62.4754 314.049 61.4967 313.71 60.5268 313.361L59.5597 313.01C58.1866 312.511 56.8274 312.016 55.4432 311.614L54.8483 311.447C53.3482 311.045 51.7927 310.777 50.2564 310.745C46.9989 313.544 45.0568 317.877 43.6723 322.451C49.171 320.734 55.1654 320.591 60.7266 322.113L61.285 322.272C61.5086 322.338 61.7802 322.434 62.0114 322.589C62.2165 322.725 62.4164 322.927 62.5015 323.212L62.5311 323.341C62.6078 323.818 62.3389 324.173 62.0426 324.392C61.8221 324.554 61.5547 324.669 61.2989 324.743L61.0495 324.804L61.0486 324.804C59.6593 325.075 58.2551 325.093 56.8731 325.066C55.6542 325.043 54.463 324.987 53.2784 325.029L52.7704 325.053C48.733 325.302 44.8007 326.989 41.8217 329.724L41.3767 331.664C40.7336 334.426 40.4311 337.413 40.4977 340.412C41.9131 338.869 43.7399 337.362 46.3023 335.767L46.9054 335.399C50.3127 333.351 53.6248 331.428 57.4436 330.268L58.2142 330.047C58.767 329.897 59.4244 329.761 60.0458 329.787C60.6321 329.811 61.2297 329.982 61.66 330.466L61.744 330.567C62.1394 331.078 62.1891 331.713 62.0436 332.28C61.9166 332.775 61.6357 333.248 61.2599 333.602L61.0938 333.747C60.4391 334.266 59.6332 334.509 58.8692 334.688L58.1262 334.854C51.3697 336.36 45.2107 340.372 41.0439 345.896C41.4559 348.174 42.0999 350.378 42.9893 352.412C43.5111 350.93 44.2634 349.528 45.2254 348.284L45.461 347.988C47.4413 345.563 50.2153 343.8 53.2486 343.026L53.8588 342.885C54.2279 342.808 54.6629 342.753 55.0775 342.802C55.4427 342.845 55.8187 342.973 56.1094 343.261L56.2286 343.395C56.6116 343.884 56.591 344.464 56.4223 344.962C56.2755 345.395 56.0061 345.808 55.7185 346.142L55.5947 346.28C54.6518 347.287 53.5577 348.119 52.4795 348.923C51.5292 349.631 50.5929 350.315 49.7446 351.091L49.3859 351.429C48.4493 352.344 47.5027 353.565 46.9217 354.843C46.3425 356.118 46.1504 357.397 46.6124 358.491C47.5504 359.996 48.8295 360.814 50.3841 361.642L51.0705 362.002ZM77.3463 322.813C76.5935 322.798 75.8437 322.636 75.1519 322.338L74.8595 322.202C74.5566 322.052 74.1967 321.835 73.9582 321.491L73.8636 321.335C73.7408 321.1 73.6959 320.822 73.7355 320.562C73.7704 320.334 73.8753 320.099 74.0749 319.928L74.1664 319.86C74.2692 319.791 74.3969 319.745 74.507 319.713C74.6239 319.679 74.7529 319.651 74.878 319.63C75.062 319.598 75.2578 319.577 75.4158 319.571L75.5597 319.571C76.0287 319.59 76.3451 319.629 76.55 319.665C76.6524 319.684 76.7274 319.701 76.7802 319.716C76.8066 319.723 76.8279 319.73 76.8439 319.735C76.8498 319.737 76.8551 319.738 76.8597 319.74C77.3292 319.867 77.9225 320.03 78.3646 320.436L78.4525 320.522C78.6998 320.78 78.8514 321.135 78.8776 321.485C78.9007 321.794 78.8266 322.132 78.5941 322.392L78.4848 322.499C78.2206 322.722 77.8927 322.791 77.61 322.809L77.3472 322.813L77.3463 322.813Z" stroke="black" stroke-opacity="0.1" stroke-width="0.731644"/>
<path d="M53.0551 363.489C53.06 363.49 53.0725 363.447 53.0923 363.363C53.1144 363.261 53.1408 363.138 53.1736 362.986C53.2377 362.654 53.3428 362.166 53.4798 361.539C53.7572 360.285 54.2163 358.483 54.8919 356.289C55.5673 354.093 56.4716 351.512 57.503 348.653C58.5214 345.79 59.6976 342.667 61.0834 339.448C63.8567 333.007 66.8807 327.414 69.2086 323.455C70.3655 321.47 71.3502 319.892 72.026 318.799C72.3561 318.27 72.6176 317.851 72.8095 317.544C72.8888 317.41 72.954 317.302 73.007 317.213C73.0504 317.137 73.0704 317.098 73.0664 317.094C73.0625 317.092 73.0342 317.126 72.9828 317.196C72.9228 317.282 72.8502 317.385 72.7611 317.511C72.5582 317.812 72.2814 318.221 71.932 318.739C71.2269 319.814 70.2151 321.377 69.0341 323.351C66.6587 327.289 63.5996 332.88 60.8201 339.334C59.4315 342.559 58.2588 345.696 57.2541 348.565C56.2362 351.429 55.3499 354.022 54.698 356.23C54.0454 358.437 53.6151 360.252 53.3706 361.516C53.2499 362.148 53.1626 362.64 53.1166 362.976C53.0953 363.13 53.0779 363.255 53.0635 363.358C53.0531 363.444 53.0503 363.488 53.0551 363.489Z" fill="#17282F"/>
<path d="M63.1592 334.53C63.151 334.536 63.1986 334.624 63.2968 334.788C63.4146 334.977 63.5604 335.21 63.7376 335.495C64.1514 336.138 64.7115 337.01 65.3933 338.07C66.7628 340.252 68.7283 343.266 70.1267 346.942C70.7833 348.789 71.3277 350.598 71.7201 352.25C72.1094 353.907 72.2633 355.437 72.247 356.722C72.2214 358.007 72.0668 359.042 71.9298 359.749C71.7932 360.457 71.7017 360.847 71.7254 360.853C71.7349 360.856 71.7679 360.761 71.8227 360.578C71.873 360.395 71.9636 360.127 72.0389 359.772C72.2104 359.068 72.3975 358.028 72.4498 356.727C72.4928 355.426 72.3568 353.868 71.9779 352.192C71.594 350.514 71.0601 348.713 70.3952 346.842C68.98 343.124 66.9777 340.117 65.5633 337.959C64.8442 336.883 64.2466 336.024 63.8303 335.432C63.635 335.16 63.4749 334.936 63.3448 334.755C63.2311 334.602 63.1676 334.524 63.1592 334.53Z" fill="#17282F"/>
<path d="M53.3758 339.246C53.393 339.284 53.8988 339.088 54.7142 338.77C55.5291 338.452 56.6572 338.021 57.9153 337.578C59.1294 337.165 60.2277 336.791 61.1522 336.477C61.9821 336.196 62.492 336.01 62.4808 335.971C62.4696 335.934 61.9393 336.051 61.093 336.282C60.2469 336.514 59.0845 336.863 57.8199 337.307C56.556 337.752 55.4331 338.216 54.6351 338.583C53.8368 338.95 53.3601 339.212 53.3758 339.246Z" fill="#17282F"/>
<path d="M55.345 326.65C55.3475 326.692 55.9928 326.682 57.0329 326.682C58.0732 326.682 59.5091 326.705 61.0906 326.814C62.6724 326.925 64.098 327.1 65.1283 327.244C66.1586 327.388 66.796 327.487 66.8045 327.446C66.8119 327.409 66.1878 327.24 65.1613 327.044C64.1349 326.849 62.7032 326.64 61.1106 326.528C59.5182 326.419 58.0715 326.427 57.028 326.48C55.9844 326.531 55.3424 326.613 55.345 326.65Z" fill="#17282F"/>
<path d="M67.8784 325.532C67.8703 325.553 68.1929 325.688 68.7676 325.945C69.3423 326.201 70.1635 326.598 71.1311 327.168C73.0692 328.292 75.5456 330.245 77.6289 332.974C79.7306 335.687 80.9589 338.594 81.5725 340.748C81.8854 341.827 82.0731 342.719 82.1844 343.338C82.2963 343.958 82.3504 344.304 82.3732 344.301C82.3827 344.299 82.3814 344.212 82.3691 344.046C82.3536 343.88 82.3407 343.635 82.2952 343.321C82.2169 342.694 82.0587 341.789 81.768 340.694C81.1993 338.507 79.9852 335.547 77.8557 332.798C75.7491 330.038 73.2147 328.081 71.2325 326.992C70.2421 326.44 69.4017 326.068 68.8106 325.842C68.5179 325.722 68.282 325.651 68.1248 325.597C67.9666 325.545 67.8817 325.523 67.8784 325.532Z" fill="#17282F"/>
<path d="M52.7282 317.304C52.7264 317.324 52.9712 317.369 53.415 317.433C53.8585 317.495 54.4993 317.594 55.2878 317.729C56.8644 317.998 59.0282 318.464 61.349 319.215C63.6691 319.971 65.694 320.865 67.1281 321.574C67.8453 321.928 68.4219 322.224 68.817 322.436C69.2135 322.644 69.4384 322.751 69.4484 322.734C69.4585 322.717 69.253 322.577 68.8723 322.338C68.4932 322.097 67.9294 321.772 67.2203 321.393C65.8032 320.635 63.7752 319.704 61.4375 318.942C59.0993 318.185 56.9113 317.748 55.3193 317.528C54.5227 317.418 53.8759 317.35 53.4271 317.323C52.9784 317.292 52.7301 317.284 52.7282 317.304Z" fill="#17282F"/>
<path d="M91.0352 326.559C91.0538 326.546 90.8889 326.295 90.5671 325.856C90.4122 325.632 90.2049 325.371 89.9539 325.076C89.713 324.773 89.4131 324.451 89.0762 324.098C87.737 322.69 85.5907 320.967 82.8395 319.793C80.0958 318.595 77.3588 318.257 75.4225 318.24C74.4513 318.219 73.6665 318.217 73.1237 318.221C72.5809 318.226 72.2808 318.239 72.2804 318.258C72.2798 318.279 72.5794 318.303 73.1213 318.333C73.715 318.361 74.4863 318.398 75.4149 318.443C77.3413 318.512 80.0213 318.876 82.7261 320.057C85.436 321.213 87.5694 322.883 88.9322 324.241C89.2753 324.58 89.5823 324.891 89.8333 325.182C90.0935 325.464 90.312 325.712 90.4791 325.925C90.8263 326.34 91.0217 326.569 91.0352 326.559Z" fill="#17282F"/>
<path d="M65.0253 311.556C65.0047 311.597 65.4949 311.866 66.2413 312.364C66.9888 312.861 67.9785 313.611 68.9743 314.551C69.9686 315.493 70.7821 316.433 71.3471 317.133C71.9127 317.832 72.2437 318.282 72.2801 318.258C72.3097 318.239 72.0376 317.747 71.5081 317.009C70.9797 316.272 70.1799 315.298 69.171 314.343C68.1611 313.389 67.1343 312.651 66.3494 312.193C65.5649 311.732 65.0395 311.526 65.0253 311.556Z" fill="#17282F"/>
<path d="M115.448 304.931C115.448 305.389 119.17 336.738 108.214 349.541C105.939 352.643 103.007 355.977 99.6994 359.448V360.587H89.4548V304.931H115.448Z" fill="#1C2C40"/>
<path d="M65.9426 304.931C65.9426 305.389 62.2207 336.738 73.1766 349.541C75.4518 352.643 78.384 355.977 81.6919 359.448V360.587H91.936V304.931H65.9426Z" fill="#1C2C40"/>
<path d="M81.9374 359.753C81.9374 359.595 85.9495 359.467 90.897 359.467C95.8463 359.467 99.8578 359.595 99.8578 359.753C99.8578 359.91 95.8463 360.038 90.897 360.038C85.9495 360.038 81.9374 359.91 81.9374 359.753Z" fill="#17282F"/>
<path d="M65.4322 312.392C65.4322 312.234 76.7661 312.107 90.7437 312.107C104.726 312.107 116.057 312.234 116.057 312.392C116.057 312.549 104.726 312.677 90.7437 312.677C76.7661 312.677 65.4322 312.549 65.4322 312.392Z" fill="#17282F"/>
<path d="M65.4322 315.135C65.4322 314.977 76.7661 314.849 90.7437 314.849C104.726 314.849 116.057 314.977 116.057 315.135C116.057 315.293 104.726 315.42 90.7437 315.42C76.7661 315.42 65.4322 315.293 65.4322 315.135Z" fill="#17282F"/>
<path d="M65.4322 317.826C65.4322 317.669 76.7661 317.541 90.7437 317.541C104.726 317.541 116.057 317.669 116.057 317.826C116.057 317.985 104.726 318.112 90.7437 318.112C76.7661 318.112 65.4322 317.985 65.4322 317.826Z" fill="#17282F"/>
<path d="M118.724 329.928C115.647 329.215 112.496 329.222 109.396 329.363C107.879 329.432 106.366 329.533 104.858 329.664C104.192 329.722 103.763 328.903 104.222 328.443C105.695 326.969 108.118 326.408 110.345 326.214C114.535 325.848 118.831 326.197 123.004 327.213C121.931 325.758 120.595 324.522 118.94 323.246C116.235 321.159 112.495 319.038 108.518 318.104C108.418 318.164 108.317 318.224 108.219 318.286C106.06 319.637 104.139 321.356 101.817 322.432C101.529 322.565 101.221 322.691 100.894 322.666C100.567 322.642 100.219 322.42 100.153 322.098C100.085 321.764 100.325 321.474 100.554 321.242C101.927 319.848 103.484 318.634 105.173 317.627C102.419 317.506 99.6583 318.093 97.1413 319.778C89.9002 324.629 92.9979 328.609 92.9979 328.609C92.6239 328.491 86.0301 327.051 82.0476 334.788C79.2906 340.144 79.5953 344.475 81.6509 347.889C81.9145 347.106 82.2032 346.333 82.4926 345.576C83.4972 342.946 84.5098 340.3 85.9836 337.923C87.4579 335.546 89.4357 333.428 91.9805 332.224C92.3909 332.03 92.8896 331.864 93.3087 332.095C93.7473 332.338 93.8866 332.932 93.7518 333.389C93.6176 333.846 93.2812 334.2 92.9637 334.548C88.5636 339.364 86.1923 345.978 86.3849 352.703C88.358 354.109 91.4753 356.045 95.2516 357.789C94.5791 354.474 93.9634 351.133 94.0208 347.805C94.0833 344.155 95.0236 340.469 97.3307 337.773C97.6515 337.399 98.0221 337.03 98.5128 336.916C99.5242 336.682 100.562 337.692 100.77 338.733C100.978 339.774 100.611 340.796 100.269 341.765C99.1676 344.889 98.273 348.124 98.0376 351.479C97.8548 354.082 98.0878 356.771 98.8908 359.313C100.952 360.088 103.139 360.759 105.394 361.237C104.811 356.024 105.147 350.77 106.396 345.796C106.532 345.256 106.737 344.651 107.262 344.466C107.844 344.259 108.536 344.722 108.811 345.305C109.087 345.887 109.054 346.544 109.009 347.167C108.782 350.294 108.382 353.446 108.938 356.585C109.276 358.49 110.042 360.419 111.235 361.978C115.151 362.121 119.112 361.5 122.83 359.68C122.83 359.68 124.406 357.874 125.597 354.028C122.691 351.098 119.381 348.565 115.803 346.538C115.326 346.269 114.789 345.934 114.693 345.407C114.577 344.761 115.263 344.251 115.917 344.285C116.571 344.318 117.165 344.717 117.717 345.101C120.588 347.094 123.458 349.088 126.328 351.082C126.643 349.427 126.856 347.518 126.892 345.352C122.572 340.893 116.63 338.013 110.6 337.477C109.993 337.422 109.361 337.385 108.813 337.088C108.265 336.793 107.834 336.145 108.01 335.58C108.199 334.976 108.931 334.774 109.571 334.706C113.318 334.309 117.213 335.687 120.465 337.859C122.859 339.458 124.948 341.466 126.884 343.612C126.875 343.318 126.866 343.023 126.851 342.72C126.659 338.795 126.3 335.774 125.71 333.336C123.733 331.623 121.246 330.512 118.724 329.928Z" fill="#4D935A"/>
<path d="M122.614 359.367C122.656 359.315 122.719 359.233 122.799 359.123C122.958 358.903 123.186 358.567 123.451 358.112C123.961 357.236 124.608 355.917 125.18 354.13C122.515 351.471 119.516 349.145 116.285 347.24L115.622 346.857C115.384 346.722 115.1 346.554 114.862 346.342C114.652 346.156 114.457 345.915 114.366 345.608L114.333 345.472C114.246 344.991 114.466 344.579 114.779 344.312C115.049 344.082 115.409 343.937 115.778 343.919L115.935 343.919C116.517 343.949 117.045 344.221 117.498 344.512L117.926 344.8C120.641 346.685 123.355 348.572 126.069 350.457C126.318 348.995 126.484 347.343 126.522 345.499C122.404 341.299 116.823 338.543 111.124 337.898L110.569 337.841L110.567 337.841C110.059 337.796 109.445 337.76 108.879 337.524L108.639 337.41C108.307 337.231 108.012 336.947 107.823 336.617C107.658 336.329 107.56 335.979 107.624 335.624L107.661 335.472C107.796 335.04 108.122 334.773 108.465 334.611C108.72 334.492 109.003 334.42 109.271 334.377L109.532 334.343C113.15 333.959 116.874 335.181 120.042 337.151L120.668 337.555C122.819 338.992 124.721 340.752 126.48 342.635C126.29 338.832 125.942 335.903 125.381 333.538C123.594 332.017 121.383 330.987 119.105 330.398L118.641 330.285C115.993 329.671 113.282 329.597 110.573 329.683L109.413 329.729C108.279 329.781 107.147 329.849 106.018 329.936L104.889 330.029C104.388 330.073 103.985 329.782 103.794 329.417C103.615 329.073 103.6 328.612 103.899 328.255L103.963 328.184C105.435 326.711 107.76 326.12 109.89 325.891L110.313 325.85C114.201 325.51 118.177 325.783 122.063 326.624C121.281 325.708 120.376 324.861 119.317 324.008L118.717 323.536C116.073 321.497 112.437 319.432 108.577 318.496L108.414 318.595L108.413 318.596C107.345 319.265 106.343 320.019 105.29 320.761C104.376 321.405 103.433 322.033 102.413 322.549L101.971 322.764C101.72 322.88 101.393 323.023 101.026 323.035L100.866 323.032C100.634 323.014 100.401 322.928 100.211 322.79C100.044 322.669 99.8934 322.494 99.821 322.271L99.7951 322.173L99.7952 322.171C99.7387 321.893 99.8149 321.647 99.9228 321.453C99.9753 321.36 100.038 321.273 100.102 321.194L100.293 320.985C101.394 319.867 102.613 318.867 103.919 317.991C101.817 318.072 99.7424 318.609 97.8053 319.788L97.3445 320.082C93.7816 322.469 92.8379 324.589 92.7193 326.042C92.6593 326.777 92.807 327.37 92.9677 327.777C93.0481 327.981 93.1309 328.138 93.1927 328.241C93.2235 328.293 93.2496 328.331 93.2663 328.355C93.2746 328.367 93.2809 328.376 93.2845 328.381L93.2874 328.386L94.0095 329.313L92.8875 328.957C92.7566 328.916 91.0868 328.535 88.9714 329.106C86.9417 329.655 84.4756 331.086 82.5566 334.608L82.3729 334.955C79.8532 339.85 79.9559 343.82 81.5751 346.997C81.6229 346.863 81.6699 346.729 81.7185 346.597L82.1512 345.445C83.0909 342.985 84.0492 340.477 85.3972 338.185L85.6727 337.73C87.0769 335.466 88.9446 333.41 91.338 332.137L91.8242 331.893C92.2037 331.714 92.8082 331.477 93.3735 331.72L93.4857 331.776C94.0809 332.105 94.249 332.829 94.1306 333.384L94.1027 333.492C93.9807 333.908 93.7225 334.247 93.4742 334.53L93.2337 334.795C88.9404 339.494 86.6055 345.939 86.7481 352.511C88.5928 353.812 91.3843 355.544 94.7509 357.15C94.1774 354.272 93.6733 351.352 93.652 348.431L93.6554 347.799C93.7169 344.214 94.6128 340.555 96.8339 337.8L97.0527 337.536L97.0528 337.535C97.3556 337.182 97.7595 336.76 98.3166 336.591L98.4301 336.56C99.0839 336.408 99.7121 336.666 100.181 337.068C100.592 337.421 100.916 337.913 101.072 338.436L101.129 338.662C101.302 339.53 101.113 340.376 100.867 341.146L100.614 341.887C99.5862 344.802 98.7459 347.797 98.4537 350.886L98.4029 351.505C98.2269 354.012 98.4436 356.592 99.1882 359.033C101.034 359.72 102.979 360.319 104.98 360.77C104.501 356.01 104.779 351.225 105.816 346.651L106.041 345.707C106.11 345.432 106.205 345.107 106.363 344.821C106.503 344.568 106.706 344.323 107.006 344.177L107.14 344.12C107.561 343.971 107.992 344.074 108.335 344.273C108.635 344.447 108.898 344.711 109.073 345.016L109.142 345.148C109.383 345.659 109.418 346.21 109.402 346.711L109.374 347.193C109.16 350.152 108.801 353.053 109.207 355.943L109.298 356.521C109.618 358.322 110.329 360.136 111.423 361.618C115.21 361.733 119.022 361.12 122.602 359.384C122.606 359.379 122.61 359.373 122.614 359.367Z" stroke="black" stroke-opacity="0.1" stroke-width="0.731644"/>
<path d="M122.831 359.68C122.842 359.673 122.771 359.534 122.625 359.277C122.455 358.985 122.24 358.614 121.974 358.158C121.401 357.191 120.574 355.789 119.5 354.088C118.419 352.391 117.086 350.391 115.385 348.332C114.531 347.301 113.58 346.286 112.657 345.178C111.725 344.076 110.785 342.913 109.814 341.725C107.877 339.348 105.984 337.105 104.069 335.241C102.159 333.378 100.246 331.894 98.5126 330.853C96.781 329.809 95.256 329.185 94.1783 328.852C93.6371 328.691 93.2149 328.576 92.9224 328.522C92.6324 328.46 92.4783 328.435 92.4757 328.448C92.4658 328.486 93.0747 328.622 94.1298 328.995C95.1838 329.369 96.674 330.025 98.3677 331.088C100.063 332.146 101.938 333.636 103.818 335.497C105.702 337.358 107.576 339.596 109.513 341.972C110.483 343.158 111.427 344.322 112.366 345.424C113.297 346.536 114.261 347.552 115.109 348.562C116.81 350.59 118.161 352.565 119.269 354.237C120.335 355.893 121.208 357.25 121.845 358.238C122.136 358.679 122.372 359.036 122.559 359.318C122.726 359.562 122.819 359.687 122.831 359.68Z" fill="#17282F"/>
<path d="M105.182 336.48C105.154 336.475 105.09 336.764 104.978 337.284C104.868 337.804 104.697 338.555 104.464 339.476C104.008 341.322 103.237 343.834 102.432 346.632C101.612 349.43 101.168 352.068 101.161 353.991C101.151 354.951 101.213 355.727 101.293 356.257C101.371 356.787 101.446 357.075 101.469 357.071C101.54 357.062 101.342 355.893 101.436 354C101.513 352.106 101.991 349.523 102.807 346.738C103.61 343.948 104.343 341.411 104.733 339.539C104.932 338.604 105.063 337.84 105.127 337.309C105.194 336.779 105.207 336.482 105.182 336.48Z" fill="#17282F"/>
<path d="M118.248 332.329C118.259 332.305 118.044 332.187 117.642 331.994C117.244 331.792 116.641 331.556 115.883 331.308C114.366 330.82 112.163 330.389 109.714 330.505C108.493 330.567 107.339 330.753 106.31 331C105.288 331.279 104.38 331.577 103.658 331.924C103.289 332.077 102.972 332.254 102.694 332.404C102.411 332.549 102.178 332.691 101.994 332.818C101.621 333.064 101.423 333.21 101.438 333.232C101.476 333.294 102.307 332.766 103.766 332.177C104.49 331.869 105.389 331.603 106.394 331.349C107.407 331.125 108.537 330.955 109.733 330.895C112.129 330.781 114.29 331.158 115.805 331.573C117.322 331.991 118.22 332.395 118.248 332.329Z" fill="#17282F"/>
<path d="M90.9363 344.304C90.9889 344.322 91.3095 343.51 91.8136 342.198C92.3232 340.89 93.0142 339.072 94.0265 337.196C95.0366 335.319 96.2453 333.798 97.2549 332.839C98.2576 331.869 99.003 331.409 98.9664 331.352C98.953 331.332 98.7533 331.422 98.4138 331.629C98.0748 331.834 97.6044 332.168 97.0675 332.636C95.9888 333.563 94.7122 335.099 93.6842 337.011C92.6544 338.92 91.999 340.769 91.5539 342.105C91.1152 343.445 90.8874 344.287 90.9363 344.304Z" fill="#17282F"/>
<path d="M104.572 323.146C104.553 323.102 103.986 323.286 103.126 323.719C102.27 324.151 101.127 324.858 100.029 325.844C98.9327 326.832 98.109 327.894 97.5903 328.701C97.0707 329.512 96.8293 330.056 96.8706 330.08C96.9835 330.155 98.1395 328.063 100.29 326.133C102.435 324.202 104.635 323.265 104.572 323.146Z" fill="#17282F"/>
<path d="M92.7243 337.136C92.6584 337.115 93.178 335.945 93.4578 333.935C93.7463 331.944 93.6757 329.056 92.5081 326.189C91.3388 323.322 89.3698 321.207 87.7717 319.985C86.1664 318.743 84.9771 318.27 85.0095 318.209C85.0168 318.192 85.3159 318.298 85.8333 318.544C86.3509 318.79 87.0775 319.199 87.908 319.805C89.5645 320.998 91.607 323.135 92.804 326.069C93.998 329.002 94.0311 331.957 93.6808 333.968C93.5109 334.982 93.2776 335.783 93.0786 336.32C92.8808 336.858 92.7408 337.143 92.7243 337.136Z" fill="white"/>
<path d="M132.471 306.739C132.341 306.751 132.159 305.181 131.496 303.374C130.848 301.561 129.983 300.239 130.09 300.165C130.173 300.094 131.229 301.347 131.903 303.227C132.589 305.101 132.58 306.741 132.471 306.739Z" fill="white"/>
<path d="M133.842 320.291C133.723 320.245 134.073 319.295 133.928 318.104C133.808 316.909 133.258 316.06 133.364 315.987C133.439 315.902 134.219 316.727 134.359 318.056C134.514 319.383 133.934 320.359 133.842 320.291Z" fill="white"/>
<path d="M132.082 330.887C131.962 330.858 131.953 330.496 131.903 330.075C131.86 329.654 131.791 329.298 131.901 329.244C132.004 329.189 132.279 329.521 132.333 330.028C132.39 330.534 132.194 330.919 132.082 330.887Z" fill="white"/>
<path d="M80.8197 351.397C80.7598 351.313 82.588 350.18 84.2914 348.197C86.0135 346.23 86.8766 344.26 86.9685 344.308C87.0036 344.323 86.8346 344.834 86.4392 345.606C86.0451 346.379 85.4015 347.402 84.5326 348.406C83.6612 349.408 82.7395 350.19 82.0306 350.689C81.3217 351.19 80.8399 351.43 80.8197 351.397Z" fill="white"/>
<path d="M92.378 334.481C92.2053 334.424 92.0415 334.315 91.8913 334.207C88.6412 331.869 85.8094 328.951 83.5711 325.63C82.9341 324.687 82.337 323.69 82.0706 322.583C81.8542 321.684 81.8833 320.694 82.2634 319.863C82.4176 319.924 82.5717 319.989 82.7259 320.057C85.4358 321.213 87.5692 322.883 88.9321 324.241C89.2751 324.581 89.5821 324.891 89.8331 325.182C90.0933 325.464 90.3119 325.712 90.4789 325.925C90.8117 326.323 91.0052 326.55 91.0325 326.559C91.0337 326.559 91.035 326.559 91.035 326.559C91.0536 326.546 90.8887 326.295 90.5669 325.856C90.412 325.632 90.2047 325.371 89.9537 325.077C89.7128 324.773 89.4129 324.451 89.076 324.098C87.7369 322.691 85.5906 320.967 82.8394 319.793C82.6911 319.728 82.5429 319.666 82.3947 319.607C82.4521 319.506 82.5152 319.409 82.5839 319.316C83.1414 318.558 84.137 318.104 85.0452 318.246C85.2545 318.388 86.3495 318.885 87.7715 319.985C89.3695 321.207 91.3386 323.322 92.5079 326.189C93.5193 328.673 93.7076 331.173 93.552 333.091C93.5181 333.252 93.4799 333.412 93.4375 333.572C93.3288 333.977 93.1279 334.442 92.7147 334.513C92.5997 334.533 92.4873 334.518 92.378 334.481ZM91.2102 323.175C90.1634 321.697 88.9577 320.561 87.9078 319.805C87.0773 319.199 86.3507 318.79 85.8331 318.544C85.6006 318.434 85.4123 318.352 85.2746 318.296C85.3064 318.305 85.3382 318.314 85.3696 318.324C85.4487 318.351 85.5266 318.382 85.6025 318.418C87.9866 319.243 89.8312 321.051 91.2102 323.175Z" fill="#3B7145"/>
<path d="M92.493 334.134C92.5266 334.145 92.5559 334.151 92.582 334.154L92.6515 334.152L92.6524 334.153C92.7249 334.14 92.8023 334.092 92.8845 333.967C92.9686 333.839 93.0341 333.665 93.0844 333.478C93.1232 333.332 93.1573 333.185 93.1886 333.038C93.3278 331.286 93.1731 329.041 92.3448 326.781L92.1689 326.327C91.0289 323.531 89.1061 321.465 87.549 320.275L87.5472 320.275C86.8512 319.736 86.2357 319.345 85.7686 319.072C85.5353 318.935 85.3385 318.828 85.1854 318.745C85.091 318.694 85.0023 318.642 84.9315 318.601C84.2215 318.514 83.4314 318.855 82.9491 319.442C82.961 319.448 82.9733 319.452 82.9852 319.457L82.984 319.458C85.7876 320.655 87.9737 322.409 89.341 323.846L89.3398 323.846C89.6731 324.195 89.9815 324.524 90.2325 324.839C90.484 325.134 90.697 325.404 90.8613 325.64L90.8625 325.64C91.0247 325.861 91.15 326.04 91.2337 326.166C91.2746 326.227 91.3104 326.283 91.3354 326.328C91.3467 326.348 91.3633 326.38 91.3764 326.415C91.382 326.43 91.3952 326.469 91.4001 326.518C91.4021 326.538 91.423 326.732 91.2468 326.857L91.1753 326.908L91.0876 326.922L91.0867 326.921L91.0855 326.922L91.0824 326.922C91.081 326.922 91.0795 326.922 91.078 326.923C91.0746 326.923 91.0704 326.924 91.0663 326.924C91.0581 326.925 91.0472 326.925 91.0351 326.925C91.0253 326.925 91.0091 326.924 90.9888 326.922L90.9177 326.907C90.8559 326.886 90.8135 326.853 90.8058 326.847C90.7899 326.835 90.7765 326.824 90.7677 326.816C90.7497 326.799 90.731 326.78 90.7151 326.764C90.6825 326.729 90.6417 326.683 90.5944 326.628L90.1979 326.159L90.1914 326.151C90.1124 326.051 90.0199 325.94 89.9152 325.82L89.5637 325.43L89.5566 325.421C89.3161 325.142 89.0181 324.841 88.6749 324.501L88.6743 324.5C87.3374 323.168 85.2412 321.527 82.5823 320.393L82.5786 320.392C82.5427 320.376 82.506 320.362 82.4701 320.347C82.2863 320.918 82.2577 321.559 82.3615 322.181L82.4264 322.497C82.6453 323.407 83.1052 324.249 83.641 325.073L83.8741 325.426C86.0881 328.71 88.8902 331.597 92.1052 333.91L92.104 333.911C92.2544 334.018 92.3787 334.096 92.493 334.134Z" stroke="black" stroke-opacity="0.1" stroke-width="0.731644"/>
<path d="M91.0322 326.559C91.0049 326.55 90.8114 326.323 90.4786 325.925C90.3115 325.712 90.093 325.464 89.8328 325.182C89.5818 324.891 89.2748 324.58 88.9317 324.24C87.5689 322.883 85.4355 321.213 82.7256 320.057C82.5714 319.989 82.4173 319.924 82.2631 319.862C82.3031 319.775 82.3468 319.689 82.3944 319.606C82.5426 319.666 82.6908 319.728 82.839 319.793C85.5902 320.967 87.7365 322.69 89.0757 324.098C89.4126 324.45 89.7125 324.773 89.9534 325.076C90.2044 325.371 90.4117 325.632 90.5666 325.856C90.8884 326.295 91.0533 326.546 91.0347 326.559C91.0347 326.559 91.0334 326.559 91.0322 326.559Z" fill="#57666B"/>
<path d="M93.5523 333.091C93.7079 331.173 93.5196 328.673 92.5081 326.189C91.3388 323.321 89.3698 321.206 87.7717 319.985C86.3498 318.884 85.2548 318.387 85.0454 318.246C85.1227 318.258 85.1991 318.275 85.2749 318.295C85.4126 318.351 85.6008 318.434 85.8334 318.544C86.3509 318.789 87.0775 319.199 87.9081 319.805C88.958 320.561 90.1636 321.697 91.2105 323.175C91.5081 323.633 91.7835 324.105 92.0388 324.586C93.3991 327.148 94.1487 330.255 93.5523 333.091Z" fill="white"/>
<path d="M198.112 311.134L174 359.328L182.522 361.503L214.86 315.086L198.112 311.134Z" fill="#3B7145"/>
<path d="M209.296 323.071L194.198 318.956L194.199 318.955L196.748 313.859C197.687 314.674 198.825 315.286 200.109 315.614L212.32 318.731L209.297 323.071L209.296 323.071Z" fill="#3B7145"/>
<path d="M332.976 308.123L344.183 360.586H335.307L315.771 307.809L332.976 308.123Z" fill="#4D935A"/>
<path d="M251.073 309.991L270.233 360.287L261.351 361.566L234 312.133L251.073 309.991Z" fill="#4D935A"/>
<path d="M280.225 308.123L268.783 360.783H277.578L297.429 307.809L280.225 308.123Z" fill="#3B7145"/>
<path d="M259.688 127.257C259.688 127.257 239.164 129.757 241.424 151.177C243.685 172.598 264.108 205.185 264.282 214.971C264.456 224.756 193.267 214.599 184.835 214.671C176.402 214.744 168.96 223.153 170.389 231.854C171.568 239.027 184.355 302.004 188.974 324.903C189.852 329.256 194.018 332.133 198.4 331.413L293.074 315.862L312.007 254.21C312.007 254.21 358.192 188.941 358.052 188.092C357.913 187.243 340.993 107.614 340.993 107.614L270.77 125.219L259.688 127.257Z" fill="#55A363"/>
<path d="M301.95 284.985L291.464 282.939L305.73 254.203C305.73 254.203 332.37 227.198 348.952 210.109C348.546 220.171 348.4 226.999 348.72 227.521C350.049 229.685 301.95 284.985 301.95 284.985ZM282.946 120.29C282.957 120.273 282.963 120.266 282.963 120.266L343.383 115.464L285.946 120.232L282.946 120.29Z" fill="#A7A9A8"/>
<path d="M302.589 284.879L280.322 284.21L280.331 283.742L278.161 284.146L208.503 282.055L206.508 269.908L201.147 237.27C200.546 233.61 203.128 230.298 206.651 229.719C207.192 229.63 207.755 229.606 208.333 229.654C223.203 230.909 253.593 233.004 268.132 230.616C271.431 230.074 273.913 229.301 275.214 228.236C275.214 228.236 280.332 222.852 279.39 211.867C278.449 200.882 264.061 172.422 261.193 156.922C258.843 144.222 267.437 126.539 267.819 125.762L270.77 125.219L326.675 111.203L337.1 108.629C337.1 108.629 343.634 172.211 347.511 203.694C333.918 223.245 312.007 254.21 312.007 254.21L302.589 284.879Z" fill="#44824F"/>
<path d="M280.057 297.521C278.69 297.588 191.688 308.098 191.688 308.098L189.951 300.537L278.161 284.146L280.321 284.21L280.057 297.521Z" fill="#44824F"/>
<path d="M269.6 278.669L267.478 278.256L269.685 278.209L269.6 278.669Z" fill="#862B2C"/>
<path d="M196.018 331.156C196.046 331.151 195.992 330.716 195.87 329.935C195.728 329.083 195.541 327.972 195.317 326.636C194.832 323.853 194.137 320.013 193.315 315.782C192.493 311.549 191.689 307.729 191.064 304.973C190.752 303.595 190.488 302.483 190.293 301.717C190.099 300.951 189.978 300.531 189.951 300.537C189.923 300.543 189.99 300.975 190.136 301.752C190.301 302.6 190.517 303.704 190.778 305.033C191.338 307.876 192.084 311.668 192.909 315.861C193.73 320.054 194.473 323.847 195.03 326.69C195.306 328.017 195.535 329.119 195.712 329.965C195.882 330.737 195.99 331.161 196.018 331.156Z" fill="#17282F"/>
<path d="M335.351 319.053H335.311L333.944 312.655H333.961L335.351 319.053Z" fill="#A7A9A8"/>
<path d="M335.31 319.053H319.984L317.587 312.655H333.943L335.31 319.053Z" fill="#3B7145"/>
<path d="M202.754 271.76C202.739 271.763 202.692 271.533 202.615 271.096C202.536 270.618 202.431 269.979 202.299 269.178C202.036 267.466 201.668 265.064 201.216 262.113C200.338 256.104 199.134 247.875 197.805 238.783C197.109 234.234 196.699 229.842 195.554 226.041C194.985 224.146 194.229 222.408 193.27 220.937C192.338 219.451 191.133 218.306 189.938 217.422C187.494 215.673 184.992 215.201 183.338 215.292C181.665 215.415 180.811 215.872 180.793 215.809C180.787 215.795 181.001 215.702 181.418 215.538C181.834 215.381 182.478 215.215 183.327 215.124C185.012 214.978 187.592 215.413 190.114 217.173C191.349 218.06 192.6 219.223 193.571 220.741C194.565 222.236 195.348 224.006 195.937 225.925C197.118 229.781 197.537 234.177 198.234 238.721C199.514 247.82 200.673 256.056 201.519 262.07C201.915 265.028 202.236 267.438 202.466 269.154C202.564 269.961 202.642 270.603 202.701 271.083C202.751 271.525 202.769 271.759 202.754 271.76Z" fill="#17282F"/>
<path d="M180.942 246.392C180.082 246.532 179.199 246.413 178.477 245.934C177.583 245.34 177.083 244.321 176.646 243.341C174.701 238.974 173.184 234.261 173.527 229.493C173.87 224.725 176.397 219.889 180.73 217.872C181.135 217.637 181.594 217.486 182.086 217.405C184.251 217.05 187.044 218.064 188.57 219.443C190.442 221.136 191.323 223.729 191.372 226.254C191.422 228.777 190.721 231.257 189.847 233.625C188.731 236.648 187.321 239.562 185.644 242.313C184.862 243.596 183.987 244.879 182.727 245.696C182.193 246.043 181.574 246.288 180.942 246.392Z" fill="#44824F"/>
<path d="M257.846 221.182C257.846 221.197 257.647 221.215 257.268 221.235C256.845 221.253 256.294 221.277 255.609 221.306C254.167 221.361 252.082 221.408 249.504 221.44C244.348 221.504 237.221 221.461 229.359 221.162C221.493 220.86 214.384 220.358 209.248 219.9C206.68 219.671 204.603 219.465 203.171 219.3C202.49 219.219 201.943 219.153 201.523 219.104C201.146 219.053 200.949 219.021 200.951 219.005C200.952 218.991 201.152 218.995 201.531 219.016C201.953 219.046 202.503 219.084 203.187 219.133C204.674 219.245 206.741 219.402 209.273 219.595C214.411 219.974 221.516 220.427 229.375 220.73C237.231 221.028 244.349 221.119 249.502 221.133C252.042 221.135 254.114 221.136 255.606 221.137C256.291 221.142 256.842 221.146 257.266 221.149C257.646 221.155 257.845 221.166 257.846 221.182Z" fill="white"/>
<path d="M248.745 136.422C248.759 136.429 248.669 136.64 248.489 137.034C248.301 137.425 248.051 138.015 247.739 138.776C247.142 140.306 246.37 142.576 245.945 145.485C245.525 148.384 245.448 151.933 246.268 155.729C247.066 159.533 248.76 163.486 250.523 167.624C254.004 175.913 257.154 183.413 259.456 188.891C260.567 191.589 261.472 193.787 262.117 195.355C262.41 196.092 262.644 196.68 262.82 197.12C262.976 197.527 263.052 197.742 263.038 197.748C263.025 197.754 262.922 197.549 262.74 197.155C262.545 196.721 262.286 196.144 261.962 195.421C261.286 193.866 260.337 191.686 259.173 189.011C256.842 183.546 253.651 176.062 250.124 167.794C248.364 163.659 246.666 159.671 245.877 155.811C245.067 151.957 245.179 148.362 245.641 145.439C246.111 142.505 246.935 140.23 247.583 138.711C247.921 137.955 248.197 137.375 248.411 136.996C248.617 136.612 248.732 136.414 248.745 136.422Z" fill="white"/>
<path d="M172.557 231.456C172.527 231.456 172.502 231.244 172.481 230.857C172.454 230.469 172.474 229.905 172.553 229.215C172.704 227.835 173.21 225.938 174.268 224.083C175.334 222.231 176.714 220.834 177.828 220.005C178.384 219.589 178.859 219.286 179.208 219.114C179.552 218.935 179.748 218.849 179.763 218.876C179.801 218.943 179.06 219.368 178.02 220.245C176.979 221.116 175.68 222.501 174.644 224.298C173.618 226.1 173.081 227.92 172.856 229.26C172.625 230.601 172.633 231.455 172.557 231.456Z" fill="white"/>
<path d="M193.824 274.324C193.824 274.324 163.973 277.815 161.351 284.264C158.729 290.714 164.771 301.235 169.832 302.173C174.894 303.112 291.504 286.613 293.27 282.429C295.037 278.243 299.598 260.285 287.856 260.224C276.115 260.164 193.824 274.324 193.824 274.324Z" fill="#55A363"/>
<path d="M270.299 262.048C270.318 262.167 249.38 265.704 223.539 269.948C197.689 274.194 176.724 277.54 176.705 277.422C176.685 277.304 197.619 273.767 223.469 269.52C249.31 265.276 270.279 261.93 270.299 262.048Z" fill="#17282F"/>
<path d="M268.139 214.871C268.109 214.867 268.115 214.657 268.151 214.275C268.179 213.893 268.278 213.345 268.446 212.681C268.779 211.353 269.508 209.564 270.748 207.861C271.994 206.163 273.477 204.925 274.642 204.204C275.224 203.841 275.716 203.582 276.071 203.439C276.424 203.289 276.623 203.22 276.636 203.246C276.668 203.315 275.91 203.683 274.813 204.459C273.714 205.229 272.31 206.466 271.098 208.117C269.893 209.772 269.141 211.487 268.74 212.766C268.335 214.048 268.214 214.881 268.139 214.871Z" fill="white"/>
<path d="M262.369 266.194C262.388 266.312 244.438 269.359 222.281 272.998C200.117 276.639 182.14 279.494 182.121 279.376C182.101 279.258 200.047 276.211 222.211 272.57C244.368 268.931 262.349 266.076 262.369 266.194Z" fill="white"/>
<path d="M331.393 313.73C333.815 313.919 336.108 311.933 337.009 308.865C343.385 287.169 367.889 203.87 374.041 184.498C380.156 165.243 385.823 141.291 387.764 132.844C388.209 130.915 387.738 128.874 386.574 127.694C380.562 121.6 361.711 104.967 350.826 123.493C337.75 145.746 344.863 177.885 341.461 195.112C338.248 211.377 338.489 222.402 323.39 214.896C309.584 208.032 290.209 195.799 280.026 195.83C272.94 195.852 266.79 197.94 263.483 220.956C260.943 238.629 257.306 283.236 254.618 299.64C253.919 303.906 256.136 307.861 259.365 308.113L331.393 313.73Z" fill="#55A363"/>
<path d="M254.112 306.737C254.112 306.737 254.114 306.528 254.14 306.12C254.17 305.7 254.213 305.098 254.269 304.313C254.394 302.711 254.576 300.373 254.808 297.366C255.068 294.351 255.295 290.656 255.736 286.379C256.17 282.101 256.663 277.232 257.209 271.852C258.337 261.092 259.726 248.283 261.481 234.084C261.939 230.537 262.407 226.901 262.886 223.187C263.143 221.333 263.37 219.455 263.717 217.57C263.878 216.626 264.04 215.677 264.201 214.724C264.426 213.783 264.651 212.837 264.877 211.887C265.854 208.125 267.112 204.274 269.429 200.916L270.323 199.678L271.375 198.557C271.706 198.161 272.13 197.862 272.533 197.538L273.141 197.056L273.816 196.665C275.601 195.619 277.775 195.099 279.882 195.554L280.088 195.609L279.986 195.601C282.096 195.276 284.249 195.853 286.006 196.946C287.758 198.059 289.211 199.593 290.23 201.36C291.277 203.122 291.821 205.109 292.123 207.075C292.41 209.053 292.428 211.037 292.326 212.984C292.097 216.881 291.583 220.666 291.119 224.378C290.621 228.084 290.134 231.711 289.658 235.251C287.666 249.393 285.873 262.128 284.365 272.826C282.867 283.512 281.655 292.161 280.815 298.155C280.418 301.137 280.108 303.456 279.897 305.046C279.798 305.824 279.722 306.421 279.67 306.839C279.616 307.244 279.577 307.449 279.577 307.449C279.577 307.449 279.586 307.24 279.626 306.834C279.669 306.415 279.73 305.817 279.81 305.035C279.987 303.455 280.261 301.127 280.647 298.132C281.411 292.142 282.583 283.481 284.062 272.783C285.544 262.082 287.306 249.344 289.263 235.197C289.733 231.658 290.216 228.031 290.709 224.325C291.168 220.618 291.679 216.829 291.902 212.963C292.001 211.032 291.982 209.076 291.698 207.137C291.402 205.21 290.87 203.277 289.858 201.578C288.873 199.868 287.462 198.383 285.778 197.314C284.087 196.264 282.046 195.723 280.054 196.029L280.013 196.035L279.952 196.02L279.779 195.976C277.823 195.551 275.737 196.035 274.031 197.04L273.384 197.414L272.798 197.879C272.41 198.192 272 198.479 271.678 198.865L270.656 199.953L269.783 201.163C267.514 204.445 266.259 208.26 265.288 211.993C265.062 212.935 264.839 213.874 264.615 214.808C264.453 215.756 264.292 216.7 264.132 217.638C263.783 219.51 263.555 221.39 263.297 223.243C262.813 226.954 262.339 230.588 261.877 234.134C260.1 248.325 258.68 261.129 257.514 271.884C256.945 277.261 256.429 282.128 255.977 286.403C255.513 290.674 255.262 294.369 254.976 297.381C254.708 300.384 254.5 302.72 254.357 304.32C254.282 305.104 254.224 305.705 254.184 306.124C254.144 306.53 254.112 306.737 254.112 306.737Z" fill="#17282F"/>
<path d="M337.968 150.432C337.938 150.44 337.827 150.125 337.65 149.548C337.469 148.972 337.246 148.127 337.007 147.074C336.524 144.97 336.039 142.014 335.867 138.718C335.702 135.421 335.884 132.43 336.15 130.288C336.281 129.216 336.416 128.353 336.538 127.761C336.655 127.169 336.734 126.845 336.764 126.85C336.833 126.862 336.639 128.179 336.454 130.319C336.268 132.458 336.136 135.425 336.3 138.696C336.47 141.965 336.904 144.903 337.306 147.012C337.707 149.122 338.035 150.414 337.968 150.432Z" fill="white"/>
<path d="M246.023 89.6534C249.515 87.8354 242.887 68.1875 231.218 45.769C219.62 23.4893 207.412 6.86617 203.834 8.44665L203.828 8.43632L127.714 41.4786L175.348 132.99L246.023 89.6534Z" fill="#55A363"/>
<path d="M175.348 132.99C173.602 133.899 161.523 114.15 148.369 88.8796C135.215 63.6099 125.967 42.3876 127.714 41.4786C129.461 40.5692 141.54 60.3178 154.693 85.5874C167.847 110.858 177.095 132.08 175.348 132.99Z" fill="#55A363"/>
<path d="M87.1888 107.67C87.1335 107.564 100.998 100.237 118.151 91.3081C135.312 82.3756 149.263 75.2233 149.318 75.3296C149.374 75.4359 135.512 82.7601 118.352 91.6926C101.198 100.622 87.2441 107.776 87.1888 107.67Z" fill="#17282F"/>
<path d="M86.97 109.836C86.054 110.313 84.9354 109.976 84.4713 109.085C84.0072 108.193 84.3732 107.083 85.2891 106.607C86.2044 106.13 87.3234 106.467 87.7875 107.359C88.2516 108.25 87.8852 109.359 86.97 109.836Z" fill="#55A363"/>
<path d="M148.369 88.8799L154.502 85.6876C154.502 85.6883 154.502 85.6891 154.503 85.6898C161.132 98.4273 166.798 110.136 170.583 118.75C172.475 123.057 173.899 126.592 174.727 129.085C175.139 130.332 175.405 131.319 175.494 132.002C175.538 132.342 175.534 132.607 175.483 132.771C175.435 132.937 175.342 132.978 175.348 132.989L175.348 132.99C173.602 133.899 161.523 114.15 148.369 88.8799Z" fill="#44824F"/>
<path d="M147.218 86.6612C145.814 83.9415 144.457 81.2729 143.159 78.681C146.318 77.0039 148.425 75.8672 149.091 75.4771C150.484 78.057 151.905 80.7298 153.344 83.4724L147.218 86.6612Z" fill="#44824F"/>
<path d="M143.043 78.4496C132.82 58.0162 126.216 42.2612 127.714 41.4786C127.72 41.4905 127.807 41.4377 127.97 41.4927C128.134 41.5451 128.353 41.6945 128.607 41.9256C129.114 42.3892 129.77 43.1735 130.555 44.2266C132.123 46.3355 134.201 49.5283 136.644 53.5485C140.171 59.3557 144.458 66.8923 149.066 75.43C148.363 75.7526 146.226 76.8253 143.043 78.4496Z" fill="#44824F"/>
<path d="M143.16 78.6816C143.12 78.6037 143.082 78.5276 143.043 78.4498C146.226 76.8255 148.363 75.7527 149.066 75.4301C149.074 75.4463 149.083 75.4622 149.091 75.4777C148.425 75.8678 146.319 77.0045 143.16 78.6816Z" fill="#6C7A7F"/>
<path d="M175.348 132.99C175.34 132.98 175.435 132.94 175.483 132.772C175.535 132.607 175.539 132.343 175.495 132.002C175.406 131.32 175.14 130.333 174.727 129.086C173.899 126.592 172.475 123.057 170.583 118.751C166.798 110.137 161.132 98.4277 154.503 85.6903C147.87 72.9492 141.529 61.5908 136.644 53.5492C134.202 49.529 132.123 46.3362 130.555 44.2273C129.771 43.1742 129.115 42.3899 128.607 41.9263C128.354 41.6952 128.134 41.5459 127.97 41.4934C127.805 41.437 127.718 41.4923 127.714 41.4794C127.708 41.4806 127.798 41.4047 127.982 41.4504C128.162 41.4929 128.397 41.6361 128.664 41.8603C129.2 42.3112 129.881 43.0838 130.689 44.1258C132.305 46.2115 134.427 49.3847 136.905 53.3891C141.863 61.3993 148.251 72.7417 154.888 85.4901C161.521 98.235 167.147 109.973 170.864 118.629C172.723 122.956 174.105 126.514 174.887 129.035C175.277 130.294 175.519 131.296 175.581 131.993C175.611 132.34 175.594 132.615 175.526 132.786C175.457 132.964 175.344 132.994 175.348 132.99Z" fill="#17282F"/>
<path d="M153.344 83.4733L153.54 83.3715L154.694 85.5879L154.502 85.6878C154.115 84.9446 153.729 84.2065 153.344 83.4733Z" fill="#6C7A7F"/>
<path d="M151.858 45.1584C151.318 44.1222 150.938 43.0066 150.783 41.8454C150.044 36.3221 154.167 34.2419 157.889 32.5296C171.45 26.2903 186.044 20.0959 199.782 13.8646C202.113 12.8076 204.825 13.45 206.403 15.3842C212.024 22.2723 216.963 30.3528 221.679 39.4112C224.274 44.397 226.801 49.6778 229.337 55.2209C230.535 57.8393 229.374 60.9986 226.701 62.2636C214.71 67.9384 200.434 67.9976 187.349 65.6286C173.698 63.1576 159.739 57.6916 152.358 46.0282C152.18 45.7449 152.012 45.4551 151.858 45.1584Z" fill="#FFF5DD" fill-opacity="0.24"/>
</svg>
