<svg width="390" height="363" viewBox="0 0 390 363" fill="none" xmlns="http://www.w3.org/2000/svg">
<path d="M303.408 172.613V81.4285C303.408 78.1823 300.775 75.5456 297.525 75.5456H93.546C90.2959 75.5456 87.6582 78.1823 87.6582 81.4285V172.613C87.6582 175.864 90.2959 178.496 93.546 178.496H297.525C300.775 178.496 303.408 175.864 303.408 172.613Z" fill="#1C2C40"/>
<rect x="93.5154" y="82.6012" width="203.061" height="89.4846" rx="4.58896" fill="#FBF5DA"/>
<path d="M289.702 100.208C290.324 100.208 290.825 99.706 290.825 99.0826V86.8288C290.825 86.206 290.324 85.7037 289.702 85.7037H277.143C276.525 85.7037 276.02 86.206 276.02 86.8288C276.02 87.4478 276.525 87.9544 277.143 87.9544H288.574V99.0826C288.574 99.706 289.075 100.208 289.702 100.208Z" fill="#1C2C40"/>
<path d="M122.545 188.34C102.651 191.456 91.3877 205.938 68.4195 216.485C48.0044 228.445 46.5814 228.171 33.3883 235.798C26.2779 239.885 19.2791 244.215 12.6662 248.158C-6.97227 259.863 -40.4113 303.837 -51.7907 323.996C-60.2451 338.975 -72.755 362.855 -72.755 362.855H-191C-191 362.855 -175.677 346.011 -163.832 335.692C-151.988 325.373 -123.234 292.365 -108.837 273.377C-94.4392 254.394 -79.6324 237.853 -70.6898 229.938C-61.7471 222.028 -49.652 204.9 -43.5502 195.586C-37.4536 186.28 -33.9305 169.916 -31.3216 164.726C-28.7128 159.531 -20.9327 137.103 -19.0818 130.481C-17.9937 126.584 -15.2918 91.0361 -14.9942 86.995C-15.3429 79.2149 -12.5062 75.8852 -9.71599 69.9792C-4.07509 58.1255 0.417145 44.5975 5.10471 34.3528C5.90923 32.5391 7.38805 28.6235 9.2296 28.949C10.1643 29.1025 10.8665 30.5255 11.3316 31.5393C17.1631 43.1838 9.93184 70.3513 5.67674 82.6608C5.87206 83.7164 6.00223 84.8139 6.05804 85.9393C16.5214 58.2882 11.0386 72.1649 19.5813 57.3721C28.1799 42.5932 35.0717 26.2751 43.5726 11.4078C45.5257 7.98981 47.6463 6.36218 49.0135 10.0964C55.0916 26.6425 42.4983 60.4646 35.3554 76.4805C34.9368 78.615 34.7369 78.9684 30.6678 89.6922C46.1908 60.9343 45.3165 62.4317 46.3582 60.9529C56.3937 47.5598 67.1965 21.8107 77.0367 4.60434C79.0038 1.16772 81.1244 -0.422699 82.4776 3.29294C88.5928 19.9273 75.595 54.726 68.3358 70.7559C67.7266 73.0392 67.2337 74.2855 61.0999 85.3301C63.7366 82.047 67.2476 80.6425 70.1262 78.9219C82.8589 71.3139 95.9637 62.7061 109.059 55.2004C112.059 53.489 114.314 53.3635 113.988 56.8094C112.556 72.0626 89.881 91.5291 77.5435 100.607C76.167 103.048 57.6353 135.847 56.4634 137.926C48.1346 152.63 47.7765 168.237 53.3755 175.631C56.8075 180.174 60.0535 184.49 65.5828 185.857C72.0933 187.466 78.7201 185.936 83.2635 181.677C88.9091 176.375 98.5446 177.305 102.544 176.78C108.524 175.989 112.919 176.38 116.821 177.57C120.741 178.765 124.112 180.807 125.661 182.197C126.772 183.188 127.349 187.592 122.545 188.34Z" fill="#F5A977"/>
<path d="M372.461 63.7896C372.386 63.8453 373.1 64.6774 363.758 53.0281C365.725 54.228 367.718 55.3859 369.736 56.4931C370.325 57.8741 370.563 58.2412 373.257 63.2219C372.994 63.4036 372.724 63.5941 372.461 63.7896ZM487.864 206.128C485.032 183.16 493.115 173.515 470.521 163.033C466.335 161.094 434.611 116.292 413.558 85.4974C412.525 82.4278 412.462 83.4184 403.677 70.9138C391.271 52.3539 398.802 62.4688 388.727 48.7962C384.466 40.9095 379.134 39.6726 374.397 37.8311C360.675 32.3762 348.62 25.0007 335.318 19.2431C332.573 18.0576 330.362 17.9787 330.95 20.9499C332.423 28.2044 339.296 34.8781 344.954 39.5981C342.761 39.7654 343.783 40.1 342.486 39.4446C326.79 31.5065 311.326 20.2945 295.605 11.696C292.222 9.84946 289.665 9.61264 290.436 13.384C292.316 22.6849 301.05 32.6362 307.999 39.0304C310.919 41.8256 310.856 41.6489 310.643 41.5467C294.246 32.2646 280.586 21.2569 264.978 11.8495C261.701 9.87262 259.145 9.50546 259.74 13.3138C262.748 32.3016 296.295 59.2877 312.341 69.9138C314.171 71.6575 313.2 70.7371 317.191 74.5454C312.473 71.472 310.23 72.9783 306.765 71.9507C290.492 67.1142 278.205 64.1104 263.857 61.1016C260.58 60.4274 258.456 60.9756 259.79 64.0685C263.004 71.5134 271.175 77.1965 279.145 81.5906C287.823 86.362 297.015 90.4222 306.671 93.6215C314.772 100.709 309.352 95.9605 331.157 115.05C340.907 124.547 351.828 131.034 352.016 148.287C352.022 148.463 351.747 151.096 351.408 151.505C349.691 153.565 346.458 161.061 338.914 163.642C333.006 165.66 326.922 167.707 321.326 165.084C314.509 161.875 305.906 165.628 302.047 166.344C296.282 167.404 292.347 169.083 289.095 171.352C285.837 173.631 283.331 176.538 282.322 178.281C281.589 179.523 282.378 183.769 287.04 183.025C299.828 180.97 311.458 184.829 322.548 187.987C330.506 190.256 334.923 190.912 341.502 193.098C353.175 196.972 379.441 200.897 391.064 202.984C421.115 208.379 470.057 305.326 470.521 335.567L519.6 362.855C519.6 362.855 492.05 240.155 487.864 206.128Z" fill="#F5A977"/>
<path d="M61.1699 85.2046C61.1746 85.1999 61.1792 85.1906 61.1792 85.186L61.1699 85.2046ZM66.6062 75.1365C67.0759 74.1832 67.4014 73.4717 67.6432 72.8718C67.3503 73.6345 67.0015 74.3878 66.6062 75.1365ZM68.4291 70.5559C70.1219 66.8077 72.1169 62.0597 74.1026 56.7676C72.3587 61.4458 70.4613 66.0497 68.4291 70.5559Z" fill="#E9DFCE"/>
<path d="M33.5796 112.363C47.5121 92.6592 61.4399 72.9556 75.3724 53.2566C75.2422 53.6379 75.1027 54.0332 74.9632 54.4192C74.6842 55.2004 74.3959 55.9863 74.1029 56.7676C72.1172 62.0597 70.1222 66.8078 68.4294 70.556C68.4201 70.5792 68.4109 70.5978 68.4016 70.6211C68.3969 70.6257 68.3922 70.6304 68.3922 70.6397C68.3736 70.6769 68.355 70.7141 68.3364 70.7559C68.1504 71.4628 67.9179 72.1696 67.6436 72.8718C67.4017 73.4717 67.0762 74.1833 66.6065 75.1366C66.5879 75.1691 66.5693 75.2017 66.5507 75.2342L61.1795 85.186C61.1795 85.1907 61.1749 85.2 61.1702 85.2046C57.064 89.8085 52.1718 93.952 47.8144 98.2722C43.3035 102.737 37.2348 107.192 33.5796 112.363Z" fill="#E29869"/>
<path d="M34.2858 80.1311C34.5601 79.3638 34.7555 78.8057 34.8996 78.3407C34.7555 78.829 34.588 79.3219 34.402 79.8149L34.2858 80.1311ZM35.453 76.2713C36.4854 73.9461 37.6294 71.2582 38.8106 68.3099C37.741 70.9931 36.6203 73.6485 35.453 76.2713Z" fill="#E9DFCE"/>
<path d="M16.1918 117.432C16.3499 115.367 28.613 85.2372 31.4916 78.9825C34.8398 71.714 38.1881 64.4408 41.5364 57.1722C42.1037 55.9352 42.7594 54.6053 43.9639 53.9821C43.1779 56.4096 42.3595 58.8278 41.4992 61.2227C40.6435 63.6037 39.746 65.9661 38.8113 68.3099C37.6301 71.2582 36.4861 73.9461 35.4537 76.2713C35.4397 76.3039 35.4258 76.3318 35.4118 76.3643C35.4118 76.3643 35.4118 76.3643 35.4072 76.369C35.3932 76.4062 35.3746 76.4434 35.356 76.4806C35.2351 77.0991 35.0816 77.7176 34.9003 78.3407C34.7561 78.8058 34.5608 79.3638 34.2864 80.1311L30.8219 89.2877C30.6824 89.576 30.5382 89.8644 30.3894 90.1527C29.371 92.1151 28.2038 94.0078 27.0923 95.9145C26.4878 96.9608 16.3453 115.711 16.1918 117.432Z" fill="#E29869"/>
<path d="M65.5832 185.857C64.0765 185.485 62.7372 184.89 61.5188 184.137C62.9326 184.941 64.2997 185.536 65.5832 185.857ZM58.7658 182.002C57.9148 181.212 57.1149 180.337 56.3383 179.417C57.0545 180.258 57.8404 181.109 58.7658 182.002ZM56.4639 137.926C57.1242 136.759 63.2627 125.891 68.7595 116.162L56.4639 137.926ZM68.7967 116.092C68.806 116.078 68.8106 116.065 68.8199 116.055L68.7967 116.092Z" fill="#E9DFCE"/>
<path d="M64.0762 190.122C61.9556 190.122 59.8397 189.978 57.7796 189.75C49.3392 188.806 39.9919 186.02 36.1182 178.463C33.965 174.255 33.9371 169.218 35.0997 164.638C36.2623 160.062 38.5271 155.848 40.8243 151.724C45.4329 143.446 50.2646 135.289 55.3196 127.277C60.3792 119.25 66.1131 109.135 73.9582 103.471C74.9674 102.737 75.9021 102.262 76.7578 101.997L68.8196 116.055C68.8103 116.065 68.8056 116.078 68.7963 116.092L68.7591 116.162C63.2624 125.891 57.1239 136.759 56.4635 137.926C51.7806 146.194 49.6182 154.751 49.6182 161.973C49.6182 167.591 50.9296 172.394 53.3757 175.631C54.3383 176.905 55.2544 178.142 56.338 179.417C57.1146 180.337 57.9144 181.212 58.7655 182.002C59.2305 182.449 59.7234 182.909 60.2629 183.379C60.6861 183.644 61.1046 183.899 61.5185 184.137C62.7369 184.89 64.0762 185.485 65.5829 185.857C67.2849 186.276 68.9916 186.485 70.6704 186.485C75.4138 186.485 79.906 184.825 83.2636 181.677C83.2729 181.667 83.2869 181.663 83.2962 181.653C83.2962 181.649 83.3008 181.644 83.3055 181.639C83.3101 181.635 83.3194 181.63 83.3241 181.621C83.3287 181.621 83.3334 181.616 83.3334 181.612C83.3427 181.607 83.352 181.598 83.3566 181.593C83.3613 181.588 83.3659 181.588 83.3659 181.584C83.3752 181.574 83.3845 181.565 83.3938 181.56C83.3985 181.556 83.4031 181.551 83.4078 181.546C83.4124 181.542 83.4171 181.537 83.4264 181.532C83.431 181.528 83.4357 181.523 83.4403 181.519C83.445 181.514 83.4496 181.509 83.4543 181.505C83.4729 181.486 83.4961 181.467 83.5147 181.449C83.5194 181.449 83.5194 181.444 83.5241 181.444C83.5287 181.439 83.538 181.43 83.5426 181.426C83.5473 181.426 83.5473 181.421 83.5473 181.421C84.003 181.016 84.482 180.658 84.9796 180.328C84.2402 181.621 83.352 182.825 82.2963 183.904C77.6646 188.652 70.875 190.122 64.0762 190.122Z" fill="#E29869"/>
<path d="M317.188 74.5471C316.525 74.1146 315.907 73.7704 315.33 73.5006C315.309 73.4825 315.294 73.4685 315.279 73.4544C315.922 73.7754 316.56 74.1427 317.188 74.5471Z" fill="#E9DFCE"/>
<path d="M355.878 101.221C348.112 94.6172 338.489 89.3622 330.123 83.5958C325.888 80.6705 319.374 77.4852 315.334 73.4998C315.907 73.7697 316.528 74.1133 317.191 74.5463L313.871 71.3795C316.917 71.8488 320.174 74.6625 322.7 76.2899C326.604 78.8153 330.45 81.4239 334.232 84.1303C341.709 89.4832 348.938 95.1844 355.878 101.221Z" fill="#E29869"/>
<path d="M310.732 41.593C310.727 41.593 310.727 41.588 310.727 41.588C310.658 41.5279 310.588 41.4629 310.518 41.3983C310.687 41.5463 310.737 41.593 310.732 41.593Z" fill="#E9DFCE"/>
<path d="M381.68 98.2173C367.215 86.9867 353.482 74.8169 340.589 61.8098C338.323 59.5216 336.08 57.2058 333.543 55.2201C330.579 52.8951 327.267 51.0583 323.967 49.2352C320.433 47.2819 316.905 45.3287 313.371 43.3803C312.06 42.6503 309.258 41.5295 308.098 40.0836C308.944 40.5854 309.794 41.0645 310.64 41.5485L310.727 41.5946V41.5902C310.727 41.5902 310.727 41.5946 310.732 41.5946C310.732 41.5946 310.683 41.5485 310.515 41.3995C309.67 40.6179 308.835 39.8278 307.995 39.0322C308.098 39.0186 308.201 39.0137 308.304 39.0137C310.293 39.0137 312 41.2694 313.388 42.3994C315.138 43.8361 317.301 44.6361 319.366 45.5476C336.183 52.9834 347.699 68.6087 362.17 79.9602C364.565 81.8435 367.058 83.6152 369.4 85.5776C373.903 89.354 377.8 93.7949 381.68 98.2173Z" fill="#E29869"/>
<path d="M371.789 63.0494C371.783 63.0403 371.772 63.0312 371.772 63.0264C370.878 61.9198 368.814 59.3341 364.034 53.3674C366.387 56.302 368.059 58.3898 371.789 63.0494ZM370.727 58.5479L370.701 58.497C370.551 58.2178 370.406 57.9392 370.272 57.66C370.401 57.9113 370.54 58.1948 370.727 58.5479ZM343.338 39.835C343.515 39.7932 343.692 39.7562 343.874 39.7278C343.563 39.7836 343.445 39.8302 343.338 39.835ZM337.282 32.2783C336.811 31.7478 336.361 31.2087 335.932 30.6648C336.366 31.2087 336.816 31.7478 337.282 32.2783Z" fill="#E9DFCE"/>
<path d="M390.163 81.9041C384.084 76.0351 378.18 70.0037 372.457 63.7906C372.725 63.5953 372.987 63.4049 373.255 63.2232L370.722 58.5499C370.536 58.1964 370.394 57.913 370.268 57.6618C370.076 57.2711 369.901 56.8804 369.732 56.4941C367.718 55.3878 365.726 54.2294 363.751 53.0301C363.844 53.1417 363.937 53.2577 364.03 53.3693C368.812 59.3356 370.875 61.9215 371.767 63.0279C370.082 61.2003 368.429 59.3591 366.788 57.5081C364.714 55.1738 362.668 52.8068 360.277 50.8025C358.033 48.9235 355.533 47.3937 353.038 45.8682C349.782 43.8825 346.526 41.9154 343.336 39.8367C343.44 39.8324 343.561 39.7859 343.867 39.73C344.228 39.6693 344.589 39.6277 344.95 39.5998C342.258 37.3537 339.588 34.9073 337.301 32.3077C337.301 32.3033 337.296 32.3033 337.296 32.3033C337.29 32.294 337.285 32.2847 337.279 32.2798C336.814 31.7496 336.365 31.2106 335.928 30.6662C335.917 30.6569 335.911 30.6432 335.9 30.6339C335.807 30.5174 335.72 30.4014 335.627 30.2898C337.471 31.9127 339.435 33.4376 341.29 35.0375C343.26 36.7491 345.136 38.5766 347.172 40.2181C350.915 43.2314 355.139 45.5798 359.352 47.9097C361.486 49.0861 363.647 50.2816 365.994 50.9371C367.089 51.2397 368.238 51.4164 369.371 51.4164C370.684 51.4164 371.975 51.179 373.162 50.6302C372.736 53.8021 374.623 56.7732 376.402 59.4335C381.266 66.753 385.857 74.2448 390.163 81.9041Z" fill="#E29869"/>
<path d="M328.47 166.274C331.749 166.028 335.143 164.926 338.605 163.745C335.243 164.893 331.817 166.028 328.47 166.274ZM340.061 163.196C343.995 161.498 346.572 158.466 348.583 155.718C348.615 155.671 348.662 155.611 348.714 155.537C346.855 158.225 344.147 161.433 340.061 163.196ZM351.417 151.5C351.694 151.049 352.019 148.463 352.014 148.286C351.83 131.033 340.905 124.546 331.157 115.05L313.114 99.2574C315.418 101.271 319.179 104.564 331.157 115.05C340.905 124.546 351.83 131.033 352.014 148.286C352.019 148.463 351.752 151.09 351.417 151.5Z" fill="#E9DFCE"/>
<path d="M333.866 168.497C330.534 168.497 327.197 167.707 324.378 166.074C325.287 166.246 326.208 166.326 327.133 166.326C327.578 166.326 328.022 166.307 328.471 166.274C331.82 166.028 335.242 164.893 338.606 163.744C338.711 163.712 338.812 163.675 338.912 163.642C338.934 163.633 338.949 163.628 338.96 163.623C338.976 163.619 338.992 163.614 339.002 163.61C339.357 163.489 339.695 163.354 340.028 163.214C340.034 163.21 340.044 163.205 340.055 163.201C340.06 163.201 340.06 163.201 340.065 163.196C344.149 161.433 346.851 158.225 348.713 155.537C349.306 154.699 350.882 152.356 351.416 151.5C351.749 151.091 352.019 148.463 352.014 148.287C351.829 131.033 340.906 124.547 331.158 115.051C319.178 104.564 315.418 101.271 313.117 99.2576C314.154 99.8066 315.122 100.43 315.973 100.992C322.5 105.364 329.043 109.614 335.913 113.414C340.705 116.06 345.624 118.552 349.924 121.933C354.23 125.318 357.938 129.722 359.434 134.987C360.418 138.484 360.386 142.185 360.164 145.808C359.974 148.91 359.609 152.123 358.012 154.788C357.086 156.327 355.795 157.606 354.468 158.81C349.697 163.163 344.117 166.916 337.786 168.13C336.5 168.376 335.183 168.497 333.866 168.497Z" fill="#E29869"/>
<path d="M40.0991 19.9973C40.0386 20.4205 39.9921 20.8855 40.2014 21.2575C40.3688 21.5644 40.6757 21.7551 40.978 21.9086C41.9267 22.3875 42.9591 22.6387 43.9821 22.8805C44.3867 22.9782 44.8099 23.0758 45.2052 22.9642C45.9074 22.7642 46.2841 22.0015 46.5771 21.3179C47.8931 18.272 49.2138 15.1888 49.8091 11.9103C50.0044 10.8453 50.116 9.72922 49.8091 8.69219C49.5022 7.65516 48.679 6.71581 47.6374 6.58095C46.1492 6.38563 44.9541 7.76677 44.1217 9.05028C41.8848 12.5102 40.6804 15.8724 40.0991 19.9973Z" fill="#E67E3C"/>
<path d="M72.996 12.7101C72.7868 13.4588 72.6007 14.2726 72.8844 14.9981C73.2843 16.0211 74.4562 16.4722 75.4979 16.8117C76.8605 17.2581 78.5486 17.6301 79.5624 16.621C79.9902 16.1978 80.1948 15.6073 80.3855 15.0353C80.7761 13.882 81.1621 12.724 81.5527 11.5661C82.506 8.72933 83.478 5.78099 83.1664 2.80011C82.9897 1.10737 82.1061 -0.315615 80.2367 0.0610657C79.088 0.293583 78.144 0.786531 77.4883 1.76776C75.3445 4.94396 74.0145 9.05023 72.996 12.7101Z" fill="#E67E3C"/>
<path d="M268.424 23.7738C269.034 24.2484 269.715 24.7316 270.492 24.7412C271.593 24.7598 272.456 23.8481 273.166 23.0113C274.09 21.9233 275.082 20.4997 274.529 19.1792C274.295 18.6259 273.828 18.2122 273.375 17.8167C272.456 17.017 271.526 16.2216 270.607 15.4219C268.343 13.4595 265.979 11.4455 263.105 10.6039C261.476 10.1249 259.822 10.3994 259.465 12.2738C259.241 13.4266 259.341 14.4826 259.994 15.4634C262.124 18.654 265.417 21.4438 268.424 23.7738Z" fill="#E67E3C"/>
<path d="M271 66.6719C271.797 66.8252 272.666 66.9741 273.454 66.8576C274.562 66.6953 275.082 66.0857 275.473 65.5371C275.994 64.8211 276.438 63.9235 275.378 63.3187C274.934 63.0676 274.308 62.9234 273.697 62.7888C272.471 62.5142 271.239 62.2402 270.007 61.9657C266.98 61.2959 263.834 60.6075 260.626 60.6171C258.803 60.6219 257.251 61.0214 257.604 62.0583C257.824 62.6957 258.33 63.2304 259.361 63.6443C262.717 64.9791 267.095 65.9229 271 66.6719Z" fill="#E67E3C"/>
<path d="M298.501 22.4369C299.115 22.9161 299.798 23.3953 300.576 23.4091C301.67 23.423 302.531 22.5161 303.244 21.679C304.174 20.586 305.159 19.1634 304.61 17.8427C304.377 17.2892 303.907 16.8754 303.457 16.4848C302.531 15.6849 301.61 14.8849 300.689 14.085C298.427 12.1272 296.061 10.109 293.185 9.26748C291.551 8.78831 289.908 9.06748 289.542 10.9367C289.324 12.0945 289.423 13.1504 290.076 14.1315C292.21 17.317 295.502 20.1074 298.501 22.4369Z" fill="#E67E3C"/>
<path d="M339.17 27.9022C339.74 28.1907 340.368 28.4745 340.996 28.3816C341.889 28.256 342.444 27.4419 342.89 26.7072C343.471 25.7493 344.052 24.531 343.399 23.582C343.129 23.1871 342.682 22.9266 342.252 22.6848C341.385 22.1872 340.514 21.6943 339.642 21.1967C337.509 19.9783 335.288 18.7273 332.829 18.4482C331.433 18.2899 330.141 18.7133 330.141 20.2015C330.136 21.1173 330.385 21.9174 331.07 22.5914C333.286 24.7681 336.383 26.4934 339.17 27.9022Z" fill="#E67E3C"/>
<path d="M103.135 57.2605C102.568 57.6512 101.959 58.0883 101.54 58.6184C100.954 59.3718 100.973 60.0135 101.033 60.553C101.112 61.2505 101.331 62.0132 102.307 61.7109C102.717 61.5854 103.177 61.2877 103.619 60.9994C104.521 60.4181 105.418 59.8322 106.321 59.2462C108.53 57.8139 110.818 56.3118 112.771 54.3959C113.877 53.3077 114.603 52.1591 113.822 51.801C113.338 51.5824 112.738 51.5871 111.882 51.9777C109.106 53.2519 105.925 55.3399 103.135 57.2605Z" fill="#E67E3C"/>
<path d="M111.004 191.717C109.693 190.508 110.948 188.308 112.162 186.973C113.376 185.643 115.129 185.206 116.789 184.862C121.458 183.895 126.178 183.221 130.912 182.839C131.024 182.83 131.135 182.821 131.242 182.862C131.707 183.044 131.54 183.848 131.233 184.295C130.061 185.992 128.257 186.95 126.494 187.759C122.253 189.712 116.863 190.787 114.943 191.196C114.403 191.312 111.218 191.861 111.004 191.717Z" fill="#E67E3C"/>
<path d="M301.403 182.918C302.271 181.359 300.402 179.658 298.838 178.765C297.269 177.867 295.474 177.993 293.782 178.179C289.047 178.695 284.346 179.509 279.72 180.602C279.616 180.629 279.503 180.658 279.419 180.727C279.029 181.043 279.439 181.759 279.868 182.085C281.5 183.341 283.518 183.694 285.441 183.927C290.083 184.475 295.538 183.834 297.491 183.634C298.039 183.578 301.24 183.122 301.403 182.918Z" fill="#E67E3C"/>
<path d="M44.0472 101.816C45.6748 100.337 47.814 98.2722 48.6883 97.4119C42.9218 94.0171 37.2344 91.2176 30.8215 89.2877C29.6403 88.9296 27.6593 92.8871 28.2359 93.8079C28.7614 94.6496 32.4538 95.8168 33.3979 96.2586C37.0298 97.9513 40.5827 99.8068 44.0472 101.816Z" fill="#E6E6E6"/>
<path d="M101.298 100.207C100.679 100.207 100.172 99.7045 100.172 99.0814V86.8277C100.172 86.2045 100.679 85.7023 101.298 85.7023H113.854C114.477 85.7023 114.979 86.2045 114.979 86.8277C114.979 87.4462 114.477 87.9531 113.854 87.9531H102.423V99.0814C102.423 99.7045 101.921 100.207 101.298 100.207Z" fill="#1C2C40"/>
<path d="M289.702 153.994C290.324 153.994 290.825 154.496 290.825 155.12V167.378C290.825 167.996 290.324 168.499 289.702 168.499H277.143C276.525 168.499 276.02 167.996 276.02 167.378C276.02 166.754 276.525 166.252 277.143 166.252H288.574V155.12C288.574 154.496 289.075 153.994 289.702 153.994Z" fill="#1C2C40"/>
<path d="M101.298 153.993C100.679 153.993 100.172 154.495 100.172 155.118V167.377C100.172 167.995 100.679 168.498 101.298 168.498H113.854C114.477 168.498 114.979 167.995 114.979 167.377C114.979 166.754 114.477 166.251 113.854 166.251H102.423V155.118C102.423 154.495 101.921 153.993 101.298 153.993Z" fill="#1C2C40"/>
</svg>
