<svg width="37" height="45" viewBox="0 0 37 45" fill="none" xmlns="http://www.w3.org/2000/svg">
<path fill-rule="evenodd" clip-rule="evenodd" d="M11.8818 26.7333C13.3439 27.1182 14.6845 27.8674 15.7784 28.9109C16.8724 29.9545 17.684 31.2582 18.1375 32.7005H35.2087C35.5008 32.6999 35.7807 32.5837 35.9872 32.3772C36.1937 32.1707 36.31 31.8907 36.3105 31.5987V7.26539H30.847C30.5549 7.26481 30.275 7.14854 30.0685 6.94204C29.862 6.73554 29.7457 6.45563 29.7452 6.16359V0.703125H12.9832C12.6912 0.703799 12.4114 0.820099 12.205 1.02657C11.9986 1.23305 11.8824 1.51288 11.8818 1.80483V26.7333Z" fill="#ECEFF1"/>
<path fill-rule="evenodd" clip-rule="evenodd" d="M16.7473 12.2442C16.6512 12.2452 16.5559 12.2272 16.4668 12.1912C16.3777 12.1551 16.2967 12.1018 16.2283 12.0342C16.16 11.9666 16.1058 11.8862 16.0688 11.7975C16.0318 11.7088 16.0127 11.6137 16.0127 11.5176C16.0127 11.4215 16.0318 11.3264 16.0688 11.2377C16.1058 11.149 16.16 11.0686 16.2283 11.001C16.2967 10.9334 16.3777 10.8801 16.4668 10.8441C16.5559 10.808 16.6512 10.79 16.7473 10.7911H31.4443C31.5403 10.79 31.6357 10.808 31.7248 10.8441C31.8138 10.8801 31.8949 10.9334 31.9632 11.001C32.0315 11.0686 32.0858 11.149 32.1228 11.2377C32.1598 11.3264 32.1788 11.4215 32.1788 11.5176C32.1788 11.6137 32.1598 11.7088 32.1228 11.7975C32.0858 11.8862 32.0315 11.9666 31.9632 12.0342C31.8949 12.1018 31.8138 12.1551 31.7248 12.1912C31.6357 12.2272 31.5403 12.2452 31.4443 12.2442H16.7473ZM16.7473 16.7621C16.6512 16.7631 16.5559 16.7451 16.4668 16.7091C16.3777 16.6731 16.2967 16.6197 16.2283 16.5521C16.16 16.4846 16.1058 16.4041 16.0688 16.3154C16.0318 16.2268 16.0127 16.1316 16.0127 16.0355C16.0127 15.9394 16.0318 15.8443 16.0688 15.7556C16.1058 15.667 16.16 15.5865 16.2283 15.5189C16.2967 15.4514 16.3777 15.398 16.4668 15.362C16.5559 15.3259 16.6512 15.3079 16.7473 15.309H31.4443C31.5403 15.3079 31.6357 15.3259 31.7248 15.362C31.8138 15.398 31.8949 15.4514 31.9632 15.5189C32.0315 15.5865 32.0858 15.667 32.1228 15.7556C32.1598 15.8443 32.1788 15.9394 32.1788 16.0355C32.1788 16.1316 32.1598 16.2268 32.1228 16.3154C32.0858 16.4041 32.0315 16.4846 31.9632 16.5521C31.8949 16.6197 31.8138 16.6731 31.7248 16.7091C31.6357 16.7451 31.5403 16.7631 31.4443 16.7621H16.7473ZM16.7473 21.28C16.6512 21.2811 16.5559 21.2631 16.4668 21.227C16.3777 21.191 16.2967 21.1376 16.2283 21.0701C16.16 21.0025 16.1058 20.922 16.0688 20.8334C16.0318 20.7447 16.0127 20.6496 16.0127 20.5535C16.0127 20.4574 16.0318 20.3622 16.0688 20.2736C16.1058 20.1849 16.16 20.1044 16.2283 20.0369C16.2967 19.9693 16.3777 19.916 16.4668 19.8799C16.5559 19.8439 16.6512 19.8259 16.7473 19.8269H31.4443C31.5403 19.8259 31.6357 19.8439 31.7248 19.8799C31.8138 19.916 31.8949 19.9693 31.9632 20.0369C32.0315 20.1044 32.0858 20.1849 32.1228 20.2736C32.1598 20.3622 32.1788 20.4574 32.1788 20.5535C32.1788 20.6496 32.1598 20.7447 32.1228 20.8334C32.0858 20.922 32.0315 21.0025 31.9632 21.0701C31.8949 21.1376 31.8138 21.191 31.7248 21.227C31.6357 21.2631 31.5403 21.2811 31.4443 21.28H16.7473ZM16.7473 25.7979C16.6512 25.799 16.5559 25.781 16.4668 25.745C16.3777 25.7089 16.2967 25.6556 16.2283 25.588C16.16 25.5204 16.1058 25.44 16.0688 25.3513C16.0318 25.2626 16.0127 25.1675 16.0127 25.0714C16.0127 24.9753 16.0318 24.8802 16.0688 24.7915C16.1058 24.7028 16.16 24.6224 16.2283 24.5548C16.2967 24.4872 16.3777 24.4339 16.4668 24.3978C16.5559 24.3618 16.6512 24.3438 16.7473 24.3448H31.4443C31.5403 24.3438 31.6357 24.3618 31.7248 24.3978C31.8138 24.4339 31.8949 24.4872 31.9632 24.5548C32.0315 24.6224 32.0858 24.7028 32.1228 24.7915C32.1598 24.8802 32.1788 24.9753 32.1788 25.0714C32.1788 25.1675 32.1598 25.2626 32.1228 25.3513C32.0858 25.44 32.0315 25.5204 31.9632 25.588C31.8949 25.6556 31.8138 25.7089 31.7248 25.745C31.6357 25.781 31.5403 25.799 31.4443 25.7979H16.7473Z" fill="#D1D1D6"/>
<path fill-rule="evenodd" clip-rule="evenodd" d="M5.28454 36.5624L7.11917 38.2176L8.38145 39.3564C8.40174 39.3748 8.42545 39.3889 8.45121 39.398C8.47697 39.4071 8.50428 39.4111 8.53157 39.4096C8.55886 39.4082 8.58559 39.4013 8.61024 39.3895C8.63488 39.3777 8.65695 39.3612 8.67518 39.3408C10.5098 37.2922 12.2212 35.084 14.0239 32.9259C14.1913 32.7377 14.2774 32.491 14.2635 32.2395C14.2496 31.988 14.1369 31.7523 13.9499 31.5836C13.7629 31.4149 13.5168 31.327 13.2653 31.339C13.0137 31.351 12.7771 31.462 12.6071 31.6477L8.36809 36.1319L6.56282 35.1456C6.10227 34.8941 5.56684 34.8253 5.21528 35.2149C5.04646 35.4031 4.95899 35.6505 4.97197 35.903C4.98494 36.1554 5.09732 36.3925 5.28454 36.5624Z" fill="#ECEFF1"/>
<path fill-rule="evenodd" clip-rule="evenodd" d="M29.7457 6.16368C29.7463 6.45572 29.8626 6.73563 30.0691 6.94213C30.2756 7.14863 30.5555 7.2649 30.8475 7.26548H36.3111L29.7488 0.703125H29.7457V6.16368ZM16.9097 7.72638C16.7184 7.72427 16.5357 7.6468 16.4011 7.51077C16.2666 7.37475 16.1911 7.19115 16.1911 6.99983C16.1911 6.80851 16.2666 6.62491 16.4011 6.48888C16.5357 6.35286 16.7184 6.27539 16.9097 6.27328H24.3672C24.4633 6.27222 24.5586 6.29024 24.6477 6.32627C24.7367 6.36231 24.8178 6.41566 24.8861 6.48323C24.9544 6.55081 25.0087 6.63126 25.0457 6.71993C25.0827 6.8086 25.1018 6.90374 25.1018 6.99983C25.1018 7.09592 25.0827 7.19105 25.0457 7.27973C25.0087 7.3684 24.9544 7.44885 24.8861 7.51642C24.8178 7.584 24.7367 7.63734 24.6477 7.67338C24.5586 7.70942 24.4633 7.72743 24.3672 7.72638H16.9097ZM11.8824 26.7333V5.81528H8.09097C7.79896 5.81589 7.51909 5.93215 7.31261 6.13863C7.10613 6.34511 6.98986 6.62499 6.98926 6.91699V26.8363C8.57922 26.35 10.2729 26.3143 11.882 26.7333H11.8824ZM31.4184 32.7005H18.1376C18.6547 34.362 18.6783 36.1379 18.2053 37.8126H30.3167C30.6087 37.812 30.8886 37.6958 31.0951 37.4892C31.3016 37.2827 31.4179 37.0028 31.4185 36.7108L31.4184 32.7005Z" fill="#D1D1D6"/>
<path fill-rule="evenodd" clip-rule="evenodd" d="M8.36786 36.1324L12.6068 31.6482C12.7769 31.4624 13.0135 31.3514 13.265 31.3394C13.5166 31.3274 13.7627 31.4153 13.9497 31.584C14.1367 31.7527 14.2494 31.9885 14.2633 32.2399C14.2771 32.4914 14.191 32.7381 14.0237 32.9264C12.221 35.0844 10.5096 37.2926 8.67495 39.3412C8.65672 39.3616 8.63465 39.3782 8.61 39.39C8.58536 39.4018 8.55862 39.4086 8.53133 39.4101C8.50404 39.4115 8.47674 39.4076 8.45097 39.3984C8.42521 39.3893 8.40151 39.3752 8.38122 39.3569L7.11893 38.218L5.28431 36.5625C5.09708 36.3926 4.98471 36.1555 4.97173 35.9031C4.95876 35.6506 5.04623 35.4032 5.21505 35.215C5.56661 34.8254 6.10204 34.8942 6.56259 35.1457L8.36786 36.132V36.1324ZM18.1372 32.7005C17.4638 30.5372 15.998 28.7082 14.0334 27.5798C12.0688 26.4515 9.75033 26.107 7.54249 26.6154C5.33464 27.1238 3.4004 28.4476 2.12717 30.3217C0.853943 32.1957 0.335744 34.4816 0.676364 36.7214C1.01698 38.9613 2.19127 40.9898 3.96403 42.4006C5.73679 43.8115 7.97712 44.5004 10.2363 44.3295C12.4955 44.1587 14.6067 43.1406 16.1471 41.4792C17.6875 39.8178 18.5433 37.6357 18.5431 35.3701C18.5437 34.4648 18.4068 33.5647 18.1372 32.7005Z" fill="#55A363"/>
<path fill-rule="evenodd" clip-rule="evenodd" d="M16.7282 37.8126C16.2306 39.5587 15.2127 41.1117 13.8103 42.2648C12.4078 43.4179 10.6873 44.1162 8.87793 44.2669C9.12139 44.2867 9.36748 44.2968 9.61621 44.2969C11.9837 44.2969 14.2543 43.3564 15.9284 41.6823C17.6025 40.0082 18.543 37.7377 18.543 35.3701C18.543 33.0026 17.6025 30.7321 15.9284 29.058C14.2543 27.3839 11.9837 26.4434 9.61621 26.4434C9.36766 26.4434 9.12156 26.4534 8.87793 26.4735C10.1915 26.5836 11.4645 26.983 12.6055 27.6431C13.7466 28.3032 14.7274 29.2075 15.4778 30.2913C16.2281 31.3751 16.7293 32.6116 16.9455 33.9119C17.1617 35.2123 17.0875 36.5443 16.7282 37.8126Z" fill="#4D935A"/>
</svg>
