<svg width="180" height="180" viewBox="0 0 180 180" fill="none" xmlns="http://www.w3.org/2000/svg">
<g clip-path="url(#clip0_624_59021)">
<circle cx="90" cy="90" r="90" fill="white"/>
<g clip-path="url(#clip1_624_59021)">
<path d="M46.0022 65.5752L83.6702 106.645C84.0862 107.167 84.6487 107.52 85.2618 107.684C85.8748 107.848 86.5384 107.824 87.1598 107.58L140.316 90.8466L104.246 43.9065C103.838 43.388 103.273 43.0155 102.635 42.8447C101.998 42.6739 101.322 42.7139 100.709 42.9589L46.0022 65.5752Z" fill="#79B985"/>
<path d="M132.109 50.7404L73.1624 34.9458C69.9145 34.0755 66.5586 36.013 65.6884 39.261L48.3143 104.102C47.8784 105.729 48.845 107.403 50.4719 107.839L115.313 125.213C116.94 125.649 118.614 124.682 119.05 123.055L136.424 58.2145C137.294 54.9665 135.362 51.6122 132.109 50.7404Z" fill="#DFE7F1"/>
<path d="M77.266 54.9989L118.528 66.055C120.155 66.491 121.829 65.5244 122.265 63.8975C122.701 62.2706 121.735 60.5964 120.108 60.1604L78.8455 49.1042C77.2186 48.6683 75.5444 49.6349 75.1085 51.2618C74.6725 52.8887 75.6391 54.5629 77.266 54.9989ZM116.949 71.9497L75.6866 60.8935C74.0597 60.4575 72.3855 61.4241 71.9496 63.051C71.5136 64.678 72.4802 66.3521 74.1071 66.7881L115.369 77.8443C116.996 78.2802 118.671 77.3136 119.106 75.6867C119.542 74.0598 118.576 72.3856 116.949 71.9497ZM96.1061 79.0005L72.5277 72.6827C70.9008 72.2468 69.2266 73.2134 68.7906 74.8403C68.3547 76.4672 69.3213 78.1414 70.9482 78.5773L94.5267 84.8951C96.1536 85.3311 97.8278 84.3645 98.2637 82.7375C98.6996 81.1106 97.733 79.4364 96.1061 79.0005Z" fill="#0C131B" fill-opacity="0.12"/>
<path d="M87.1598 107.58C86.5384 107.824 85.8748 107.848 85.2618 107.684C84.6488 107.52 84.0863 107.167 83.6702 106.645L46.0022 65.5751L31.7871 118.627C30.9152 121.88 32.8484 125.229 36.1022 126.101L118.627 148.213C121.881 149.085 125.229 147.152 126.101 143.898L140.316 90.8464L87.1598 107.58Z" fill="#44824F"/>
<path d="M118.627 148.213L36.102 126.101C32.7951 125.215 30.9008 121.934 31.7869 118.627C31.9111 118.164 32.1422 117.737 32.4616 117.381C32.7811 117.024 33.1799 116.748 33.6259 116.573L85.7328 98.9462C86.3541 98.702 87.0177 98.6777 87.6308 98.8419C88.2438 99.0062 88.8063 99.3591 89.2224 99.8812L125.535 141.2C125.834 141.574 126.041 142.013 126.139 142.482C126.238 142.95 126.224 143.435 126.101 143.898C125.215 147.205 121.933 149.099 118.627 148.213Z" fill="#55A363"/>
</g>
<path d="M180.5 82V81.8885C182.504 81.4338 184 79.6416 184 77.5C184 75.0147 181.985 73 179.5 73C178.532 73 177.636 73.3055 176.902 73.8254C176.343 70.5186 173.466 68 170 68C166.534 68 163.657 70.5186 163.098 73.8254C162.364 73.3055 161.468 73 160.5 73C158.015 73 156 75.0147 156 77.5C156 79.8153 157.749 81.7222 159.997 81.9722L160 82H180.5Z" fill="#DFE7F1"/>
<path d="M128.5 176V175.888C130.504 175.434 132 173.642 132 171.5C132 169.015 129.985 167 127.5 167C126.532 167 125.636 167.306 124.902 167.825C124.343 164.519 121.466 162 118 162C114.534 162 111.657 164.519 111.098 167.825C110.364 167.306 109.468 167 108.5 167C106.015 167 104 169.015 104 171.5C104 173.815 105.749 175.722 107.997 175.972L108 176H128.5Z" fill="#FDF3C3"/>
<path d="M13.5 90V89.8885C15.504 89.4338 17 87.6416 17 85.5C17 83.0147 14.9853 81 12.5 81C11.5322 81 10.6358 81.3055 9.90187 81.8254C9.34316 78.5186 6.46571 76 3 76C-0.465706 76 -3.34316 78.5186 -3.90187 81.8254C-4.63577 81.3055 -5.5322 81 -6.5 81C-8.98528 81 -11 83.0147 -11 85.5C-11 87.8153 -9.25142 89.7222 -7.00278 89.9722L-7 90H13.5Z" fill="#D1E7D5"/>
<path d="M125.5 30V29.8885C127.504 29.4338 129 27.6416 129 25.5C129 23.0147 126.985 21 124.5 21C123.532 21 122.636 21.3055 121.902 21.8254C121.343 18.5186 118.466 16 115 16C111.534 16 108.657 18.5186 108.098 21.8254C107.364 21.3055 106.468 21 105.5 21C103.015 21 101 23.0147 101 25.5C101 27.8153 102.749 29.7222 104.997 29.9722L105 30H125.5Z" fill="#D1E7D5"/>
</g>
<defs>
<clipPath id="clip0_624_59021">
<rect width="180" height="180" rx="90" fill="white"/>
</clipPath>
<clipPath id="clip1_624_59021">
<rect width="97.6408" height="97.6408" fill="white" transform="translate(55.4788 30.2075) rotate(15)"/>
</clipPath>
</defs>
</svg>
