<svg width="180" height="180" viewBox="0 0 180 180" fill="none" xmlns="http://www.w3.org/2000/svg">
<g clip-path="url(#clip0_624_61312)">
<circle cx="90" cy="90" r="90" fill="white"/>
<g clip-path="url(#clip1_624_61312)">
<path d="M90 45C65.186 45 45 65.186 45 90C45 114.814 65.186 135 90 135C114.814 135 135 114.814 135 90C135 65.186 114.814 45 90 45Z" fill="#55A363"/>
<path d="M112.808 80.4639L88.4323 104.838C87.7011 105.57 86.7412 105.938 85.7812 105.938C84.8213 105.938 83.8613 105.57 83.1301 104.838L70.9428 92.6511C69.4761 91.1851 69.4761 88.8149 70.9428 87.3489C72.4088 85.8821 74.7784 85.8821 76.2451 87.3489L85.7812 96.885L107.505 75.1616C108.971 73.6949 111.341 73.6949 112.808 75.1616C114.274 76.6276 114.274 78.9971 112.808 80.4639Z" fill="#FAFAFA"/>
</g>
<path d="M117.625 182.5V182.361C120.13 181.792 122 179.552 122 176.875C122 173.768 119.482 171.25 116.375 171.25C115.165 171.25 114.045 171.632 113.127 172.282C112.429 168.148 108.832 165 104.5 165C100.168 165 96.571 168.148 95.8727 172.282C94.9553 171.632 93.8347 171.25 92.625 171.25C89.5184 171.25 87 173.768 87 176.875C87 179.769 89.1857 182.153 91.9965 182.465L92 182.5H117.625Z" fill="#DFE7F1"/>
<path d="M185.625 47.5V47.3606C188.13 46.7922 190 44.552 190 41.875C190 38.7684 187.482 36.25 184.375 36.25C183.165 36.25 182.045 36.6319 181.127 37.2817C180.429 33.1483 176.832 30 172.5 30C168.168 30 164.571 33.1483 163.873 37.2817C162.955 36.6319 161.835 36.25 160.625 36.25C157.518 36.25 155 38.7684 155 41.875C155 44.7692 157.186 47.1528 159.997 47.4653L160 47.5H185.625Z" fill="#DFE7F1"/>
<path d="M82.75 29.5V29.3646C85.1834 28.8124 87 26.6362 87 24.0357C87 21.0179 84.5536 18.5714 81.5357 18.5714C80.3605 18.5714 79.272 18.9424 78.3808 19.5737C77.7024 15.5583 74.2084 12.5 70 12.5C65.7916 12.5 62.2976 15.5583 61.6192 19.5737C60.728 18.9424 59.6395 18.5714 58.4643 18.5714C55.4464 18.5714 53 21.0179 53 24.0357C53 26.8472 55.1233 29.1627 57.8538 29.4663L57.8571 29.5H82.75Z" fill="#FDF3C3"/>
<path d="M175.75 127V126.865C178.183 126.312 180 124.136 180 121.536C180 118.518 177.554 116.071 174.536 116.071C173.361 116.071 172.272 116.442 171.381 117.074C170.702 113.058 167.208 110 163 110C158.792 110 155.298 113.058 154.619 117.074C153.728 116.442 152.639 116.071 151.464 116.071C148.446 116.071 146 118.518 146 121.536C146 124.347 148.123 126.663 150.854 126.966L150.857 127H175.75Z" fill="#FFF6ED"/>
<path d="M31.125 109.5V109.377C33.3437 108.873 35 106.889 35 104.518C35 101.766 32.7694 99.5357 30.0179 99.5357C28.9464 99.5357 27.9539 99.874 27.1414 100.45C26.5228 96.7885 23.337 94 19.5 94C15.663 94 12.4772 96.7885 11.8586 100.45C11.0461 99.874 10.0536 99.5357 8.98214 99.5357C6.23058 99.5357 4 101.766 4 104.518C4 107.081 5.93593 109.192 8.4255 109.469L8.42857 109.5H31.125Z" fill="#F5F6F8"/>
</g>
<defs>
<clipPath id="clip0_624_61312">
<rect width="180" height="180" rx="90" fill="white"/>
</clipPath>
<clipPath id="clip1_624_61312">
<rect width="90" height="90" fill="white" transform="translate(45 45)"/>
</clipPath>
</defs>
</svg>
