<svg width="45" height="45" viewBox="0 0 45 45" fill="none" xmlns="http://www.w3.org/2000/svg">
<path d="M21.4738 27.9927C17.0178 27.9927 13.3926 24.3604 13.3926 19.8957V12.1131C13.3926 7.64839 17.0178 4.01611 21.4738 4.01611C25.9298 4.01611 29.555 7.64839 29.555 12.1131V19.8957C29.555 24.3604 25.9298 27.9927 21.4738 27.9927Z" fill="#7DBC88"/>
<path d="M21.4746 4.01611V27.9927C25.9307 27.9927 29.5559 24.3604 29.5559 19.8957V12.1131C29.5558 7.64839 25.9306 4.01611 21.4746 4.01611Z" fill="#55A363"/>
<path d="M21.4192 11.7998C20.8217 11.7998 20.3373 12.2851 20.3373 12.8838V16.1876L19.6163 15.458C19.1959 15.0326 18.511 15.0292 18.0863 15.4504C17.6617 15.8717 17.6583 16.558 18.0787 16.9834L20.3372 19.269V39.9027C20.3372 40.5014 20.8216 40.9867 21.4191 40.9867C22.0166 40.9867 22.501 40.5014 22.501 39.9027V12.8838C22.5011 12.2851 22.0167 11.7998 21.4192 11.7998Z" fill="#A34F3E"/>
<path d="M21.4746 11.8032V40.9845C22.0466 40.9559 22.502 40.4835 22.502 39.9033V12.8844C22.5019 12.3042 22.0466 11.8318 21.4746 11.8032Z" fill="#873F2E"/>
<path d="M10.0975 40.9249C9.50002 40.9249 9.01562 40.4396 9.01562 39.8409V33.168C9.01562 32.5693 9.50002 32.084 10.0975 32.084C10.695 32.084 11.1794 32.5693 11.1794 33.168V39.8409C11.1794 40.4396 10.695 40.9249 10.0975 40.9249Z" fill="#C86E59"/>
<path d="M10.0977 32.084V40.9249C10.6952 40.9249 11.1795 40.4396 11.1795 39.8409V33.168C11.1795 32.5692 10.6952 32.084 10.0977 32.084Z" fill="#A34F3E"/>
<path d="M10.0976 34.2524C8.34681 34.2524 6.76159 33.0183 5.63389 30.7775C4.62499 28.7726 4.06934 26.1309 4.06934 23.3392C4.06934 17.6195 9.01686 10.8441 9.22751 10.5585C9.43152 10.2819 9.7544 10.1187 10.0977 10.1187C10.4409 10.1187 10.7638 10.2819 10.9678 10.5585C11.1784 10.8442 16.1259 17.6195 16.1259 23.3392C16.1259 26.1309 15.5703 28.7726 14.5613 30.7775C13.4337 33.0183 11.8484 34.2524 10.0976 34.2524Z" fill="#7DBC88"/>
<path d="M10.9678 10.5585C10.8673 10.4222 10.7363 10.3113 10.5851 10.2349C10.434 10.1585 10.267 10.1187 10.0977 10.1187V34.2524C11.8484 34.2524 13.4337 33.0183 14.5614 30.7775C15.5703 28.7726 16.126 26.1309 16.126 23.3392C16.1259 17.6195 11.1784 10.8441 10.9678 10.5585Z" fill="#55A363"/>
<path d="M36.8741 13.4992C33.529 13.9616 30.7233 10.9173 31.5983 7.5138C32.0193 5.87576 33.3086 4.58394 34.9435 4.16205C38.3404 3.28533 41.3787 6.09653 40.9172 9.44821C40.6279 11.5497 38.9715 13.2093 36.8741 13.4992Z" fill="#FFDD54"/>
<path d="M36.2012 4V13.5452C36.4227 13.5452 36.6476 13.5305 36.8751 13.4991C38.9725 13.2092 40.6289 11.5496 40.9183 9.44811C41.3218 6.51737 39.0494 4 36.2012 4Z" fill="#FFB454"/>
<path d="M36.3094 26.2184C35.7119 26.2184 35.2275 25.7331 35.2275 25.1344V19.0718C35.2275 18.4731 35.7119 17.9878 36.3094 17.9878C36.9069 17.9878 37.3913 18.4731 37.3913 19.0718V25.1344C37.3913 25.7331 36.9069 26.2184 36.3094 26.2184Z" fill="#FF405C"/>
<path d="M14.6709 40.9999V26.7343C14.6709 26.631 14.7151 26.5325 14.7922 26.464L26.3078 16.2287C26.3738 16.1701 26.4589 16.1377 26.5471 16.1377C26.6354 16.1377 26.7205 16.1701 26.7864 16.2287L38.302 26.464C38.3401 26.498 38.3707 26.5396 38.3916 26.5862C38.4125 26.6328 38.4233 26.6833 38.4233 26.7343V40.9998H14.6709V40.9999Z" fill="#FFF2DE"/>
<path d="M38.3027 26.4641L26.7872 16.2287C26.7213 16.1701 26.6361 16.1377 26.5479 16.1377V40.9998H38.4241V26.7343C38.424 26.6833 38.4132 26.6328 38.3923 26.5862C38.3714 26.5396 38.3409 26.498 38.3027 26.4641Z" fill="#FDE4C3"/>
<path d="M24.0479 41.0002H17.5566V29.6821C17.5566 29.0835 18.041 28.5981 18.6385 28.5981H22.966C23.5635 28.5981 24.0479 29.0835 24.0479 29.6821V41.0002Z" fill="#A34F3E"/>
<path d="M33.3527 34.9205H29.6549C29.2323 34.9205 28.8896 34.5773 28.8896 34.1539V30.4488C28.8896 30.0254 29.2323 29.6821 29.6549 29.6821H33.3527C33.7753 29.6821 34.1179 30.0254 34.1179 30.4488V34.1539C34.1179 34.5773 33.7753 34.9205 33.3527 34.9205Z" fill="#C8FFFF"/>
<path d="M34.1187 36.0045H28.8905C28.293 36.0045 27.8086 35.5192 27.8086 34.9205V29.6821C27.8086 29.0835 28.293 28.5981 28.8905 28.5981H34.1187C34.7162 28.5981 35.2006 29.0835 35.2006 29.6821V34.9205C35.2005 35.5192 34.7162 36.0045 34.1187 36.0045ZM29.9723 33.8365H33.0367V30.7661H29.9723V33.8365Z" fill="#A34F3E"/>
<path d="M39.8461 29.4028C39.5815 29.4031 39.326 29.3059 39.1286 29.1297L26.5482 17.948L13.9678 29.1297C13.5209 29.527 12.8371 29.4861 12.4405 29.0382C12.044 28.5903 12.0849 27.9052 12.532 27.5079L25.8303 15.6881C26.0281 15.5122 26.2835 15.415 26.5482 15.415C26.8129 15.415 27.0683 15.5122 27.2661 15.6881L40.5644 27.5079C41.0114 27.9053 41.0523 28.5903 40.6559 29.0382C40.5545 29.1529 40.4299 29.2448 40.2903 29.3077C40.1506 29.3706 39.9992 29.403 39.8461 29.4028Z" fill="#FF405C"/>
<path d="M40.5642 27.508L27.2658 15.6881C27.0681 15.512 26.8126 15.4148 26.5479 15.415V17.948L39.1283 29.1298C39.3257 29.3059 39.5812 29.4031 39.8458 29.4028C40.1445 29.4028 40.4418 29.2796 40.6555 29.0382C41.0521 28.5904 41.0112 27.9053 40.5642 27.508Z" fill="#E20059"/>
<path d="M39.9181 41.0002H5.08189C4.4844 40.9863 4 40.501 4 39.9023C4 39.3037 4.4844 38.8184 5.08189 38.8184H39.9181C40.5156 38.8184 41 39.3037 41 39.9023C41 40.501 40.5156 40.9863 39.9181 41.0002Z" fill="#7DBC88"/>
<path d="M39.9184 38.8184H22.502V41.0002H39.9184C40.5159 40.9863 41.0003 40.501 41.0003 39.9023C41.0003 39.3036 40.5159 38.8184 39.9184 38.8184Z" fill="#55A363"/>
</svg>
