<svg width="45" height="45" viewBox="0 0 45 45" fill="none" xmlns="http://www.w3.org/2000/svg">
<path d="M7.03125 40.7812V4.92188H30.2344L35.1562 9.84375V40.7812H7.03125Z" fill="#85BB40"/>
<path d="M7.03125 4.92188L35.1562 40.7812H7.03125V4.92188Z" fill="#85B140"/>
<path d="M30.2344 4.92188V9.84375H35.1562L30.2344 4.92188Z" fill="#D1DF87"/>
<path d="M11.9531 10.5469C11.3939 10.5462 10.8577 10.3238 10.4623 9.92836C10.0668 9.53291 9.84438 8.99675 9.84375 8.4375V4.21875C9.84375 3.47283 10.1401 2.75746 10.6675 2.23001C11.195 1.70257 11.9103 1.40625 12.6562 1.40625C13.4022 1.40625 14.1175 1.70257 14.645 2.23001C15.1724 2.75746 15.4688 3.47283 15.4688 4.21875V4.92188H14.0625V4.21875C14.0625 3.84579 13.9143 3.4881 13.6506 3.22438C13.3869 2.96066 13.0292 2.8125 12.6562 2.8125C12.2833 2.8125 11.9256 2.96066 11.6619 3.22438C11.3982 3.4881 11.25 3.84579 11.25 4.21875V8.4375C11.25 8.62398 11.3241 8.80282 11.4559 8.93468C11.5878 9.06655 11.7666 9.14062 11.9531 9.14062C12.1396 9.14062 12.3184 9.06655 12.4503 8.93468C12.5822 8.80282 12.6562 8.62398 12.6562 8.4375V7.03125H14.0625V8.4375C14.0619 8.99675 13.8394 9.53291 13.444 9.92836C13.0485 10.3238 12.5124 10.5462 11.9531 10.5469Z" fill="#0093B9"/>
<path d="M22.5 28.8281V42.8906H4.21875V28.8281L13.3594 23.9062L22.5 28.8281Z" fill="#E4E4E3"/>
<path d="M7.73438 33.0469H11.9531V42.8906H7.73438V33.0469ZM14.7656 34.4531H18.9844V37.9688H14.7656V34.4531Z" fill="#0093B9"/>
<path d="M9.14062 29.5312H10.5469V30.9375H9.14062V29.5312Z" fill="#FBBE1F"/>
<path d="M22.5 28.8281V30.7178L13.3594 26.7188L4.21875 30.7178V28.8281L13.3594 23.9062L22.5 28.8281Z" fill="#CACAC9"/>
<path d="M2.10938 26.7188L13.3594 21.7969L24.6094 26.7188V30.2344L13.3594 25.3125L2.10938 30.2344V26.7188ZM23.9062 35.1562C22.5 35.1562 21.7969 36.5625 21.7969 37.9688C21.7969 39.375 20.3906 39.375 20.3906 40.8016C20.3906 42.2283 21.7969 42.8906 22.5 42.8906H25.3125C26.0156 42.8906 27.4219 42.2282 27.4219 40.8016C27.4219 39.3751 26.0156 39.375 26.0156 37.9688C26.0156 36.5625 25.3125 35.1562 23.9062 35.1562Z" fill="#0093B9"/>
<path d="M42.2523 17.406L30.8293 34.2966L28.0889 35.8385L28.4996 32.721L39.9225 15.8304C40.1315 15.5214 40.4546 15.3081 40.8208 15.2374C41.187 15.1667 41.5663 15.2444 41.8752 15.4533C42.1842 15.6623 42.3974 15.9854 42.4681 16.3516C42.5389 16.7177 42.4612 17.097 42.2523 17.406Z" fill="#FBBE1F"/>
<path d="M39.6496 27.5294L38.4847 26.7416L41.3284 22.5368L37.9406 18.7602L38.7526 17.5596L42.7417 22.0068C42.8464 22.1236 42.9091 22.2719 42.9198 22.4283C42.9305 22.5848 42.8886 22.7403 42.8008 22.8702L39.6496 27.5294ZM30.4521 29.8136L31.2396 28.6493L33.5684 30.2243L32.7809 31.3886L30.4521 29.8136Z" fill="#F79726"/>
<path d="M11.9531 12.6562H13.3594V14.0625H11.9531V12.6562ZM14.7656 12.6562H31.6406V14.0625H14.7656V12.6562ZM10.5469 15.4688H31.6406V16.875H10.5469V15.4688ZM10.5469 18.2812H31.6406V19.6875H10.5469V18.2812ZM21.0938 21.0938H31.6406V22.5H21.0938V21.0938ZM26.7188 23.9062H28.8281V25.3125H26.7188V23.9062Z" fill="#D1DF87"/>
</svg>
