<svg width="268" height="182" viewBox="0 0 268 182" fill="none" xmlns="http://www.w3.org/2000/svg">
<path d="M196.136 81.2439L196.087 81.27L196.136 81.2439Z" fill="#34509A"/>
<path d="M196.086 81.2704L174.827 91.8696L175.194 87.5792L190.038 71.9197L196.086 81.2704Z" fill="#3C7846"/>
<path d="M196.13 81.3369L196.087 81.2696L196.13 81.3369Z" fill="#34509A"/>
<path d="M176.223 62.7345L224.859 107.951C227.146 110.077 230.864 109.158 231.896 106.212L267.047 5.82584C268.195 2.54837 265.206 -0.677086 261.848 0.214798L150.518 29.7812C147.226 30.6556 146.188 34.8119 148.683 37.1306L176.223 62.7345Z" fill="#55A363"/>
<path d="M252.13 14.453L189.911 75.4467L175.134 91.6226C174.015 92.7458 172.114 91.7875 172.35 90.2226L176.497 62.9732L252.13 14.453Z" fill="#44824F"/>
<path d="M71.1267 68.8278C71.1104 68.8278 71.0939 68.8259 71.0774 68.8222C71.0405 68.814 71.0032 68.8058 70.9658 68.7983C70.5023 68.7053 70.0319 68.6875 69.5678 68.7448C69.3534 68.7693 69.1681 68.4814 69.1533 68.0968C69.1386 67.7123 69.3003 67.3793 69.5144 67.3529C70.0252 67.2898 70.5427 67.3099 71.0518 67.4116C71.0928 67.4197 71.1341 67.4286 71.175 67.4382C71.388 67.4866 71.5389 67.8355 71.5119 68.2178C71.4868 68.5702 71.3196 68.8278 71.1267 68.8278ZM64.4288 72.3173C64.3085 72.3173 64.1899 72.2178 64.1139 72.0296C63.9878 71.7177 64.0263 71.2816 64.2001 71.0551C64.653 70.4653 65.1191 69.936 65.5853 69.4824C65.7741 69.2989 66.01 69.4249 66.112 69.7635C66.2142 70.1023 66.1442 70.5258 65.9554 70.7095C65.5191 71.1339 65.0822 71.63 64.6569 72.1843C64.5878 72.2741 64.5078 72.3173 64.4288 72.3173ZM76.0607 73.0694C75.9686 73.0694 75.876 73.0109 75.802 72.892C75.4107 72.2654 75.0036 71.7001 74.5913 71.2124C74.4122 71.0004 74.3627 70.5679 74.4809 70.2458C74.599 69.9243 74.8401 69.8355 75.0193 70.0477C75.4628 70.5728 75.9004 71.1795 76.3196 71.8513C76.4796 72.1079 76.4938 72.5489 76.3507 72.8364C76.274 72.9906 76.1675 73.0694 76.0607 73.0694ZM60.6024 79.5005C60.5261 79.5005 60.449 79.4603 60.3814 79.3764C60.2049 79.1569 60.161 78.7222 60.2833 78.4056C60.5927 77.6031 60.9217 76.8223 61.2607 76.0845C61.3972 75.787 61.642 75.7445 61.8078 75.9899C61.9734 76.235 61.9968 76.6748 61.8604 76.9721C61.5352 77.68 61.2196 78.4297 60.9223 79.2002C60.8467 79.3955 60.7255 79.5005 60.6024 79.5005ZM79.4186 80.9657C79.2805 80.9657 79.1466 80.8332 79.0762 80.5998C78.8246 79.7636 78.5576 78.9541 78.2827 78.1934C78.1658 77.8702 78.2173 77.4381 78.3972 77.2285C78.5778 77.0191 78.8181 77.1109 78.9349 77.4339C79.221 78.2259 79.4986 79.0676 79.7603 79.9363C79.8621 80.2754 79.7918 80.6986 79.603 80.8818C79.5443 80.9389 79.4809 80.9657 79.4186 80.9657ZM58.0268 88.3225C57.979 88.3225 57.9304 88.3066 57.8831 88.2727C57.6838 88.1302 57.5865 87.7247 57.6659 87.3664C57.864 86.4737 58.0784 85.581 58.3035 84.7128C58.394 84.3632 58.6248 84.212 58.8198 84.3744C59.0143 84.5369 59.0987 84.9519 59.0083 85.3013C58.7895 86.1459 58.5807 87.0145 58.388 87.8827C58.3274 88.1559 58.1812 88.3225 58.0268 88.3225ZM81.5124 90.1958C81.3461 90.1958 81.1924 90.003 81.1411 89.7032C80.9871 88.8046 80.82 87.9051 80.6444 87.0292C80.5716 86.6668 80.6765 86.2671 80.8785 86.1365C81.0803 86.0066 81.3033 86.1945 81.3758 86.5567C81.5555 87.4534 81.7264 88.3739 81.8839 89.2928C81.9473 89.6614 81.832 90.0514 81.6267 90.1647C81.5887 90.1858 81.5501 90.1958 81.5124 90.1958ZM56.4796 97.8919C56.4556 97.8919 56.4312 97.8879 56.4067 97.8795C56.1958 97.8078 56.0573 97.4428 56.0971 97.0642C56.1969 96.1207 56.312 95.171 56.4395 94.2416C56.4907 93.8677 56.701 93.6379 56.9098 93.7309C57.1182 93.823 57.2457 94.2009 57.1943 94.5753C57.0699 95.4802 56.958 96.4051 56.8608 97.324C56.8257 97.6589 56.6626 97.8919 56.4796 97.8919ZM82.7095 99.9312C82.5187 99.9312 82.3516 99.6785 82.3257 99.3294C82.2532 98.3981 82.1689 97.4617 82.0743 96.5451C82.0355 96.1668 82.1754 95.8027 82.3866 95.7326C82.5949 95.662 82.7993 95.9127 82.8384 96.292C82.936 97.2285 83.0219 98.1859 83.0948 99.1375C83.1248 99.5191 82.9764 99.8716 82.7642 99.9246C82.7459 99.9291 82.7277 99.9312 82.7095 99.9312ZM162.843 100.931C162.721 100.931 162.601 100.829 162.525 100.637C162.4 100.322 162.442 99.8867 162.618 99.6643C163.05 99.1162 163.48 98.5659 163.91 98.013C164.084 97.7886 164.327 97.8606 164.451 98.1735C164.577 98.4867 164.537 98.9225 164.362 99.1471C163.931 99.7019 163.499 100.254 163.067 100.803C162.998 100.89 162.92 100.931 162.843 100.931ZM158.268 106.603C158.143 106.603 158.021 106.496 157.945 106.296C157.825 105.976 157.874 105.543 158.051 105.327C158.488 104.797 158.927 104.264 159.363 103.728C159.54 103.511 159.781 103.593 159.903 103.91C160.023 104.229 159.979 104.663 159.8 104.88C159.364 105.417 158.925 105.952 158.485 106.484C158.418 106.565 158.344 106.603 158.268 106.603ZM55.9606 107.814C55.9606 107.814 55.9606 107.814 55.9604 107.814C55.7459 107.814 55.5718 107.502 55.5718 107.116C55.572 106.158 55.5865 105.187 55.6149 104.229C55.6264 103.844 55.8125 103.549 56.0237 103.57C56.238 103.59 56.4026 103.919 56.3911 104.304C56.3634 105.236 56.3493 106.183 56.3492 107.117C56.3492 107.502 56.1751 107.814 55.9606 107.814ZM83.0415 109.884C83.0402 109.884 83.0376 109.884 83.035 109.883C82.8201 109.877 82.6496 109.559 82.6535 109.174C82.6574 108.808 82.6587 108.442 82.6587 108.075C82.6587 107.504 82.6548 106.925 82.6457 106.353C82.6405 105.968 82.8097 105.648 83.0245 105.638C83.2433 105.621 83.4177 105.932 83.4229 106.316C83.432 106.9 83.4359 107.492 83.4359 108.075C83.4359 108.45 83.4346 108.824 83.4307 109.198C83.4268 109.579 83.255 109.884 83.0415 109.884ZM153.625 112.092C153.497 112.092 153.373 111.979 153.297 111.772C153.181 111.448 153.234 111.016 153.415 110.808C153.86 110.295 154.302 109.779 154.745 109.261C154.926 109.051 155.167 109.142 155.283 109.465C155.401 109.788 155.35 110.219 155.171 110.43C154.727 110.95 154.28 111.467 153.835 111.981C153.77 112.057 153.697 112.092 153.625 112.092ZM148.916 117.396C148.785 117.396 148.657 117.278 148.583 117.063C148.471 116.734 148.529 116.305 148.712 116.103C149.164 115.608 149.613 115.11 150.062 114.609C150.244 114.407 150.484 114.507 150.597 114.834C150.71 115.162 150.654 115.592 150.472 115.795C150.022 116.297 149.57 116.796 149.118 117.293C149.054 117.363 148.984 117.396 148.916 117.396ZM56.4781 117.737C56.295 117.737 56.1319 117.503 56.0966 117.169C55.997 116.227 55.9104 115.267 55.8394 114.317C55.811 113.935 55.9603 113.584 56.1728 113.533C56.3868 113.483 56.5815 113.75 56.6098 114.131C56.6791 115.057 56.7633 115.991 56.8603 116.909C56.9003 117.288 56.7616 117.652 56.5507 117.724C56.5264 117.733 56.502 117.737 56.4781 117.737ZM82.5303 119.812C82.5083 119.812 82.4863 119.809 82.4643 119.802C82.2532 119.738 82.1106 119.378 82.1456 118.998C82.2336 118.075 82.3101 117.136 82.3749 116.206C82.4021 115.824 82.5962 115.555 82.8084 115.601C83.0232 115.649 83.173 115.998 83.1469 116.38C83.0792 117.33 83.0024 118.288 82.9126 119.231C82.88 119.571 82.716 119.812 82.5303 119.812ZM-0.129589 120.129C-0.326046 120.129 -0.494774 119.863 -0.515606 119.504C-0.537737 119.121 -0.382811 118.778 -0.169298 118.738C0.361488 118.639 0.900085 118.561 1.43217 118.506C1.64634 118.486 1.83004 118.778 1.84227 119.163C1.85451 119.547 1.69073 119.877 1.47631 119.899C0.956455 119.953 0.429836 120.029 -0.0888405 120.126C-0.10251 120.128 -0.116049 120.129 -0.129589 120.129ZM7.00744 120.138C6.99377 120.138 6.98011 120.137 6.96618 120.134C6.44802 120.037 5.9214 119.959 5.40103 119.905C5.18673 119.882 5.02321 119.552 5.03571 119.168C5.04821 118.783 5.23282 118.494 5.44633 118.512C5.97868 118.568 6.51741 118.647 7.04767 118.747C7.26105 118.787 7.41598 119.131 7.39346 119.514C7.3725 119.872 7.20377 120.138 7.00744 120.138ZM-5.58639 121.975C-5.75694 121.975 -5.9133 121.772 -5.96082 121.462C-6.01797 121.091 -5.8965 120.707 -5.68963 120.604C-5.17707 120.351 -4.65279 120.115 -4.13099 119.904C-3.9219 119.819 -3.7136 120.055 -3.66634 120.431C-3.61921 120.807 -3.7507 121.18 -3.96005 121.265C-4.46974 121.471 -4.98217 121.701 -5.48288 121.949C-5.51739 121.966 -5.55215 121.975 -5.58639 121.975ZM12.4642 121.993C12.4296 121.993 12.3946 121.985 12.3598 121.967C11.8602 121.718 11.3481 121.486 10.8379 121.279C10.6284 121.195 10.4972 120.821 10.5445 120.445C10.5917 120.069 10.7996 119.833 11.0092 119.919C11.5318 120.13 12.0561 120.367 12.5681 120.623C12.7749 120.726 12.8958 121.111 12.8385 121.482C12.7905 121.791 12.6343 121.993 12.4642 121.993ZM144.142 122.513C144.008 122.513 143.878 122.388 143.806 122.166C143.698 121.833 143.761 121.406 143.947 121.212C144.403 120.735 144.858 120.255 145.314 119.772C145.499 119.576 145.737 119.686 145.847 120.018C145.956 120.35 145.893 120.777 145.71 120.973C145.253 121.457 144.795 121.939 144.338 122.418C144.275 122.482 144.209 122.513 144.142 122.513ZM-10.796 125.418C-10.9423 125.418 -11.0825 125.269 -11.1485 125.015C-11.2393 124.666 -11.1551 124.251 -10.9605 124.088C-10.4774 123.684 -9.98213 123.294 -9.4891 122.932C-9.2903 122.786 -9.06325 122.956 -8.98201 123.313C-8.90064 123.669 -8.99568 124.077 -9.19435 124.223C-9.67606 124.577 -10.1598 124.957 -10.6319 125.353C-10.6852 125.397 -10.741 125.418 -10.796 125.418ZM17.6557 125.525C17.5978 125.525 17.5392 125.501 17.4837 125.452C17.0225 125.042 16.5438 124.648 16.0604 124.28C15.8627 124.13 15.7704 123.72 15.8544 123.365C15.9381 123.011 16.1662 122.846 16.3638 122.996C16.8609 123.374 17.3538 123.78 17.8282 124.201C18.0206 124.372 18.0995 124.79 18.0044 125.136C17.9367 125.382 17.7989 125.525 17.6557 125.525ZM58.0314 127.304C57.8771 127.304 57.7313 127.138 57.6705 126.865C57.4716 125.973 57.2845 125.061 57.1143 124.153C57.0458 123.788 57.1553 123.392 57.3588 123.269C57.563 123.146 57.7826 123.343 57.8512 123.708C58.0165 124.591 58.1984 125.479 58.392 126.347C58.4719 126.705 58.3749 127.111 58.1755 127.254C58.1282 127.288 58.0794 127.304 58.0314 127.304ZM139.307 127.441C139.172 127.441 139.038 127.311 138.967 127.081C138.863 126.743 138.932 126.319 139.12 126.132C139.582 125.673 140.043 125.211 140.505 124.746C140.691 124.556 140.928 124.677 141.033 125.012C141.138 125.348 141.072 125.774 140.885 125.962C140.423 126.429 139.959 126.892 139.495 127.353C139.436 127.412 139.371 127.441 139.307 127.441ZM81.1954 129.491C81.155 129.491 81.1143 129.48 81.0738 129.456C80.8699 129.336 80.759 128.941 80.8259 128.575C80.9886 127.687 81.1429 126.779 81.2845 125.877C81.3426 125.506 81.5572 125.291 81.7639 125.394C81.9706 125.499 82.0912 125.884 82.0329 126.255C81.8878 127.176 81.7306 128.104 81.5643 129.011C81.5106 129.304 81.3586 129.491 81.1954 129.491ZM-15.6161 130.362C-15.7401 130.362 -15.8618 130.256 -15.9372 130.059C-16.0584 129.742 -16.0132 129.307 -15.8363 129.089C-15.3949 128.547 -14.9423 128.017 -14.491 127.515C-14.3086 127.312 -14.0689 127.414 -13.9559 127.741C-13.8431 128.069 -13.8993 128.499 -14.0818 128.702C-14.5229 129.192 -14.9653 129.71 -15.3967 130.24C-15.4641 130.323 -15.5405 130.362 -15.6161 130.362ZM22.3501 130.843C22.2689 130.843 22.1872 130.798 22.1172 130.703C21.6906 130.129 21.2615 129.572 20.8417 129.049C20.6656 128.83 20.6217 128.395 20.7442 128.078C20.8663 127.762 21.1085 127.683 21.285 127.903C21.7126 128.436 22.1495 129.003 22.5838 129.587C22.7554 129.819 22.7902 130.256 22.6613 130.564C22.585 130.747 22.4683 130.843 22.3501 130.843ZM134.415 132.178C134.274 132.178 134.14 132.042 134.07 131.804C133.971 131.463 134.042 131.041 134.234 130.862C134.701 130.421 135.168 129.977 135.634 129.53C135.825 129.349 136.06 129.478 136.16 129.818C136.262 130.157 136.19 130.58 136 130.762C135.533 131.209 135.063 131.655 134.594 132.097C134.536 132.152 134.476 132.178 134.415 132.178ZM60.5961 136.141C60.4693 136.141 60.3451 136.03 60.2705 135.825C59.9767 135.019 59.6929 134.19 59.4271 133.363C59.3197 133.029 59.3835 132.603 59.5694 132.41C59.7554 132.218 59.9931 132.332 60.1004 132.666C60.3589 133.471 60.6352 134.276 60.9211 135.061C61.0385 135.384 60.988 135.816 60.8085 136.027C60.7429 136.104 60.669 136.141 60.5961 136.141ZM-19.9371 136.62C-20.0408 136.62 -20.144 136.547 -20.2204 136.401C-20.3674 136.12 -20.3599 135.679 -20.2036 135.415C-19.8136 134.756 -19.4127 134.107 -19.0123 133.486C-18.8499 133.235 -18.6044 133.267 -18.464 133.558C-18.3238 133.85 -18.3418 134.291 -18.5041 134.542C-18.8964 135.15 -19.2889 135.786 -19.671 136.431C-19.746 136.558 -19.8417 136.62 -19.9371 136.62ZM129.465 136.722C129.322 136.722 129.185 136.58 129.116 136.335C129.019 135.99 129.099 135.571 129.29 135.399C129.764 134.977 130.237 134.551 130.708 134.123C130.899 133.949 131.134 134.087 131.23 134.431C131.328 134.775 131.251 135.194 131.06 135.368C130.586 135.797 130.112 136.224 129.637 136.649C129.581 136.698 129.522 136.722 129.465 136.722ZM26.6208 137.228C26.5277 137.228 26.4346 137.168 26.3601 137.048C25.9568 136.393 25.559 135.759 25.1777 135.164C25.0158 134.912 24.9984 134.471 25.1392 134.18C25.28 133.889 25.5255 133.859 25.6874 134.111C26.0728 134.712 26.4744 135.352 26.8816 136.013C27.0407 136.271 27.053 136.712 26.9091 136.998C26.8324 137.15 26.7269 137.228 26.6208 137.228ZM79.0661 138.7C79.0069 138.7 78.9467 138.676 78.8905 138.624C78.6991 138.45 78.6227 138.03 78.7198 137.686C78.9556 136.852 79.1843 135.997 79.3999 135.144C79.4886 134.793 79.7185 134.637 79.9145 134.797C80.11 134.956 80.1965 135.369 80.1079 135.72C79.8876 136.592 79.6536 137.466 79.4129 138.318C79.3445 138.56 79.2079 138.7 79.0661 138.7ZM124.462 141.072C124.314 141.072 124.175 140.924 124.109 140.671C124.016 140.323 124.101 139.907 124.295 139.743C124.774 139.339 125.25 138.932 125.727 138.522C125.921 138.356 126.153 138.503 126.246 138.85C126.339 139.198 126.257 139.614 126.063 139.781C125.584 140.192 125.105 140.6 124.626 141.005C124.572 141.051 124.516 141.072 124.462 141.072ZM64.0588 143.931C63.9569 143.931 63.8549 143.859 63.7786 143.717C63.4073 143.023 63.0425 142.306 62.6943 141.584C62.5538 141.292 62.5714 140.852 62.7337 140.6C62.8961 140.348 63.1413 140.379 63.2818 140.67C63.6215 141.374 63.9772 142.074 64.3392 142.75C64.4879 143.028 64.483 143.47 64.3282 143.736C64.2529 143.867 64.1558 143.931 64.0588 143.931ZM-23.7012 143.95C-23.7865 143.95 -23.8724 143.9 -23.9443 143.796C-24.1117 143.555 -24.1382 143.116 -24.0042 142.815C-23.67 142.068 -23.3244 141.325 -22.9773 140.607C-22.8366 140.316 -22.5913 140.284 -22.4291 140.537C-22.2669 140.789 -22.2496 141.23 -22.3902 141.521C-22.7309 142.226 -23.0699 142.956 -23.3979 143.689C-23.4747 143.861 -23.5874 143.95 -23.7012 143.95ZM30.6649 144.077C30.5676 144.077 30.4703 144.012 30.395 143.881C30.014 143.222 29.6331 142.563 29.2511 141.905C29.0963 141.639 29.0911 141.197 29.2395 140.919C29.3883 140.641 29.6343 140.632 29.7891 140.898C30.1716 141.557 30.5533 142.217 30.9347 142.877C31.0891 143.145 31.0937 143.587 30.9445 143.864C30.8682 144.006 30.7665 144.077 30.6649 144.077ZM119.405 145.226C119.257 145.226 119.115 145.072 119.049 144.812C118.964 144.459 119.051 144.047 119.247 143.891C119.73 143.505 120.213 143.117 120.694 142.726C120.89 142.567 121.12 142.723 121.208 143.074C121.298 143.425 121.211 143.838 121.015 143.997C120.532 144.389 120.048 144.778 119.562 145.166C119.513 145.206 119.458 145.226 119.405 145.226ZM76.1748 147.212C76.0959 147.212 76.0161 147.169 75.9474 147.079C75.7735 146.853 75.7345 146.417 75.8603 146.105C76.1642 145.351 76.4641 144.57 76.7518 143.784C76.8698 143.462 77.1105 143.372 77.29 143.584C77.4694 143.795 77.5194 144.227 77.4016 144.549C77.1075 145.353 76.8008 146.152 76.49 146.923C76.4141 147.111 76.2952 147.212 76.1748 147.212ZM114.3 149.182C114.149 149.182 114.006 149.021 113.943 148.753C113.859 148.398 113.953 147.989 114.15 147.84C114.639 147.474 115.126 147.104 115.611 146.732C115.81 146.581 116.038 146.746 116.122 147.101C116.205 147.455 116.115 147.865 115.916 148.016C115.429 148.389 114.941 148.76 114.451 149.128C114.402 149.164 114.351 149.182 114.3 149.182ZM68.2444 150.483C68.165 150.483 68.0848 150.44 68.0157 150.349C67.5841 149.784 67.1553 149.193 66.7405 148.591C66.5734 148.349 66.5474 147.91 66.6821 147.61C66.817 147.31 67.0619 147.263 67.2288 147.506C67.6337 148.093 68.0525 148.67 68.4737 149.222C68.6471 149.449 68.6851 149.885 68.5587 150.196C68.4825 150.384 68.3642 150.483 68.2444 150.483ZM34.6997 150.943C34.6061 150.943 34.5122 150.883 34.4376 150.76C34.0644 150.149 33.682 149.512 33.2688 148.816C33.1123 148.552 33.1045 148.111 33.2515 147.83C33.3982 147.548 33.6443 147.534 33.8008 147.799C34.2115 148.491 34.5913 149.122 34.9619 149.73C35.1204 149.99 35.1317 150.431 34.9866 150.716C34.9101 150.866 34.805 150.943 34.6997 150.943ZM-26.9013 152.098C-26.9712 152.098 -27.0419 152.065 -27.1057 151.993C-27.2882 151.791 -27.3443 151.361 -27.2314 151.033C-26.9492 150.215 -26.6582 149.402 -26.3665 148.616C-26.2473 148.296 -26.0062 148.208 -25.8275 148.422C-25.6488 148.636 -25.6004 149.069 -25.7194 149.39C-26.0065 150.163 -26.2929 150.963 -26.5707 151.768C-26.6442 151.981 -26.7712 152.098 -26.9013 152.098ZM109.146 152.923C108.991 152.923 108.843 152.753 108.783 152.476C108.707 152.116 108.806 151.712 109.007 151.574C109.5 151.232 109.992 150.886 110.482 150.536C110.681 150.393 110.906 150.568 110.987 150.926C111.066 151.284 110.969 151.69 110.769 151.832C110.277 152.184 109.783 152.532 109.287 152.877C109.241 152.907 109.193 152.923 109.146 152.923ZM72.9938 155.651C72.9358 155.651 72.8771 155.627 72.8216 155.579C72.3432 155.153 71.8644 154.702 71.3988 154.235C71.2112 154.049 71.1441 153.623 71.2486 153.286C71.3528 152.951 71.5893 152.829 71.7773 153.016C71.9561 153.195 72.1371 153.372 72.3191 153.546C72.681 152.904 73.0386 152.237 73.3824 151.564C73.5277 151.28 73.7733 151.261 73.9315 151.522C74.0897 151.783 74.1002 152.224 73.9551 152.508C73.6597 153.086 73.3539 153.66 73.0443 154.218C73.085 154.255 73.1258 154.293 73.1665 154.328C73.3589 154.5 73.4376 154.918 73.3424 155.262C73.2745 155.509 73.137 155.651 72.9938 155.651ZM103.912 156.29C103.75 156.29 103.597 156.104 103.543 155.809C103.477 155.444 103.588 155.049 103.791 154.93C104.279 154.644 104.783 154.337 105.291 154.023C105.494 153.897 105.715 154.09 105.786 154.453C105.856 154.818 105.748 155.216 105.546 155.341C105.033 155.66 104.525 155.967 104.035 156.255C103.994 156.278 103.953 156.29 103.912 156.29ZM38.953 157.369C38.8711 157.369 38.7886 157.323 38.7184 157.227C38.3026 156.66 37.8786 156.065 37.4581 155.453C37.2911 155.211 37.2652 154.772 37.4002 154.472C37.5353 154.172 37.7799 154.125 37.9468 154.369C38.3611 154.969 38.7787 155.558 39.188 156.116C39.3591 156.348 39.3925 156.786 39.2629 157.092C39.1863 157.274 39.0705 157.369 38.953 157.369ZM98.5693 159.051C98.3948 159.051 98.236 158.839 98.193 158.52C98.1422 158.146 98.2685 157.767 98.4781 157.676C98.9768 157.457 99.491 157.218 100.007 156.969C100.214 156.867 100.427 157.088 100.483 157.46C100.54 157.832 100.417 158.213 100.21 158.316C99.6876 158.569 99.1668 158.809 98.663 159.032C98.6317 159.046 98.6005 159.051 98.5693 159.051ZM78.1637 159.295C78.1273 159.295 78.0903 159.285 78.0535 159.264C77.543 158.995 77.0282 158.697 76.5234 158.378C76.3208 158.251 76.2141 157.853 76.2852 157.488C76.3563 157.125 76.578 156.934 76.7807 157.062C77.2732 157.371 77.7757 157.662 78.2739 157.927C78.4797 158.037 78.5973 158.425 78.5364 158.795C78.4865 159.097 78.3316 159.295 78.1637 159.295ZM-29.5682 160.846C-29.6249 160.846 -29.6824 160.822 -29.7368 160.776C-29.9302 160.609 -30.0113 160.192 -29.9179 159.844C-29.6859 158.983 -29.4453 158.118 -29.2027 157.278C-29.1038 156.934 -28.8692 156.802 -28.6789 156.979C-28.4883 157.158 -28.4138 157.579 -28.5125 157.92C-28.7518 158.748 -28.9893 159.599 -29.2179 160.45C-29.2849 160.699 -29.4237 160.846 -29.5682 160.846ZM93.1117 160.937C92.9203 160.937 92.7537 160.683 92.7276 160.334C92.699 159.953 92.8474 159.599 93.0596 159.548C93.5713 159.423 94.0946 159.278 94.6167 159.12C94.8302 159.055 95.0307 159.311 95.0658 159.69C95.1023 160.069 94.9591 160.429 94.7482 160.495C94.217 160.657 93.6845 160.804 93.1651 160.929C93.1468 160.934 93.1299 160.937 93.1117 160.937ZM68.287 161.139C68.1629 161.139 68.0411 161.032 67.9658 160.834C67.8446 160.515 67.8902 160.081 68.0675 159.864C68.494 159.341 68.9215 158.785 69.3378 158.216C69.5084 157.981 69.7524 158.039 69.8827 158.346C70.013 158.65 69.9805 159.09 69.81 159.323C69.3825 159.909 68.9438 160.478 68.506 161.015C68.4389 161.099 68.3625 161.139 68.287 161.139ZM83.6078 161.262C83.5935 161.262 83.5791 161.262 83.5635 161.257C83.2498 161.195 82.9295 161.123 82.6144 161.044C82.3995 160.99 82.1844 160.932 81.9706 160.869C81.7587 160.808 81.615 160.45 81.6493 160.069C81.6836 159.688 81.883 159.43 82.0951 159.492C82.3037 159.553 82.5135 159.609 82.7225 159.662C83.031 159.739 83.3422 159.811 83.6495 159.871C83.863 159.913 84.0179 160.26 83.9945 160.641C83.9723 160.999 83.8044 161.262 83.6078 161.262ZM87.5708 161.646C87.3573 161.646 87.1828 161.334 87.1828 160.948C87.1828 160.562 87.356 160.25 87.5695 160.25C88.0876 160.248 88.6162 160.227 89.1422 160.185C89.3544 160.169 89.538 160.469 89.5471 160.853C89.5575 161.239 89.3895 161.564 89.176 161.581C88.6396 161.622 88.0993 161.643 87.5708 161.646ZM43.5899 162.864C43.5254 162.864 43.4605 162.834 43.4005 162.774C42.9409 162.313 42.4755 161.82 42.0172 161.311C41.8347 161.106 41.7785 160.676 41.8916 160.35C42.0047 160.023 42.2442 159.92 42.4268 160.125C42.8753 160.622 43.3307 161.106 43.7798 161.557C43.9673 161.746 44.0341 162.169 43.9294 162.506C43.8581 162.734 43.7258 162.864 43.5899 162.864ZM63.4108 165.899C63.2581 165.899 63.1131 165.736 63.0514 165.466C62.9695 165.111 63.0641 164.701 63.2626 164.555C63.7384 164.204 64.2183 163.815 64.6887 163.404C64.8815 163.234 65.1143 163.378 65.2084 163.725C65.3026 164.071 65.2227 164.487 65.0298 164.657C64.5447 165.083 64.0498 165.483 63.5586 165.845C63.5102 165.88 63.4601 165.899 63.4108 165.899ZM48.6625 166.91C48.6224 166.91 48.5818 166.899 48.5415 166.876C48.0389 166.58 47.5291 166.25 47.0259 165.89C46.8264 165.748 46.729 165.343 46.8082 164.985C46.8876 164.627 47.1132 164.452 47.3131 164.594C47.801 164.941 48.2959 165.264 48.7832 165.55C48.9872 165.669 49.0985 166.064 49.0317 166.429C48.9781 166.724 48.826 166.91 48.6625 166.91ZM58.0647 168.541C57.8741 168.541 57.7077 168.29 57.6804 167.941C57.6506 167.559 57.7986 167.206 58.0113 167.152C58.5191 167.025 59.0349 166.859 59.5444 166.657C59.7542 166.576 59.9613 166.813 60.0074 167.19C60.0534 167.566 59.9206 167.938 59.711 168.022C59.1821 168.229 58.6467 168.401 58.1193 168.536C58.101 168.541 58.0828 168.541 58.0647 168.541ZM54.1037 168.822C54.0956 168.822 54.0875 168.822 54.0793 168.822C53.5467 168.762 53.0049 168.664 52.4691 168.529C52.2567 168.476 52.1084 168.122 52.1383 167.741C52.168 167.359 52.3639 167.094 52.5772 167.148C53.0931 167.278 53.6145 167.371 54.1271 167.429C54.3415 167.452 54.5045 167.782 54.4912 168.168C54.4785 168.538 54.3074 168.822 54.1037 168.822ZM-31.6113 169.354C-31.6577 169.354 -31.7045 169.34 -31.7505 169.308C-31.9508 169.171 -32.051 168.766 -31.9741 168.408C-31.8311 167.738 -31.6828 167.062 -31.5338 166.401C-31.4534 166.043 -31.2267 165.873 -31.0278 166.018C-30.8289 166.162 -30.7329 166.569 -30.8134 166.925C-30.9606 167.578 -31.1069 168.245 -31.2483 168.908C-31.3078 169.185 -31.4551 169.354 -31.6113 169.354Z" fill="#55A363"/>
<g opacity="0.15">
<path d="M245.232 176.215C245.232 179.091 228.981 181.424 208.93 181.424C188.879 181.424 172.625 179.091 172.625 176.215C172.625 173.338 188.879 171.008 208.93 171.008C228.981 171.008 245.232 173.338 245.232 176.215Z" fill="#55A363"/>
</g>
</svg>
