<?xml version="1.0" encoding="UTF-8"?>
<svg id="katman_2" data-name="katman 2" xmlns="http://www.w3.org/2000/svg" viewBox="0 0 436.53 314.88">
  <defs>
    <style>
      .cls-1 {
        fill: #244d9b;
      }

      .cls-1, .cls-2, .cls-3, .cls-4, .cls-5, .cls-6, .cls-7, .cls-8, .cls-9, .cls-10, .cls-11, .cls-12, .cls-13, .cls-14, .cls-15, .cls-16, .cls-17, .cls-18, .cls-19, .cls-20, .cls-21 {
        stroke-width: 0px;
      }

      .cls-2 {
        fill: #3a3002;
      }

      .cls-3 {
        fill: #6fb77c;
      }

      .cls-4 {
        fill: #50995d;
      }

      .cls-5 {
        fill: #e7e8e5;
      }

      .cls-6 {
        fill: #e2e2e0;
      }

      .cls-7 {
        fill: #fff5dd;
        opacity: .24;
      }

      .cls-8 {
        fill: #fafaf9;
      }

      .cls-9 {
        fill: #44824f;
      }

      .cls-10 {
        fill: #fff;
      }

      .cls-11 {
        fill: #17282f;
      }

      .cls-12 {
        fill: #d8898c;
      }

      .cls-13 {
        fill: #111d23;
      }

      .cls-14 {
        fill: #c3c5c2;
      }

      .cls-15 {
        fill: #71ba7e;
      }

      .cls-16 {
        fill: #f9a8b3;
      }

      .cls-17 {
        fill: #f5a977;
      }

      .cls-18 {
        fill: #6c7a7f;
      }

      .cls-19 {
        fill: #f46878;
      }

      .cls-20 {
        fill: #ededeb;
      }

      .cls-21 {
        fill: #55a363;
      }
    </style>
  </defs>
  <g id="katman_1" data-name="katman 1">
    <path class="cls-11" d="m371.11,307.11l19.01-4.47h2.14l20.47,4.64s-.16.91,1,1.29v.83h-44.09v-.91s1.15-.23,1.42-1.01l.05-.38Z"/>
    <rect class="cls-2" x="390.12" y="74.02" width="2.14" height="228.97"/>
    <path class="cls-2" d="m392.26,92.18l-2.14-5.07v-12.9c.71,0,1.43,0,2.14,0v17.97Z"/>
    <path class="cls-2" d="m394.15,305.85h-14.68c-.1,0-.12-.15-.02-.17l10.05-2.45h.02s2.54,0,2.54,0l.06.03,2.13,2.37c.08.09.02.23-.1.23Z"/>
    <path class="cls-2" d="m413.77,308.52c0,.1-9.82.19-21.92.19s-21.92-.08-21.92-.19,9.81-.18,21.92-.18,21.92.08,21.92.18Z"/>
    <path class="cls-2" d="m392.26,302.62c0,.1-.48.18-1.08.18s-1.08-.08-1.08-.18.48-.19,1.08-.19,1.08.08,1.08.19Z"/>
    <path class="cls-21" d="m431.54,6.12c0-3.38-17.58-6.12-39.27-6.12s-39.04,2.71-39.26,6.06h-.01l-5.01,71.02h88.52l-4.98-70.96Z"/>
    <path class="cls-21" d="m436.53,77.08c0,1.69-19.82,3.06-44.26,3.06s-44.26-1.37-44.26-3.06,19.82-3.06,44.26-3.06,44.26,1.37,44.26,3.06Z"/>
    <path class="cls-11" d="m382.33,134.15c-.1,0-.19-13.46-.19-30.05s.08-30.05.19-30.05.19,13.45.19,30.05-.08,30.05-.19,30.05Z"/>
    <path class="cls-21" d="m383.89,135.17c0,.89-.7,1.6-1.56,1.6s-1.56-.72-1.56-1.6.7-1.6,1.56-1.6,1.56.72,1.56,1.6Z"/>
    <path class="cls-9" d="m392.26,80.14v-5.93h0c12.32,0,23.48.33,31.53.86,4.03.27,7.28.58,9.51.94,1.11.18,1.97.37,2.52.57.28.1.48.21.58.31.11.1.1.19.11.19h0c0,1.69-19.82,3.06-44.26,3.06Z"/>
    <path class="cls-9" d="m390.12,80.14c-2.63,0-5.2-.03-7.68-.07-.03-3.07-.06-5.12-.09-5.78,2.52-.04,5.11-.06,7.77-.07v5.93Z"/>
    <path class="cls-9" d="m382.22,80.06c-19.6-.32-34.21-1.53-34.21-2.98.01,0,0-.09.11-.19.1-.1.31-.21.58-.31.55-.2,1.41-.39,2.52-.57,2.23-.36,5.48-.67,9.51-.94,5.82-.38,13.25-.66,21.58-.79-.03.66-.06,2.71-.09,5.78Z"/>
    <path class="cls-18" d="m382.44,80.06c-.07,0-.15,0-.22,0,.02-3.07.05-5.12.09-5.78.02,0,.03,0,.05,0,.03.66.06,2.72.09,5.78Z"/>
    <path class="cls-11" d="m436.53,77.08s0-.09-.11-.19c-.1-.1-.3-.21-.58-.31-.55-.2-1.41-.39-2.52-.57-2.23-.36-5.48-.67-9.51-.94-8.06-.53-19.21-.86-31.53-.86-12.33,0-23.48.33-31.54.86-4.03.27-7.28.58-9.51.94-1.11.18-1.97.37-2.52.57-.28.1-.48.21-.58.31-.11.1-.1.19-.11.19,0,0-.02-.09.08-.22.1-.12.31-.24.58-.36.56-.23,1.41-.44,2.53-.64,2.23-.4,5.48-.76,9.51-1.06,8.06-.6,19.23-.97,31.56-.97,12.33,0,23.49.37,31.55.97,4.03.3,7.29.66,9.51,1.06,1.11.2,1.97.42,2.53.64.28.11.48.24.58.36.11.12.09.22.08.22Z"/>
    <path class="cls-18" d="m390.12,74.21v-.19h2.14v.19c-.72,0-1.43,0-2.14,0Z"/>
    <path class="cls-7" d="m360.37,60.16c-1,0-2-.15-2.95-.5-4.5-1.62-4.45-5.59-4.28-9.1.62-12.79,1.69-26.36,2.39-39.28.12-2.19,1.68-4,3.78-4.44,7.47-1.55,15.58-2.11,24.34-2.11,4.82,0,9.84.17,15.07.43,2.47.12,4.41,2.26,4.32,4.8-.43,11.37-6.04,22.26-13.03,31.29-7.29,9.41-16.98,17.87-28.78,18.87-.29.02-.57.04-.86.04Z"/>
    <rect class="cls-5" x="267.65" y="295.39" width="10.23" height=".29"/>
    <rect class="cls-5" x="42.9" y="288.21" width="110.19" height=".29"/>
    <rect class="cls-6" x="144.09" y="119.05" width="35.92" height="154.21"/>
    <rect class="cls-6" x="59.08" y="124.71" width="85.68" height="112.38"/>
    <path class="cls-8" d="m78.24,139.2c0,3.35-2.71,6.06-6.07,6.06s-6.07-2.71-6.07-6.06,2.71-6.07,6.07-6.07,6.07,2.72,6.07,6.07Z"/>
    <path class="cls-8" d="m47.47,139.2c0,3.35-2.72,6.06-6.07,6.06s-6.07-2.71-6.07-6.06,2.72-6.07,6.07-6.07,6.07,2.72,6.07,6.07Z"/>
    <polygon class="cls-20" points="143.22 273.26 150.05 273.26 150.05 253.86 136.07 253.86 143.22 273.26"/>
    <polygon class="cls-20" points="228.81 273.26 222.9 273.26 222.9 256.44 235.01 256.44 228.81 273.26"/>
    <rect class="cls-6" x="227.49" y="129.57" width="74.25" height="112.34"/>
    <path class="cls-8" d="m322.32,183.09c0,2.9-2.35,5.26-5.26,5.26s-5.26-2.35-5.26-5.26,2.35-5.26,5.26-5.26,5.26,2.35,5.26,5.26Z"/>
    <path class="cls-8" d="m295.64,183.09c0,2.9-2.35,5.26-5.26,5.26s-5.26-2.35-5.26-5.26,2.35-5.26,5.26-5.26,5.26,2.35,5.26,5.26Z"/>
    <rect class="cls-9" x="34.25" y="243.55" width="296.16" height="61.21"/>
    <path class="cls-4" d="m330.41,304.76H34.25v-5.24h8.87c5.89,0,10.77-4.59,11.13-10.47l2.58-42.04h250.99l2.58,42.04c.36,5.88,5.24,10.47,11.13,10.47h8.87v5.24Z"/>
    <path class="cls-9" d="m34.25,216.64h296.16l4.5-46.01c2.6-26.61-18.31-49.66-45.04-49.66H74.8c-26.73,0-47.64,23.05-45.04,49.66l4.5,46.01Z"/>
    <path class="cls-9" d="m305.63,211.24H59.03l1.14-18.5c1.06-17.32-12.7-31.96-30.06-31.96-.08,0-.17,0-.25,0,1.47-12.25,7.88-23.1,17.27-30.36.6,2.07,1.21,4.1,1.84,6.07,1.17,3.7,2.37,7.22,3.59,10.55t0,0c9.08,24.81,18.84,39.19,18.84,39.19l18.01-3.05c2.72,14.42,12.06,20.4,24.2,20.4s25.83-5.5,39.22-14.33c1.16-.76,2.32-1.55,3.46-2.36,0,0,0,0,0,0,12.33-8.75,23.72-20.23,31.44-32.69,12.39,9.35,23.24,34.85,23.24,34.85l20.77-2.38s-10.68-57.03-37.51-62.73c-1.08-.23-2.2-.34-3.36-.34-20.16,0-51.99,32.91-61.78,43.58-.14-.36-.32-.72-.52-1.06-10.79-17.94-15.9-32.56-19.29-44.76,1.95.87,3.63,1.49,4.87,1.9,1.38.46,2.21.67,2.21.67l.8-2.93h1.16c2.74,1.15,5.53,2.22,8.4,3.19,4.37,1.5,8.92,2.73,13.76,3.51l.99.16.48-.02c4.29-.19,8.1-.68,11.98-1.19,3.85-.51,7.66-1.14,11.45-1.78,3.79-.68,7.57-1.39,11.33-2.17,2.55-.54,5.08-1.09,7.62-1.69h105.55c23.36,0,42.28,17.61,44.94,39.8-.08,0-.17,0-.25,0-17.36,0-31.12,14.63-30.06,31.96l1.14,18.5Z"/>
    <polygon class="cls-15" points="307.83 247.02 56.84 247.02 57.05 243.55 307.62 243.55 307.83 247.02"/>
    <rect class="cls-9" x="34.25" y="211.24" width="296.16" height="32.31"/>
    <polygon class="cls-4" points="307.62 243.55 57.05 243.55 59.03 211.24 305.63 211.24 307.62 243.55"/>
    <path class="cls-9" d="m334.55,160.77c-17.36,0-31.12,14.63-30.06,31.96l5.91,96.33c.36,5.88,5.24,10.47,11.13,10.47h26.02c5.9,0,10.77-4.59,11.13-10.47l5.91-96.33c1.06-17.32-12.7-31.96-30.06-31.96Z"/>
    <path class="cls-21" d="m334.55,216.34c-13.13,0-23.77-10.64-23.77-23.77s10.64-23.77,23.77-23.77,23.77,10.64,23.77,23.77-10.64,23.77-23.77,23.77Z"/>
    <polygon class="cls-11" points="329.08 310 340.03 310 341.73 299.53 327.38 299.53 329.08 310"/>
    <polygon class="cls-11" points="24.07 310 35.01 310 36.72 299.53 22.36 299.53 24.07 310"/>
    <path class="cls-9" d="m30.11,160.77c-17.36,0-31.12,14.63-30.06,31.96l5.91,96.33c.36,5.88,5.24,10.47,11.13,10.47h26.02c5.89,0,10.77-4.59,11.13-10.47l5.91-96.33c1.06-17.32-12.7-31.96-30.06-31.96Z"/>
    <path class="cls-21" d="m30.11,216.34c-13.13,0-23.77-10.64-23.77-23.77s10.64-23.77,23.77-23.77,23.77,10.64,23.77,23.77-10.64,23.77-23.77,23.77Z"/>
    <path class="cls-17" d="m100,91.57c1.59.99,3.44,2.09,5.19,3.13,1.78,1.04,3.56,2.09,5.36,3.1,3.59,2.04,7.23,3.98,10.87,5.83,3.65,1.83,7.33,3.54,11.02,5.05,3.69,1.48,7.38,2.78,10.97,3.65l-1.47-.14c3.32.11,7.12.08,10.83-.02l11.3-.29c7.57-.19,15.19-.39,22.83-.32l1.06,8.5c-3.75.98-7.49,1.8-11.25,2.59-3.76.79-7.54,1.5-11.33,2.17-3.79.64-7.6,1.28-11.45,1.78-3.88.51-7.68,1-11.98,1.19l-.48.02-.99-.16c-4.84-.78-9.4-2.01-13.76-3.51-4.38-1.48-8.59-3.2-12.68-5.07-4.11-1.86-8.09-3.91-12-6.06-1.95-1.09-3.89-2.19-5.8-3.35-1.94-1.17-3.75-2.32-5.76-3.67l9.53-14.44Z"/>
    <path class="cls-3" d="m84.69,94.39c-1.86-7.58,8.45-8.11,38.19,5.66l-6.54,23.85s-25.96-6.39-31.65-29.51Z"/>
    <path class="cls-1" d="m114.14,123.24c-1.24-.41-2.92-1.03-4.87-1.9,0,0,0,0,0,0,1.95.87,3.63,1.49,4.87,1.91Z"/>
    <path class="cls-21" d="m115.26,123.57c-.11-.04-.21-.06-.33-.08l-.15-.05c-.2-.06-.41-.13-.64-.21-1.24-.41-2.92-1.04-4.87-1.91-1.67-6.01-2.93-11.44-4.24-16.39,3.93,3.39,7.54,9.4,10.23,18.63Z"/>
    <polygon class="cls-17" points="215.32 205.86 227.53 203.93 224.31 172.8 212.11 174.72 215.32 205.86"/>
    <path class="cls-11" d="m228.08,196.92l-14.57.22c-.5,0-.92.4-1,.95l-1.87,12.13c-.19,1.26.75,2.43,1.9,2.39,4.8-.16,9.89-.53,15.94-.61,3.72-.05,12.88.21,18.02.14,5.03-.07,5.55-5.73,3.42-6.21-9.54-2.16-16.67-5.22-19.83-8.19-.57-.54-1.29-.82-2.03-.81Z"/>
    <path class="cls-11" d="m126.13,170.45s44.7-51.5,68.1-46.53c26.83,5.7,37.51,62.73,37.51,62.73l-20.77,2.38s-10.86-25.5-23.24-34.85c-25.39,40.98-90.33,71.28-98.32,28.98,10.66-4.3,36.72-12.71,36.72-12.71Z"/>
    <polygon class="cls-11" points="233.75 187.02 207.84 192.09 205.88 183.53 232.92 177.69 233.75 187.02"/>
    <path class="cls-17" d="m184.06,111.86l10-1.93,4.17,11.92s-9.99,3.31-14.85-2.98l.68-7.02Z"/>
    <polygon class="cls-17" points="205.6 112.35 208.18 120.97 198.23 121.86 194.06 109.93 205.6 112.35"/>
    <path class="cls-3" d="m71.39,186.22s-19.48-28.7-28.99-74.95c-2.25-10.94,5.81-21.32,16.97-21.91,9.37-.49,19.35-.62,27.41-.59,8.1.03,15.2,5.4,17.43,13.18,4.39,15.39,7.15,35.54,24.36,64.14,2.76,4.59-.63,10.54-5.91,11.43l-51.26,8.69Z"/>
    <path class="cls-1" d="m52.55,147.03c-1.22-3.33-2.42-6.85-3.59-10.55,1.17,3.69,2.38,7.21,3.59,10.54t0,0Z"/>
    <path class="cls-14" d="m42.21,110.16c-.23-1.54-.26-3.06-.11-4.53,0-.01.02-.03.03-.04-.16,1.49-.15,3.02.08,4.57Z"/>
    <path class="cls-21" d="m52.55,147.02c-1.22-3.33-2.42-6.85-3.59-10.54-2.43-7.71-4.7-16.19-6.58-25.35-.07-.32-.12-.65-.17-.97-.22-1.55-.24-3.08-.08-4.57,5.78-8.04,11.01-10,13.3-10,.31,0,.57.04.76.1,15.19,4.79-1.11,46.64-3.64,51.34Z"/>
    <path class="cls-1" d="m152.83,189.24c1.16-.76,2.31-1.55,3.46-2.36,0,0,0,0,0,0-1.15.81-2.3,1.6-3.46,2.36Z"/>
    <path class="cls-13" d="m126.52,201.65c-7.08-5.5-8.25-10.36-7.83-11.86,1.42-5.11,7.05-6.88,14.11-6.88s16.19,1.9,23.49,3.96c-1.15.81-2.3,1.6-3.46,2.36-8.75,5.75-17.83,10.1-26.31,12.41Z"/>
    <path class="cls-17" d="m59.2,59.86c3.06,8.32,6.98,23.37,2.24,29.4,5.23,4.25,11.41,7.53,21.18,7.21s7.77-4.23,4.58-7.69c-9.5-1.61-10.48-9.61-10.02-16.27l-17.97-12.65Z"/>
    <path class="cls-14" d="m77.16,72.5l-2.52-1.78,2.52,1.78h0Zm0,4.71c-.03-.32-.05-.63-.06-.95.02.32.04.63.08.95,0,0,0,0-.01,0Z"/>
    <path class="cls-12" d="m75.48,77.47c-3.51,0-7.92-2.89-8.79-6.08-.51-1.86-.31-5.48-.16-6.37l8.11,5.71,2.52,1.78c-.09,1.25-.12,2.52-.05,3.76.01.32.03.64.06.95-.52.18-1.09.26-1.69.26Z"/>
    <path class="cls-9" d="m78.79,50.73c1.9,3.64,5.5,5.52,8.04,4.19,2.54-1.33,3.05-5.35,1.14-9-1.9-3.64-5.5-5.52-8.04-4.19-2.54,1.33-3.05,5.35-1.14,9Z"/>
    <path class="cls-10" d="m76.32,52.02c2.02,3.87,5.85,5.87,8.55,4.46,2.7-1.41,3.24-5.69,1.22-9.56-2.02-3.87-5.85-5.87-8.55-4.46-2.7,1.41-3.24,5.69-1.22,9.56Z"/>
    <path class="cls-11" d="m79.3,48.67l4.84-1.4s-3.26-5.31-2.98-9.63c.28-4.31,1.1-7.64-7.29-7.45-8.39.19-13.08,8.55,5.43,18.48Z"/>
    <path class="cls-17" d="m52.54,56.04c5.87,9.73,8.8,15.7,16.68,18.46,11.85,4.15,22.15-6.28,19.37-17.42-2.5-10.02-11.67-24.25-23.82-23.61-11.97.63-18.1,12.84-12.23,22.57Z"/>
    <path class="cls-11" d="m51.56,46.87c9.2-1.47,24.98-6.99,22.95-17.97-1.37-7.37-12.86-5.1-15.31-1.37-2.44,3.73-8.42,9.41-14.01,12.55-5.59,3.14-7.36,8.98,6.37,6.79Z"/>
    <path class="cls-11" d="m56.14,63.67l4.62-2s-3.9-4.86-4.17-9.17c-.26-4.31.13-7.72-8.17-6.47-8.3,1.24-11.89,10.13,7.71,17.65Z"/>
    <path class="cls-9" d="m54.9,58.84c-.15,0-.3-.05-.41-.17-6.32-6.22-7.29-12.24-7.3-15.27-.01-2.85.78-5.42,2.06-6.71.23-.23.6-.23.83,0,.23.23.23.6,0,.83-.8.81-1.74,2.83-1.72,5.87.02,2.85.94,8.52,6.95,14.44.23.23.23.6,0,.83-.11.12-.27.17-.42.17Z"/>
    <path class="cls-16" d="m52.79,68.3c2.3,1.58,5.11,2.01,7.35,1.64,3.37-.56,3.48-3.83,1.22-6.17-2.03-2.11-6.22-4.35-8.97-2.59-2.71,1.74-2.23,5.3.4,7.11Z"/>
    <path class="cls-10" d="m60.62,60.88c2.75,3.39,3.06,7.7.7,9.61-2.36,1.92-6.51.72-9.26-2.68-2.75-3.39-3.06-7.7-.7-9.61,2.36-1.92,6.51-.72,9.26,2.68Z"/>
    <path class="cls-9" d="m58.46,62.63c2.59,3.19,2.88,7.24.66,9.04-2.22,1.8-6.12.67-8.71-2.52-2.59-3.19-2.88-7.24-.66-9.04,2.22-1.8,6.12-.67,8.71,2.52Z"/>
    <path class="cls-11" d="m65.97,53.29l-.88-.02c.02-.89.76-2.21,1.61-2.89.71-.57,1.31-.59,1.7-.51.5.1.92.45,1.19.96l-.78.41c-.1-.2-.29-.45-.59-.51-.28-.06-.62.06-.96.33-.7.56-1.27,1.66-1.28,2.23Z"/>
    <path class="cls-11" d="m76.23,47.03c-.23-.58-.12-1.02.01-1.29.22-.44.67-.76,1.31-.92.92-.24,1.83,0,2.54.67l-.61.64c-.34-.32-.9-.66-1.7-.45-.38.1-.64.26-.74.47-.08.15-.07.33.02.56l-.82.33Z"/>
    <path class="cls-19" d="m74.41,49.42s4.36,3.83,7.65,5.14c-.78,2.03-3.62,2.57-3.62,2.57l-4.03-7.71Z"/>
    <path class="cls-11" d="m76.08,62.66c-3.4,1.04-6.01-.43-6.13-.5-.13-.08-.18-.24-.1-.37.08-.12.24-.16.38-.09.03.02,3.06,1.72,6.73.04.14-.06.3,0,.37.13.07.13.02.29-.12.35-.38.18-.76.32-1.13.43Z"/>
    <path class="cls-11" d="m61.49,51.2h-.28c-.3-.05-.5-.33-.45-.62.54-2.87,2.87-3.78,2.97-3.82.28-.11.6.03.72.3.12.27-.01.58-.29.69-.08.03-1.89.76-2.32,3.05-.04.2-.18.34-.36.4Z"/>
    <path class="cls-11" d="m80.05,42.52c-.16.08-.35.09-.52,0-2.18-1.1-3.91-.22-3.99-.18-.26.14-.6.04-.75-.21-.15-.26-.07-.58.19-.72.1-.05,2.3-1.2,5.04.18.27.14.38.46.25.72l-.22.22Z"/>
    <polygon class="cls-16" points="212.32 309.46 222.76 303.11 208.01 275.1 197.57 281.45 212.32 309.46"/>
    <path class="cls-11" d="m218.52,294.43l-12.17,6.08c-.41.2-.57.72-.4,1.24l3.89,11.58c.4,1.2,1.7,1.88,2.63,1.39,3.87-2.04,6.58-3.74,11.51-6.2,3.03-1.52,12.39-5.71,16.58-7.81,4.1-2.05,2-7.31.04-6.91-8.8,1.83-16.13,1.96-20.06.55-.71-.26-1.43-.22-2.03.08Z"/>
    <path class="cls-11" d="m116.7,178.54s22.73,3.12,55.83,24.85c22.93,15.06,42.94,76.85,42.94,76.85l-17.93,12.25s-22.79-49.61-41.86-67.94c-62.7-14.93-81.13,4.59-84.28-38.34,11.08-3.07,45.31-7.68,45.31-7.68Z"/>
    <polygon class="cls-11" points="219.77 282.96 196.17 294.81 191.99 287.09 216.47 274.2 219.77 282.96"/>
    <path class="cls-17" d="m58.02,110.26c-2.3,7.42-4.66,15.07-6.72,22.57-1.04,3.75-1.98,7.51-2.77,11.17-.39,1.83-.73,3.64-.96,5.35-.25,1.68-.4,3.39-.36,4.41,0,.26.02.41.01.49l-.05-.06-.03-.04c-.04-.11-.11-.27-.17-.39-.16-.3-.25-.45-.36-.6-.42-.56-.52-.55-.5-.52.03.06.21.21.42.38.94.71,2.51,1.6,4.1,2.38,3.26,1.57,6.87,3.09,10.52,4.5,7.3,2.88,14.91,5.54,22.39,8.35l-1.88,8.36c-8.25-.83-16.28-2.24-24.41-4.1-4.06-.99-8.12-2.03-12.3-3.56-2.12-.79-4.23-1.59-6.71-3.04-.64-.4-1.28-.81-2.03-1.4-.75-.62-1.58-1.31-2.57-2.71-.24-.36-.48-.72-.73-1.25-.12-.24-.24-.51-.33-.73l-.15-.4c-.21-.56-.34-1.03-.48-1.51-.23-.91-.38-1.76-.47-2.5-.35-3.01-.24-5.35-.09-7.68.18-2.3.46-4.48.78-6.63.64-4.28,1.52-8.4,2.47-12.46,1.95-8.14,4.2-15.97,6.98-23.88l16.39,5.54Z"/>
    <path class="cls-3" d="m55.07,90.09c-2.37.63-13.03,2.24-20.6,28.31l25.64,10s17.75-44.41-5.03-38.32Z"/>
    <path class="cls-17" d="m83.27,167.98l9,4.48-8.28,9.94s-9.45-6.04-7.69-11.16l3.41-2.84c1-.83,2.4-1,3.56-.42Z"/>
    <polygon class="cls-17" points="100.4 181.51 91.41 188.85 83.99 182.4 92.27 172.46 100.4 181.51"/>
  </g>
</svg>