<svg width="40" height="40" viewBox="0 0 40 40" fill="none" xmlns="http://www.w3.org/2000/svg">
<path d="M0 20.0007C0 8.95387 8.95419 0 20 0C31.0458 0 40 8.95387 40 20.0007C40 31.0459 31.0458 40 20 40C8.95419 40 0 31.0459 0 20.0007Z" fill="#FFD05D"/>
<path d="M30.4638 2.93069C32.4552 6.03967 33.6101 9.73758 33.6101 13.703C33.6101 24.7498 24.6559 33.703 13.6101 33.703C9.77396 33.703 6.1905 32.6222 3.14648 30.7494C6.70085 36.2988 12.9208 39.9766 19.9999 39.9766C31.0457 39.9766 39.9999 31.0222 39.9999 19.9773C39.9999 12.7668 36.1846 6.45029 30.4638 2.93069Z" fill="#FDC453"/>
<path d="M2.71798 22.1103C2.71798 11.8566 11.0316 3.54094 21.2869 3.54094C27.2813 3.54094 32.6112 6.38243 36.0063 10.7913C32.7999 5.22565 26.79 1.47845 19.9049 1.47845C9.64956 1.47845 1.33594 9.79173 1.33594 20.0455C1.33594 24.3065 2.77195 28.2321 5.18549 31.3652C3.61596 28.6404 2.71798 25.4797 2.71798 22.1103Z" fill="#FFD77F"/>
<path d="M14.1056 15.1484C14.1056 16.521 13.4457 17.6309 12.6318 17.6309C11.818 17.6309 11.1582 16.521 11.1582 15.1484C11.1582 13.7757 11.818 12.6635 12.6318 12.6635C13.4457 12.6635 14.1056 13.7757 14.1056 15.1484Z" fill="#303030"/>
<path d="M28.8419 15.1484C28.8419 16.521 28.1821 17.6309 27.3683 17.6309C26.5543 17.6309 25.8945 16.521 25.8945 15.1484C25.8945 13.7757 26.5543 12.6635 27.3683 12.6635C28.1821 12.6635 28.8419 13.7757 28.8419 15.1484Z" fill="#303030"/>
<path d="M31.8131 10.9553C31.5982 10.892 31.3886 10.8333 31.1842 10.777C30.7349 10.6503 30.3104 10.533 29.9003 10.3898C29.2874 10.1834 28.736 9.94872 28.2151 9.67419C27.6669 9.38323 27.1688 9.05945 26.6918 8.68403C26.1711 8.28045 25.6875 7.80881 25.2424 7.35595C25.217 7.33014 25.1786 7.3231 25.1455 7.33952C25.1126 7.3536 25.092 7.38645 25.0939 7.42165C25.127 8.10445 25.3973 8.81071 25.8752 9.46301C26.3121 10.0543 26.8973 10.5518 27.5672 10.9014C28.1972 11.2346 28.9021 11.4363 29.6114 11.4903C29.6387 11.4927 29.6663 11.495 29.6936 11.495C30.4883 11.5372 31.2056 11.4105 31.826 11.1172C31.8586 11.1008 31.8783 11.068 31.8755 11.0328C31.8727 10.9952 31.8478 10.9647 31.8131 10.9553Z" fill="#414042"/>
<path d="M8.18651 10.9553C8.40168 10.892 8.61098 10.8333 8.81559 10.777C9.26493 10.6503 9.6894 10.533 10.0996 10.3898C10.7124 10.1834 11.2636 9.94872 11.7848 9.67419C12.3329 9.38323 12.831 9.05945 13.3078 8.68403C13.8287 8.28045 14.3123 7.80881 14.7574 7.35595C14.7825 7.33014 14.821 7.3231 14.8541 7.33952C14.887 7.3536 14.9076 7.38645 14.9057 7.42165C14.8726 8.10445 14.6026 8.81071 14.1246 9.46301C13.6877 10.0543 13.1025 10.5518 12.4326 10.9014C11.8023 11.2346 11.0975 11.4363 10.3882 11.4903C10.3609 11.4927 10.3335 11.495 10.306 11.495C9.51154 11.5372 8.79424 11.4105 8.17361 11.1172C8.14123 11.1008 8.12128 11.068 8.12433 11.0328C8.12715 10.9952 8.15178 10.9647 8.18651 10.9553Z" fill="#414042"/>
<path d="M24.2216 23.0324C23.0836 22.0469 21.5413 21.4908 19.9985 21.5213C18.4815 21.526 16.9531 22.0798 15.8036 23.0418C15.2235 23.5322 14.7392 24.1305 14.4006 24.7781C14.0438 25.4797 13.8591 26.1883 13.8516 26.8805C13.8497 27.0471 13.9541 27.1949 14.1109 27.2489C14.2676 27.3028 14.4412 27.2512 14.5426 27.1198C14.9567 26.5848 15.3498 26.1602 15.7421 25.8199C16.1642 25.4633 16.6133 25.1629 17.0756 24.9306C17.997 24.4707 19.0142 24.2244 20.0185 24.2197C21.0492 24.2126 22.0256 24.4449 22.9255 24.9119C23.8528 25.3882 24.7036 26.1297 25.4542 27.1175C25.5286 27.216 25.6433 27.27 25.7616 27.27C25.8036 27.27 25.846 27.263 25.8873 27.2489C26.0448 27.1949 26.1497 27.0447 26.1473 26.8782C26.1257 25.4844 25.4051 24.0461 24.2216 23.0324Z" fill="#5E4939"/>
<path d="M29.1305 18.9213C23.2058 25.6953 23.8635 29.5817 23.8635 29.5817C23.8635 32.4905 26.2217 34.8486 29.1305 34.8486C32.0396 34.8486 34.3978 32.4905 34.3978 29.5817C34.3978 29.5817 35.0555 25.6953 29.1305 18.9213Z" fill="#7CC4E8"/>
<path d="M25.2148 33.1036C26.179 34.1747 27.5758 34.8486 29.1303 34.8486C32.0394 34.8486 34.3976 32.4905 34.3976 29.5817C34.3976 29.5817 34.6716 27.9479 33.2528 24.9539C32.2046 31.7812 27.9158 33.0243 25.2148 33.1036Z" fill="#62BBE8"/>
</svg>
