<svg width="40" height="40" viewBox="0 0 40 40" fill="none" xmlns="http://www.w3.org/2000/svg">
<g clip-path="url(#clip0_624_60395)">
<path d="M17.9172 35.8304C14.0125 35.8304 10.8344 32.6522 10.8344 28.7475V5.03125L2.78347 6.87438C0.79356 7.39777 -0.399543 9.44916 0.12682 11.4574L7.02968 37.2301C7.488 38.8968 9.01951 40 10.6627 40C10.971 40 11.2843 39.9615 11.5944 39.88L28.393 35.8304H17.9172Z" fill="#B0BEC5"/>
<path d="M39.9991 4.58305V28.7476C39.9991 31.2807 37.949 33.3306 35.4161 33.3306H17.9175C16.201 33.3306 14.7012 32.3807 13.9179 30.9807C13.5511 30.3307 13.3345 29.5642 13.3345 28.7476V4.58305C13.3345 2.04967 15.3845 0 17.9175 0H35.4161C37.949 0 39.9991 2.04967 39.9991 4.58305Z" fill="#ECEFF1"/>
<path d="M25.0008 11.6659C25.0008 13.5068 23.5086 14.999 21.6676 14.999C19.8269 14.999 18.3345 13.5068 18.3345 11.6659C18.3345 9.82523 19.8269 8.33301 21.6676 8.33301C23.5086 8.33301 25.0008 9.82523 25.0008 11.6659Z" fill="#FFC107"/>
<path d="M39.9992 19.8984V28.7477C39.9992 31.2808 37.9492 33.3308 35.4162 33.3308H17.9176C16.2011 33.3308 14.7013 32.3809 13.918 30.9808L30.4334 14.4655C31.5663 13.3325 33.433 13.3325 34.5663 14.4655L39.9992 19.8984Z" fill="#388E3C"/>
<path d="M35.0993 33.3311H17.9175C16.201 33.3311 14.7012 32.3812 13.9179 30.9811C13.5511 30.3312 13.3345 29.5646 13.3345 28.748V24.8983L17.9343 20.2987C19.0673 19.1654 20.9339 19.1654 22.0673 20.2987L35.0993 33.3311Z" fill="#4CAF50"/>
</g>
<defs>
<clipPath id="clip0_624_60395">
<rect width="40" height="40" fill="white"/>
</clipPath>
</defs>
</svg>
