<svg width="40" height="40" viewBox="0 0 40 40" fill="none" xmlns="http://www.w3.org/2000/svg">
<path d="M0 20C0 8.9542 8.95427 0 20 0C31.0454 0 39.9997 8.9542 39.9997 20C39.9997 31.0456 31.0454 40 20 40C8.95427 40 0 31.0456 0 20Z" fill="#FFD05D"/>
<path d="M30.4633 2.92978C32.4552 6.03926 33.6098 9.73605 33.6098 13.7027C33.6098 24.7485 24.6557 33.7029 13.61 33.7029C9.77389 33.7029 6.19047 32.6219 3.14648 30.7495C6.70081 36.2985 12.9207 39.9766 19.9997 39.9766C31.0452 39.9766 39.9995 31.0221 39.9995 19.9763C39.9995 12.7669 36.1843 6.44918 30.4633 2.92978Z" fill="#FDC453"/>
<path d="M2.71897 22.1097C2.71897 11.8544 11.0325 3.54106 21.2877 3.54106C27.282 3.54106 32.6119 6.38211 36.0069 10.7903C32.8005 5.22391 26.7907 1.47668 19.9054 1.47668C9.65024 1.47668 1.33691 9.79006 1.33691 20.0451C1.33691 24.3062 2.77317 28.2311 5.18621 31.3647C3.61694 28.6401 2.71897 25.4799 2.71897 22.1097Z" fill="#FFD77F"/>
<path d="M11.8033 23.0261C11.288 22.5256 10.4626 23.0791 10.7296 23.7458C12.2071 27.4381 15.8168 30.0464 20.0371 30.0464C24.1867 30.0464 27.7462 27.5244 29.2688 23.9297C29.5466 23.2741 28.7145 22.7063 28.2033 23.2021C25.2764 26.0399 19.0626 30.0781 11.8033 23.0261Z" fill="#5E4939"/>
<path d="M14.1055 16.4209C14.1055 17.7928 13.4457 18.9048 12.632 18.9048C11.818 18.9048 11.1582 17.7928 11.1582 16.4209C11.1582 15.0489 11.818 13.9369 12.632 13.9369C13.4457 13.9369 14.1055 15.0489 14.1055 16.4209Z" fill="#303030"/>
<path d="M28.8418 16.4209C28.8418 17.7928 28.182 18.9048 27.3683 18.9048C26.5543 18.9048 25.8945 17.7928 25.8945 16.4209C25.8945 15.0489 26.5543 13.9369 27.3683 13.9369C28.182 13.9369 28.8418 15.0489 28.8418 16.4209Z" fill="#303030"/>
</svg>
