<svg width="40" height="40" viewBox="0 0 40 40" fill="none" xmlns="http://www.w3.org/2000/svg">
<g clip-path="url(#clip0_737_8007)">
<path d="M15.15 28.9584C15.0667 28.9584 14.975 28.9501 14.9 28.9418L13.0917 28.6918C12.225 28.5751 11.4417 27.8001 11.3084 26.9168L11.0584 25.0918C10.975 24.5084 11.225 23.7501 11.6417 23.3251L15.3 19.6668C14.7084 17.3001 15.3917 14.8001 17.1334 13.0751C19.8334 10.3834 24.225 10.3751 26.9334 13.0751C28.2417 14.3834 28.9584 16.1251 28.9584 17.9751C28.9584 19.8251 28.2417 21.5668 26.9334 22.8751C25.1834 24.6084 22.6917 25.2918 20.3417 24.6918L16.675 28.3501C16.325 28.7168 15.7 28.9584 15.15 28.9584ZM22.025 12.3001C20.5667 12.3001 19.1167 12.8501 18.0084 13.9584C16.5084 15.4501 15.9667 17.6334 16.5917 19.6668C16.6584 19.8918 16.6 20.1251 16.4334 20.2918L12.5167 24.2084C12.375 24.3501 12.2584 24.7168 12.2834 24.9084L12.5334 26.7334C12.5834 27.0501 12.925 27.4084 13.2417 27.4501L15.0584 27.7001C15.2584 27.7334 15.625 27.6168 15.7667 27.4751L19.7 23.5501C19.8667 23.3834 20.1084 23.3334 20.325 23.4001C22.3334 24.0334 24.525 23.4918 26.025 21.9918C27.0917 20.9251 27.6834 19.4918 27.6834 17.9751C27.6834 16.4501 27.0917 15.0251 26.025 13.9584C24.9417 12.8584 23.4834 12.3001 22.025 12.3001Z" fill="#1C2C40"/>
<path d="M17.6583 27.1167C17.5 27.1167 17.3417 27.0584 17.2167 26.9334L15.3 25.0167C15.0583 24.7751 15.0583 24.3751 15.3 24.1334C15.5417 23.8917 15.9417 23.8917 16.1833 24.1334L18.1 26.0501C18.3417 26.2917 18.3417 26.6917 18.1 26.9334C17.975 27.0584 17.8167 27.1167 17.6583 27.1167Z" fill="#292D32"/>
<path d="M22.0833 19.7915C21.05 19.7915 20.2083 18.9498 20.2083 17.9165C20.2083 16.8832 21.05 16.0415 22.0833 16.0415C23.1167 16.0415 23.9583 16.8832 23.9583 17.9165C23.9583 18.9498 23.1167 19.7915 22.0833 19.7915ZM22.0833 17.2915C21.7417 17.2915 21.4583 17.5748 21.4583 17.9165C21.4583 18.2582 21.7417 18.5415 22.0833 18.5415C22.425 18.5415 22.7083 18.2582 22.7083 17.9165C22.7083 17.5748 22.425 17.2915 22.0833 17.2915Z" fill="#292D32"/>
</g>
<defs>
<clipPath id="clip0_737_8007">
<rect width="40" height="40" rx="20" fill="white"/>
</clipPath>
</defs>
</svg>
