<svg width="40" height="40" viewBox="0 0 40 40" fill="none" xmlns="http://www.w3.org/2000/svg">
<g clip-path="url(#clip0_624_61680)">
<path d="M28.3333 28.9585H11.6667C11.325 28.9585 11.0417 28.6752 11.0417 28.3335C11.0417 27.9918 11.325 27.7085 11.6667 27.7085H28.3333C28.675 27.7085 28.9583 27.9918 28.9583 28.3335C28.9583 28.6752 28.675 28.9585 28.3333 28.9585Z" fill="#1C2C40"/>
<path d="M12.5083 28.9669C12.3417 28.9669 12.1833 28.9002 12.0667 28.7835C11.95 28.6669 11.8833 28.5086 11.8833 28.3419L11.875 15.8919C11.875 15.1336 12.2583 14.4169 12.8916 13.9919L16.225 11.7669C17 11.2502 18 11.2502 18.7667 11.7669L22.1 13.9919C22.7417 14.4169 23.1167 15.1252 23.1167 15.8919L23.125 28.3252C23.125 28.6669 22.85 28.9502 22.5 28.9502L12.5083 28.9669ZM17.5 12.6253C17.3 12.6253 17.1 12.6836 16.925 12.8002L13.5917 15.0253C13.3 15.2169 13.125 15.5419 13.125 15.8919L13.1333 27.7169L21.8833 27.7002L21.875 15.8919C21.875 15.5419 21.7 15.2169 21.4167 15.0335L18.0833 12.8086C17.9083 12.6836 17.7 12.6253 17.5 12.6253Z" fill="#292D32"/>
<path d="M26.65 28.9667C26.3083 28.9667 26.025 28.6833 26.025 28.3417V25C26.025 24.6583 26.3083 24.375 26.65 24.375C26.9916 24.375 27.275 24.6583 27.275 25V28.3417C27.275 28.6833 27 28.9667 26.65 28.9667Z" fill="#292D32"/>
<path d="M26.6667 25.625C25.4 25.625 24.375 24.6 24.375 23.3333V21.6667C24.375 20.4 25.4 19.375 26.6667 19.375C27.9333 19.375 28.9583 20.4 28.9583 21.6667V23.3333C28.9583 24.6 27.9333 25.625 26.6667 25.625ZM26.6667 20.625C26.0917 20.625 25.625 21.0917 25.625 21.6667V23.3333C25.625 23.9083 26.0917 24.375 26.6667 24.375C27.2417 24.375 27.7083 23.9083 27.7083 23.3333V21.6667C27.7083 21.0917 27.2417 20.625 26.6667 20.625Z" fill="#292D32"/>
<path d="M22.5 22.2915H12.5C12.1583 22.2915 11.875 22.0082 11.875 21.6665C11.875 21.3248 12.1583 21.0415 12.5 21.0415H22.5C22.8417 21.0415 23.125 21.3248 23.125 21.6665C23.125 22.0082 22.8417 22.2915 22.5 22.2915Z" fill="#292D32"/>
<path d="M17.5 28.9585C17.1583 28.9585 16.875 28.6752 16.875 28.3335V25.2085C16.875 24.8668 17.1583 24.5835 17.5 24.5835C17.8417 24.5835 18.125 24.8668 18.125 25.2085V28.3335C18.125 28.6752 17.8417 28.9585 17.5 28.9585Z" fill="#292D32"/>
<path d="M17.5 19.375C16.4667 19.375 15.625 18.5333 15.625 17.5C15.625 16.4667 16.4667 15.625 17.5 15.625C18.5333 15.625 19.375 16.4667 19.375 17.5C19.375 18.5333 18.5333 19.375 17.5 19.375ZM17.5 16.875C17.1583 16.875 16.875 17.1583 16.875 17.5C16.875 17.8417 17.1583 18.125 17.5 18.125C17.8417 18.125 18.125 17.8417 18.125 17.5C18.125 17.1583 17.8417 16.875 17.5 16.875Z" fill="#292D32"/>
</g>
<defs>
<clipPath id="clip0_624_61680">
<rect width="40" height="40" rx="20" fill="white"/>
</clipPath>
</defs>
</svg>
