<svg width="40" height="40" viewBox="0 0 40 40" fill="none" xmlns="http://www.w3.org/2000/svg">
<g clip-path="url(#clip0_624_61687)">
<path d="M20.1 21.2747C20.0833 21.2747 20.0583 21.2747 20.0417 21.2747C20.0167 21.2747 19.9833 21.2747 19.9583 21.2747C18.0667 21.2164 16.65 19.7414 16.65 17.9247C16.65 16.0747 18.1583 14.5664 20.0083 14.5664C21.8583 14.5664 23.3667 16.0747 23.3667 17.9247C23.3583 19.7497 21.9333 21.2164 20.125 21.2747C20.1083 21.2747 20.1083 21.2747 20.1 21.2747ZM20 15.8081C18.8333 15.8081 17.8917 16.7581 17.8917 17.9164C17.8917 19.0581 18.7833 19.9831 19.9167 20.0247C19.9417 20.0164 20.025 20.0164 20.1083 20.0247C21.225 19.9664 22.1 19.0497 22.1083 17.9164C22.1083 16.7581 21.1667 15.8081 20 15.8081Z" fill="#1C2C40"/>
<path d="M20 28.9581C17.7583 28.9581 15.6167 28.1248 13.9583 26.6081C13.8083 26.4748 13.7417 26.2748 13.7583 26.0831C13.8667 25.0914 14.4833 24.1664 15.5083 23.4831C17.9917 21.8331 22.0167 21.8331 24.4917 23.4831C25.5167 24.1748 26.1333 25.0914 26.2417 26.0831C26.2667 26.2831 26.1917 26.4748 26.0417 26.6081C24.3833 28.1248 22.2417 28.9581 20 28.9581ZM15.0667 25.9164C16.45 27.0748 18.1917 27.7081 20 27.7081C21.8083 27.7081 23.55 27.0748 24.9333 25.9164C24.7833 25.4081 24.3833 24.9164 23.7917 24.5164C21.7417 23.1498 18.2667 23.1498 16.2 24.5164C15.6083 24.9164 15.2167 25.4081 15.0667 25.9164Z" fill="#292D32"/>
<path d="M20 28.9582C15.0583 28.9582 11.0417 24.9415 11.0417 19.9998C11.0417 15.0582 15.0583 11.0415 20 11.0415C24.9417 11.0415 28.9583 15.0582 28.9583 19.9998C28.9583 24.9415 24.9417 28.9582 20 28.9582ZM20 12.2915C15.75 12.2915 12.2917 15.7498 12.2917 19.9998C12.2917 24.2498 15.75 27.7082 20 27.7082C24.25 27.7082 27.7083 24.2498 27.7083 19.9998C27.7083 15.7498 24.25 12.2915 20 12.2915Z" fill="#292D32"/>
</g>
<defs>
<clipPath id="clip0_624_61687">
<rect width="40" height="40" rx="20" fill="white"/>
</clipPath>
</defs>
</svg>
