<svg width="40" height="40" viewBox="0 0 40 40" fill="none" xmlns="http://www.w3.org/2000/svg">
<g clip-path="url(#clip0_737_8084)">
<path d="M20 23.125C18.275 23.125 16.875 21.725 16.875 20C16.875 18.275 18.275 16.875 20 16.875C21.725 16.875 23.125 18.275 23.125 20C23.125 21.725 21.725 23.125 20 23.125ZM20 18.125C18.9667 18.125 18.125 18.9667 18.125 20C18.125 21.0333 18.9667 21.875 20 21.875C21.0333 21.875 21.875 21.0333 21.875 20C21.875 18.9667 21.0333 18.125 20 18.125Z" fill="#1C2C40"/>
<path d="M22.675 28.4913C22.5 28.4913 22.325 28.4663 22.15 28.4246C21.6333 28.2829 21.2 27.9579 20.925 27.4996L20.825 27.3329C20.3333 26.4829 19.6583 26.4829 19.1667 27.3329L19.075 27.4913C18.8 27.9579 18.3667 28.2913 17.85 28.4246C17.325 28.5663 16.7833 28.4913 16.325 28.2163L14.8917 27.3913C14.3833 27.0996 14.0167 26.6246 13.8583 26.0496C13.7083 25.4746 13.7833 24.8829 14.075 24.3746C14.3167 23.9496 14.3833 23.5663 14.2417 23.3246C14.1 23.0829 13.7417 22.9413 13.25 22.9413C12.0333 22.9413 11.0417 21.9496 11.0417 20.7329V19.2663C11.0417 18.0496 12.0333 17.0579 13.25 17.0579C13.7417 17.0579 14.1 16.9163 14.2417 16.6746C14.3833 16.4329 14.325 16.0496 14.075 15.6246C13.7833 15.1163 13.7083 14.5163 13.8583 13.9496C14.0083 13.3746 14.375 12.8996 14.8917 12.6079L16.3333 11.7829C17.275 11.2246 18.5167 11.5496 19.0833 12.5079L19.1833 12.6746C19.675 13.5246 20.35 13.5246 20.8417 12.6746L20.9333 12.5163C21.5 11.5496 22.7417 11.2246 23.6917 11.7913L25.125 12.6163C25.6333 12.9079 26 13.3829 26.1583 13.9579C26.3083 14.5329 26.2333 15.1246 25.9417 15.6329C25.7 16.0579 25.6333 16.4413 25.775 16.6829C25.9167 16.9246 26.275 17.0663 26.7667 17.0663C27.9833 17.0663 28.975 18.0579 28.975 19.2746V20.7413C28.975 21.9579 27.9833 22.9496 26.7667 22.9496C26.275 22.9496 25.9167 23.0913 25.775 23.3329C25.6333 23.5746 25.6917 23.9579 25.9417 24.3829C26.2333 24.8913 26.3167 25.4913 26.1583 26.0579C26.0083 26.6329 25.6417 27.1079 25.125 27.3996L23.6833 28.2246C23.3667 28.3996 23.025 28.4913 22.675 28.4913ZM20 25.4079C20.7417 25.4079 21.4333 25.8746 21.9083 26.6996L22 26.8579C22.1 27.0329 22.2667 27.1579 22.4667 27.2079C22.6667 27.2579 22.8667 27.2329 23.0333 27.1329L24.475 26.2996C24.6917 26.1746 24.8583 25.9663 24.925 25.7163C24.9917 25.4663 24.9583 25.2079 24.8333 24.9913C24.3583 24.1746 24.3 23.3329 24.6667 22.6913C25.0333 22.0496 25.7917 21.6829 26.7417 21.6829C27.275 21.6829 27.7 21.2579 27.7 20.7246V19.2579C27.7 18.7329 27.275 18.2996 26.7417 18.2996C25.7917 18.2996 25.0333 17.9329 24.6667 17.2913C24.3 16.6496 24.3583 15.8079 24.8333 14.9913C24.9583 14.7746 24.9917 14.5163 24.925 14.2663C24.8583 14.0163 24.7 13.8163 24.4833 13.6829L23.0417 12.8579C22.6833 12.6413 22.2083 12.7663 21.9917 13.1329L21.9 13.2913C21.425 14.1163 20.7333 14.5829 19.9917 14.5829C19.25 14.5829 18.5583 14.1163 18.0833 13.2913L17.9917 13.1246C17.7833 12.7746 17.3167 12.6496 16.9583 12.8579L15.5167 13.6913C15.3 13.8163 15.1333 14.0246 15.0667 14.2746C15 14.5246 15.0333 14.7829 15.1583 14.9996C15.6333 15.8163 15.6917 16.6579 15.325 17.2996C14.9583 17.9413 14.2 18.3079 13.25 18.3079C12.7167 18.3079 12.2917 18.7329 12.2917 19.2663V20.7329C12.2917 21.2579 12.7167 21.6913 13.25 21.6913C14.2 21.6913 14.9583 22.0579 15.325 22.6996C15.6917 23.3413 15.6333 24.1829 15.1583 24.9996C15.0333 25.2163 15 25.4746 15.0667 25.7246C15.1333 25.9746 15.2917 26.1746 15.5083 26.3079L16.95 27.1329C17.125 27.2413 17.3333 27.2663 17.525 27.2163C17.725 27.1663 17.8917 27.0329 18 26.8579L18.0917 26.6996C18.5667 25.8829 19.2583 25.4079 20 25.4079Z" fill="#292D32"/>
</g>
<defs>
<clipPath id="clip0_737_8084">
<rect width="40" height="40" rx="20" fill="white"/>
</clipPath>
</defs>
</svg>
