<svg width="20" height="20" viewBox="0 0 20 20" fill="none" xmlns="http://www.w3.org/2000/svg">
<path d="M10 18.9581C9.41667 18.9581 8.825 18.7331 8.38333 18.2914L6.95834 16.8831C6.60001 16.5331 6.13333 16.3415 5.63333 16.3415H5C3.275 16.3415 1.875 14.9498 1.875 13.2415V4.14978C1.875 2.44145 3.275 1.0498 5 1.0498H15C16.725 1.0498 18.125 2.44145 18.125 4.14978V13.2415C18.125 14.9498 16.725 16.3415 15 16.3415H14.3667C13.8667 16.3415 13.3917 16.5331 13.0417 16.8831L11.6167 18.2914C11.175 18.7331 10.5833 18.9581 10 18.9581ZM5 2.29146C3.96667 2.29146 3.125 3.12477 3.125 4.14144V13.2331C3.125 14.2581 3.96667 15.0831 5 15.0831H5.63333C6.46666 15.0831 7.25 15.4081 7.84167 15.9914L9.26666 17.3998C9.675 17.7998 10.3333 17.7998 10.7417 17.3998L12.1667 15.9914C12.7583 15.4081 13.5417 15.0831 14.375 15.0831H15C16.0333 15.0831 16.875 14.2498 16.875 13.2331V4.14144C16.875 3.11644 16.0333 2.29146 15 2.29146H5Z" fill="#1C2C40"/>
<path d="M8.65019 12.0918H6.41685C6.05019 12.0918 5.70852 11.9168 5.49185 11.6168C5.28352 11.3334 5.23352 10.9835 5.33352 10.6502C5.62519 9.75852 6.34185 9.27515 6.97519 8.84182C7.64185 8.39182 8.01685 8.10852 8.01685 7.62518C8.01685 7.19185 7.66685 6.8418 7.23352 6.8418C6.80018 6.8418 6.4502 7.19185 6.4502 7.62518C6.4502 7.96685 6.16686 8.25018 5.8252 8.25018C5.48353 8.25018 5.2002 7.96685 5.2002 7.62518C5.2002 6.50852 6.10852 5.5918 7.23352 5.5918C8.35852 5.5918 9.26685 6.50018 9.26685 7.62518C9.26685 8.80018 8.38353 9.40015 7.6752 9.88348C7.23353 10.1835 6.81685 10.4668 6.60852 10.8418H8.64185C8.98352 10.8418 9.26685 11.1252 9.26685 11.4668C9.26685 11.8085 8.99186 12.0918 8.65019 12.0918Z" fill="#292D32"/>
<path d="M13.3666 12.0915C13.0249 12.0915 12.7416 11.8081 12.7416 11.4665V10.8914H11.1082C11.1082 10.8914 11.1082 10.8914 11.0999 10.8914C10.6916 10.8914 10.3166 10.6748 10.1082 10.3248C9.8999 9.96646 9.8999 9.52479 10.1082 9.17479C10.6749 8.19979 11.3332 7.09143 11.9332 6.12476C12.1999 5.69976 12.7082 5.50813 13.1832 5.64147C13.6582 5.78313 13.9916 6.2165 13.9832 6.7165V9.64975H14.1666C14.5082 9.64975 14.7916 9.93308 14.7916 10.2747C14.7916 10.6164 14.5082 10.8997 14.1666 10.8997H13.9916V11.4748C13.9916 11.8165 13.7166 12.0915 13.3666 12.0915ZM12.7416 7.1998C12.2499 7.9998 11.7416 8.85807 11.2832 9.64141H12.7416V7.1998Z" fill="#292D32"/>
</svg>
