<svg width="20" height="20" viewBox="0 0 20 20" fill="none" xmlns="http://www.w3.org/2000/svg">
<path d="M10 18.9581C9.41667 18.9581 8.825 18.7331 8.38333 18.2915L6.95831 16.8831C6.60831 16.5331 6.12501 16.3415 5.63334 16.3415H5C3.275 16.3415 1.875 14.9498 1.875 13.2415V4.14978C1.875 2.44145 3.275 1.0498 5 1.0498H15C16.725 1.0498 18.125 2.44145 18.125 4.14978V13.2415C18.125 14.9498 16.725 16.3415 15 16.3415H14.3667C13.875 16.3415 13.3917 16.5415 13.0417 16.8831L11.6167 18.2915C11.175 18.7331 10.5833 18.9581 10 18.9581ZM5 2.29146C3.96667 2.29146 3.125 3.12477 3.125 4.14144V13.2331C3.125 14.2581 3.96667 15.0831 5 15.0831H5.63334C6.45834 15.0831 7.25831 15.4165 7.84164 15.9915L9.26666 17.3998C9.675 17.7998 10.3333 17.7998 10.7417 17.3998L12.1666 15.9915C12.75 15.4165 13.55 15.0831 14.375 15.0831H15C16.0333 15.0831 16.875 14.2498 16.875 13.2331V4.14144C16.875 3.11644 16.0333 2.29146 15 2.29146H5Z" fill="#515964"/>
<path d="M9.99997 8.95851C8.5833 8.95851 7.43329 7.80849 7.43329 6.39183C7.43329 4.97516 8.5833 3.8252 9.99997 3.8252C11.4166 3.8252 12.5667 4.97516 12.5667 6.39183C12.5667 7.80849 11.4166 8.95851 9.99997 8.95851ZM9.99997 5.0752C9.27497 5.0752 8.68329 5.66683 8.68329 6.39183C8.68329 7.11683 9.27497 7.70851 9.99997 7.70851C10.725 7.70851 11.3167 7.11683 11.3167 6.39183C11.3167 5.66683 10.725 5.0752 9.99997 5.0752Z" fill="#515964"/>
<path d="M13.3334 13.6751C12.9917 13.6751 12.7084 13.3918 12.7084 13.0501C12.7084 11.9001 11.4917 10.9585 10 10.9585C8.50835 10.9585 7.29169 11.9001 7.29169 13.0501C7.29169 13.3918 7.00835 13.6751 6.66669 13.6751C6.32502 13.6751 6.04169 13.3918 6.04169 13.0501C6.04169 11.2085 7.81669 9.7085 10 9.7085C12.1834 9.7085 13.9584 11.2085 13.9584 13.0501C13.9584 13.3918 13.675 13.6751 13.3334 13.6751Z" fill="#515964"/>
</svg>
